<svg preserveAspectRatio="none" width="100%" height="100%" overflow="visible" style="display: block;" viewBox="0 0 201 201" fill="none" xmlns="http://www.w3.org/2000/svg">
<g id="Mask group">
<mask id="mask0_0_4" style="mask-type:alpha" maskUnits="userSpaceOnUse" x="29" y="0" width="143" height="47">
<path id="Ellipse 141" d="M171.564 29.4358C162.232 20.1035 151.153 12.7007 138.96 7.6501C126.767 2.5995 113.698 -2.98923e-06 100.5 0C87.3022 2.98923e-06 74.2336 2.59952 62.0404 7.65012C49.8471 12.7007 38.7681 20.1035 29.4358 29.4358L46.8131 46.813C53.8633 39.7628 62.2332 34.1702 71.4449 30.3546C80.6565 26.539 90.5295 24.5751 100.5 24.5751C110.471 24.5751 120.344 26.539 129.555 30.3546C138.767 34.1701 147.137 39.7627 154.187 46.813L171.564 29.4358Z" fill="var(--fill-0, #200000)" fill-opacity="0.4"/>
</mask>
<g mask="url(#mask0_0_4)">
<path id="cafe &#194;&#183; home &#194;&#183; office &#194;&#183; park &#194;&#183; shop &#194;&#183; museum &#194;&#183; university &#194;&#183; school &#194;&#183;" d="M2.19769 103.871L2.17953 104.927C1.87453 104.985 1.60564 105.09 1.37288 105.242C1.14016 105.391 0.943789 105.575 0.783755 105.794C0.62093 106.01 0.497456 106.251 0.413335 106.517C0.329213 106.782 0.284663 107.06 0.279685 107.35C0.270607 107.878 0.395887 108.359 0.655523 108.793C0.915208 109.223 1.30278 109.569 1.81825 109.831C2.33376 110.09 2.96931 110.226 3.72488 110.239C4.48045 110.252 5.12028 110.138 5.64439 109.897C6.16854 109.653 6.56778 109.32 6.84211 108.899C7.11649 108.474 7.25821 107.998 7.26729 107.47C7.27227 107.18 7.23728 106.901 7.16234 106.633C7.08739 106.364 6.97369 106.119 6.82122 105.898C6.66596 105.674 6.4746 105.483 6.24716 105.326C6.01692 105.165 5.7518 105.051 5.45178 104.984L5.46993 103.927C5.91452 104.014 6.31112 104.166 6.65973 104.382C7.00834 104.598 7.30352 104.865 7.54528 105.182C7.78419 105.498 7.96422 105.852 8.08535 106.244C8.20654 106.632 8.26335 107.047 8.25578 107.487C8.24299 108.231 8.04983 108.89 7.67629 109.463C7.30275 110.036 6.77795 110.483 6.10188 110.804C5.42582 111.125 4.62763 111.277 3.70731 111.261C2.78699 111.246 1.99451 111.066 1.32986 110.722C0.665216 110.378 0.15608 109.913 -0.197546 109.328C-0.551173 108.742 -0.721593 108.077 -0.708805 107.333C-0.701241 106.893 -0.630228 106.48 -0.495769 106.096C-0.36126 105.709 -0.16776 105.362 0.084731 105.053C0.334382 104.745 0.637123 104.489 0.992956 104.285C1.34595 104.081 1.74753 103.943 2.19769 103.871ZM8.37449 101.321L8.25211 102.423L-0.0677848 98.2737L0.0527165 97.1894L9.08056 94.9685L8.95817 96.0697L1.36846 97.8502L1.36093 97.918L8.37449 101.321ZM5.03145 100.538L5.52476 96.0997L6.45652 96.2033L5.96322 100.642L5.03145 100.538ZM9.39091 93.0401L0.839543 91.2967L1.8849 86.1692L2.8035 86.3565L1.96926 90.4485L4.85869 91.0375L5.61461 87.3297L6.53322 87.517L5.77729 91.2248L9.60202 92.0046L9.39091 93.0401ZM11.0047 85.5753L2.63317 83.1091L4.12155 78.0567L5.02084 78.3217L3.8311 82.3603L6.65978 83.1936L7.77245 79.4166L8.67174 79.6815L7.55907 83.4585L10.4041 84.2966L11.6131 80.1926L12.5124 80.4575L11.0047 85.5753ZM15.5015 65.2571C15.405 65.4439 15.2554 65.5696 15.0525 65.6343C14.8496 65.699 14.6548 65.683 14.468 65.5865C14.2812 65.4901 14.1555 65.3404 14.0908 65.1375C14.0262 64.9346 14.0421 64.7398 14.1386 64.553C14.2351 64.3662 14.3848 64.2405 14.5876 64.1759C14.7905 64.1112 14.9854 64.1271 15.1721 64.2236C15.2958 64.2875 15.3931 64.3777 15.464 64.4943C15.5362 64.6083 15.5771 64.7334 15.5867 64.8695C15.5951 65.0017 15.5667 65.1309 15.5015 65.2571ZM26.3075 53.7825L19.5242 48.2914L20.1891 47.47L23.2098 49.9153L26.1377 46.2984L23.117 43.8531L23.782 43.0317L30.5652 48.5228L29.9003 49.3443L26.8664 46.8883L23.9385 50.5051L26.9724 52.9611L26.3075 53.7825ZM34.4755 38.1977C35.1263 38.8486 35.5712 39.5287 35.8102 40.2378C36.0492 40.9469 36.0923 41.635 35.9395 42.3019C35.7868 42.9688 35.4473 43.5654 34.9209 44.0917C34.3945 44.6179 33.7979 44.9573 33.1309 45.11C32.464 45.2626 31.776 45.2193 31.0669 44.9802C30.3578 44.7411 29.6778 44.296 29.027 43.6451C28.3762 42.9942 27.9314 42.3142 27.6924 41.605C27.4534 40.8959 27.4103 40.2079 27.563 39.5409C27.7157 38.874 28.0553 38.2774 28.5817 37.7512C29.108 37.2249 29.7047 36.8855 30.3716 36.7329C31.0386 36.5803 31.7266 36.6235 32.4357 36.8627C33.1448 37.1018 33.8247 37.5468 34.4755 38.1977ZM33.7523 38.9208C33.218 38.3864 32.6776 38.0248 32.1312 37.8359C31.5869 37.645 31.0686 37.6068 30.5764 37.7212C30.0863 37.8337 29.6543 38.0767 29.2807 38.4503C28.907 38.8239 28.6629 39.2568 28.5483 39.749C28.4358 40.2391 28.4739 40.7574 28.6627 41.3038C28.8534 41.8482 29.216 42.3876 29.7503 42.922C30.2846 43.4564 30.8239 43.8191 31.3683 44.0099C31.9147 44.1988 32.4329 44.2371 32.9231 44.1246C33.4153 44.0101 33.8482 43.7661 34.2219 43.3925C34.5956 43.0189 34.8387 42.587 34.9512 42.0969C35.0658 41.6047 35.0276 41.0865 34.8369 40.5421C34.6481 39.9956 34.2866 39.4552 33.7523 38.9208ZM33.8961 32.859L34.8844 32.0752L41.7096 35.9084L41.7897 35.8448L39.6122 28.3259L40.6005 27.5421L46.0234 34.3801L45.2487 34.9944L41.1287 29.7991L41.0619 29.8521L43.0451 36.742L42.2972 37.3351L36.0402 33.8345L35.9734 33.8874L40.0935 39.0827L39.3189 39.697L33.8961 32.859ZM48.2104 32.7833L43.5137 25.4276L47.953 22.5931L48.4576 23.3833L44.909 25.649L46.496 28.1345L49.8146 26.0155L50.3192 26.8056L47.0005 28.9246L48.5966 31.4244L52.2026 29.122L52.7072 29.9121L48.2104 32.7833ZM64.9481 20.4075C64.7525 20.4846 64.557 20.4807 64.3617 20.3959C64.1664 20.311 64.0302 20.1708 63.9531 19.9752C63.876 19.7797 63.8799 19.5842 63.9647 19.3889C64.0496 19.1936 64.1898 19.0574 64.3853 18.9803C64.5809 18.9032 64.7764 18.9071 64.9717 18.9919C65.167 19.0768 65.3032 19.217 65.3803 19.4125C65.4313 19.542 65.4452 19.674 65.4219 19.8084C65.4011 19.9418 65.3496 20.0629 65.2673 20.1716C65.1866 20.2768 65.0802 20.3554 64.9481 20.4075ZM87.1539 13.3316C87.3095 14.2388 87.2802 15.0509 87.066 15.7679C86.8518 16.4849 86.4898 17.0716 85.9801 17.528C85.4704 17.9844 84.8487 18.2756 84.1151 18.4014C83.3815 18.5273 82.6984 18.46 82.0657 18.1996C81.433 17.9393 80.8962 17.5068 80.4552 16.9022C80.0142 16.2976 79.7159 15.5417 79.5603 14.6345C79.4046 13.7273 79.4339 12.9152 79.6481 12.1982C79.8624 11.4812 80.2243 10.8945 80.734 10.4381C81.2437 9.98166 81.8654 9.69052 82.599 9.56466C83.3326 9.43879 84.0157 9.50606 84.6484 9.76646C85.2811 10.0269 85.818 10.4594 86.2589 11.0639C86.6999 11.6685 86.9982 12.4244 87.1539 13.3316ZM86.1459 13.5046C86.0181 12.7598 85.7856 12.1526 85.4485 11.6829C85.1142 11.2128 84.7131 10.8824 84.2451 10.6917C83.78 10.5006 83.287 10.4497 82.7662 10.5391C82.2454 10.6284 81.7962 10.841 81.4185 11.1767C81.0437 11.512 80.7756 11.9572 80.6143 12.5123C80.4558 13.067 80.4405 13.7167 80.5683 14.4615C80.6961 15.2063 80.9271 15.8138 81.2614 16.2839C81.5985 16.7536 81.9997 17.084 82.4648 17.2751C82.9328 17.4658 83.4272 17.5164 83.948 17.427C84.4688 17.3377 84.9166 17.1254 85.2914 16.7901C85.6691 16.4544 85.9371 16.0092 86.0956 15.4545C86.2569 14.8993 86.2737 14.2494 86.1459 13.5046ZM90.2407 17.331L89.5861 8.62827L94.8043 8.2358L94.8746 9.17066L90.7103 9.48387L90.9314 12.4244L94.7049 12.1406L94.7752 13.0755L91.0017 13.3593L91.2945 17.2517L90.2407 17.331ZM97.8614 16.8416L97.8975 8.11445L103.13 8.13609L103.127 9.07358L98.9504 9.05631L98.9382 12.0052L102.722 12.0208L102.718 12.9583L98.9343 12.9426L98.9182 16.846L97.8614 16.8416ZM107.181 8.31631L106.553 17.021L105.499 16.9449L106.127 8.24027L107.181 8.31631ZM117.042 12.3154L115.996 12.1693C115.976 11.8596 115.904 11.58 115.781 11.3305C115.661 11.0814 115.502 10.8641 115.304 10.6787C115.11 10.4909 114.886 10.3391 114.632 10.2234C114.379 10.1077 114.109 10.0298 113.822 9.98977C113.298 9.9167 112.806 9.98275 112.344 10.1879C111.885 10.3935 111.494 10.7362 111.172 11.2161C110.853 11.6964 110.641 12.3108 110.536 13.0592C110.432 13.8077 110.467 14.4566 110.643 15.0061C110.821 15.5559 111.103 15.9926 111.488 16.316C111.876 16.6398 112.332 16.8382 112.855 16.9113C113.142 16.9513 113.423 16.9504 113.699 16.9086C113.974 16.8667 114.231 16.7836 114.469 16.6591C114.711 16.5321 114.924 16.3653 115.107 16.1586C115.294 15.9495 115.44 15.7002 115.543 15.4106L116.59 15.5567C116.449 15.9875 116.251 16.3627 115.994 16.6826C115.737 17.0024 115.436 17.2631 115.093 17.4646C114.749 17.6634 114.376 17.7992 113.973 17.872C113.573 17.9451 113.155 17.9513 112.718 17.8904C111.981 17.7875 111.351 17.5159 110.827 17.0756C110.303 16.6353 109.923 16.0602 109.687 15.3502C109.45 14.6402 109.396 13.8294 109.523 12.9178C109.65 12.0062 109.925 11.2414 110.347 10.6233C110.769 10.0053 111.292 9.55625 111.916 9.27624C112.54 8.99624 113.221 8.90771 113.958 9.01063C114.394 9.07152 114.795 9.19199 115.16 9.37203C115.528 9.55246 115.849 9.78668 116.125 10.0747C116.4 10.3599 116.618 10.6914 116.777 11.0694C116.937 11.4445 117.026 11.8599 117.042 12.3154ZM118.475 18.6741L120.49 10.1828L125.615 11.3994L125.398 12.3115L121.302 11.3391L120.621 14.2082L124.452 15.1176L124.235 16.0298L120.404 15.1204L119.719 18.0061L123.882 18.9943L123.665 19.9064L118.475 18.6741ZM139.007 22.0827C138.815 21.9961 138.682 21.8532 138.606 21.654C138.531 21.4547 138.537 21.2593 138.624 21.0678C138.71 20.8762 138.853 20.7428 139.052 20.6677C139.252 20.5925 139.447 20.5982 139.639 20.6848C139.83 20.7714 139.963 20.9143 140.039 21.1136C140.114 21.3128 140.108 21.5082 140.021 21.6997C139.964 21.8266 139.879 21.9284 139.766 22.0053C139.656 22.0834 139.534 22.1308 139.398 22.1475C139.267 22.1628 139.136 22.1412 139.007 22.0827ZM151.034 32.2692L156.087 25.1533L158.491 26.8605C159.05 27.2568 159.434 27.6816 159.646 28.1348C159.861 28.5873 159.934 29.0446 159.863 29.5069C159.793 29.9691 159.609 30.4098 159.311 30.8291C159.013 31.2484 158.657 31.5685 158.242 31.7897C157.83 32.0124 157.374 32.0999 156.875 32.0521C156.377 32.002 155.852 31.7804 155.298 31.3873L153.575 30.1637L154.118 29.3992L155.813 30.6032C156.195 30.8745 156.549 31.0265 156.875 31.0589C157.2 31.0913 157.494 31.0322 157.758 30.8815C158.026 30.7302 158.261 30.512 158.463 30.2271C158.666 29.9422 158.793 29.6496 158.846 29.3492C158.902 29.0505 158.857 28.7544 158.714 28.4609C158.572 28.1651 158.308 27.8798 157.921 27.6051L156.406 26.5295L151.896 32.8811L151.034 32.2692ZM157.222 36.8131L156.378 36.0957L164.47 31.5192L165.302 32.2255L162.094 40.9515L161.249 40.2341L164.018 32.9467L163.966 32.9025L157.222 36.8131ZM159.741 34.4798L163.145 37.3711L162.538 38.0856L159.134 35.1943L159.741 34.4798ZM163.518 42.2875L169.75 36.1775L171.814 38.2831C172.291 38.7699 172.6 39.2511 172.74 39.7266C172.882 40.2001 172.883 40.6531 172.742 41.0857C172.601 41.5182 172.347 41.9145 171.98 42.2745C171.613 42.6345 171.213 42.8786 170.782 43.007C170.351 43.1353 169.902 43.1238 169.436 42.9726C168.971 42.8193 168.502 42.5013 168.029 42.0185L166.358 40.3146L167.04 39.6463L168.686 41.3259C169.013 41.6586 169.324 41.8786 169.62 41.986C169.918 42.0954 170.201 42.1083 170.469 42.0245C170.741 41.9408 171.002 41.7767 171.252 41.532C171.501 41.2874 171.674 41.0269 171.769 40.7506C171.864 40.4743 171.862 40.184 171.762 39.8797C171.665 39.5734 171.451 39.2518 171.121 38.9151L169.82 37.5884L164.258 43.0421L163.518 42.2875ZM169.193 42.476L167.898 46.7543L167.038 45.878L168.358 41.624L169.193 42.476ZM169.238 48.2578L175.995 42.7344L176.664 43.5527L173.312 46.2928L173.377 46.372L179.21 46.6672L180.084 47.7362L174.716 47.3908L173.327 53.2596L172.518 52.2698L173.739 47.3532L172.098 47.2852L169.907 49.076L169.238 48.2578ZM183.833 64.0101C183.734 63.8243 183.716 63.6297 183.779 63.4261C183.842 63.2226 183.966 63.0717 184.152 62.9734C184.338 62.8751 184.532 62.8573 184.736 62.92C184.939 62.9826 185.09 63.1069 185.189 63.2927C185.287 63.4785 185.305 63.6732 185.242 63.8767C185.179 64.0802 185.055 64.2311 184.869 64.3294C184.746 64.3945 184.617 64.4229 184.48 64.4146C184.346 64.4088 184.22 64.3711 184.102 64.3013C183.989 64.2328 183.899 64.1357 183.833 64.0101ZM194.795 82.0866C195.194 81.9131 195.455 81.6179 195.579 81.2009C195.702 80.7839 195.688 80.3224 195.536 79.8164C195.424 79.4465 195.267 79.1408 195.064 78.8994C194.861 78.6607 194.632 78.4953 194.376 78.4033C194.12 78.3141 193.859 78.3096 193.593 78.3899C193.37 78.457 193.194 78.5678 193.065 78.7223C192.94 78.8786 192.85 79.057 192.795 79.2576C192.742 79.4574 192.71 79.66 192.698 79.8655C192.688 80.0701 192.686 80.2561 192.692 80.4235L192.719 81.341C192.728 81.5758 192.722 81.8417 192.701 82.1386C192.682 82.4382 192.622 82.7366 192.521 83.0339C192.424 83.333 192.266 83.6034 192.045 83.845C191.824 84.0866 191.517 84.2663 191.126 84.3843C190.674 84.5203 190.23 84.5248 189.795 84.3979C189.36 84.2737 188.967 84.0182 188.616 83.6314C188.266 83.2472 187.994 82.7342 187.801 82.0922C187.62 81.4938 187.561 80.9465 187.622 80.4503C187.684 79.9569 187.85 79.5331 188.121 79.1788C188.391 78.8272 188.751 78.5663 189.198 78.3961L189.512 79.4406C189.205 79.5629 188.976 79.7476 188.825 79.9948C188.677 80.2439 188.596 80.5265 188.581 80.8424C188.57 81.1603 188.615 81.4851 188.715 81.817C188.831 82.2033 188.998 82.5312 189.216 82.801C189.436 83.0698 189.686 83.2601 189.966 83.3716C190.249 83.4823 190.542 83.4918 190.847 83.4001C191.124 83.3165 191.327 83.171 191.454 82.9635C191.582 82.7561 191.662 82.5094 191.694 82.2237C191.727 81.9379 191.74 81.6359 191.733 81.3175L191.717 80.2008C191.708 79.4914 191.821 78.8939 192.054 78.4082C192.288 77.9225 192.686 77.5949 193.249 77.4253C193.717 77.2844 194.163 77.2881 194.587 77.4362C195.015 77.5862 195.39 77.8471 195.713 78.2187C196.039 78.5922 196.282 79.0456 196.443 79.5788C196.605 80.1174 196.653 80.6252 196.586 81.1023C196.522 81.5786 196.36 81.9891 196.102 82.3338C195.845 82.6813 195.507 82.9253 195.09 83.0659L194.795 82.0866ZM189.428 87.3275L197.993 85.6495L198.196 86.6866L194.382 87.4338L195.277 92.0004L199.091 91.2532L199.294 92.2903L190.729 93.9683L190.526 92.9312L194.357 92.1807L193.462 87.6141L189.632 88.3646L189.428 87.3275ZM196.142 103.591C195.225 103.673 194.418 103.578 193.721 103.306C193.023 103.035 192.468 102.627 192.054 102.082C191.641 101.537 191.401 100.894 191.335 100.152C191.268 99.4109 191.391 98.7354 191.701 98.1258C192.012 97.5163 192.487 97.0162 193.125 96.6255C193.763 96.2349 194.541 95.9987 195.457 95.9169C196.374 95.8352 197.181 95.93 197.879 96.2015C198.576 96.473 199.132 96.8813 199.545 97.4262C199.959 97.9712 200.199 98.6143 200.265 99.3557C200.331 100.097 200.209 100.773 199.898 101.382C199.587 101.992 199.113 102.492 198.475 102.882C197.836 103.273 197.059 103.509 196.142 103.591ZM196.051 102.572C196.804 102.505 197.428 102.323 197.923 102.025C198.419 101.729 198.781 101.356 199.008 100.905C199.237 100.457 199.327 99.9698 199.28 99.4435C199.233 98.9172 199.058 98.4523 198.754 98.0487C198.45 97.648 198.028 97.3448 197.487 97.1391C196.947 96.9363 196.301 96.8685 195.548 96.9356C194.796 97.0027 194.171 97.1839 193.676 97.4791C193.181 97.7771 192.819 98.1502 192.591 98.5984C192.363 99.0494 192.272 99.5381 192.319 100.064C192.366 100.591 192.542 101.054 192.845 101.455C193.15 101.859 193.572 102.162 194.112 102.365C194.652 102.57 195.298 102.639 196.051 102.572ZM191.908 106.345L200.635 106.38L200.624 109.329C200.621 110.013 200.495 110.573 200.246 111.006C200 111.443 199.668 111.765 199.249 111.974C198.831 112.182 198.365 112.286 197.85 112.284C197.336 112.282 196.869 112.175 196.45 111.963C196.03 111.754 195.696 111.431 195.448 110.996C195.202 110.56 195.081 110.003 195.084 109.324L195.092 107.21L196.03 107.214L196.021 109.293C196.019 109.762 196.099 110.139 196.26 110.424C196.421 110.708 196.638 110.915 196.914 111.044C197.191 111.176 197.505 111.242 197.854 111.244C198.204 111.245 198.517 111.181 198.793 111.052C199.069 110.925 199.286 110.718 199.443 110.432C199.603 110.146 199.684 109.765 199.686 109.291L199.694 107.433L191.904 107.402L191.908 106.345ZM193.14 127.566C193.182 127.36 193.292 127.199 193.47 127.081C193.647 126.964 193.839 126.926 194.045 126.968C194.251 127.01 194.413 127.12 194.53 127.298C194.648 127.475 194.685 127.667 194.643 127.873C194.601 128.079 194.492 128.241 194.314 128.358C194.136 128.476 193.944 128.513 193.738 128.471C193.602 128.443 193.484 128.383 193.384 128.29C193.283 128.2 193.21 128.091 193.164 127.963C193.12 127.838 193.112 127.706 193.14 127.566ZM193.889 145.093L193.378 146.246L185.553 146.024L185.512 146.118L190.935 151.763L190.424 152.917L182.444 149.382L182.845 148.478L188.907 151.164L188.942 151.086L183.984 145.907L184.37 145.034L191.537 145.226L191.572 145.148L185.509 142.462L185.909 141.558L193.889 145.093ZM185.896 161.151L185.364 162.064L180.372 159.154C179.857 158.853 179.468 158.463 179.204 157.984C178.942 157.509 178.822 156.984 178.845 156.409C178.871 155.835 179.056 155.252 179.401 154.661C179.746 154.069 180.162 153.621 180.648 153.316C181.138 153.013 181.654 152.857 182.199 152.849C182.744 152.845 183.274 152.993 183.789 153.293L188.781 156.204L188.249 157.117L183.331 154.249C182.963 154.034 182.588 153.924 182.206 153.919C181.827 153.915 181.468 154.015 181.129 154.218C180.791 154.426 180.5 154.739 180.255 155.159C180.01 155.578 179.881 155.986 179.867 156.383C179.855 156.78 179.945 157.142 180.137 157.468C180.33 157.797 180.61 158.069 180.978 158.284L185.896 161.151ZM178.891 167.65C179.271 167.861 179.664 167.889 180.07 167.734C180.477 167.578 180.835 167.287 181.144 166.858C181.37 166.545 181.517 166.234 181.585 165.926C181.652 165.62 181.644 165.338 181.561 165.078C181.477 164.821 181.322 164.611 181.096 164.448C180.907 164.312 180.712 164.24 180.512 164.231C180.311 164.227 180.115 164.264 179.922 164.342C179.731 164.422 179.551 164.519 179.38 164.634C179.212 164.751 179.063 164.862 178.934 164.969L178.221 165.548C178.04 165.697 177.825 165.854 177.577 166.018C177.327 166.185 177.054 166.319 176.757 166.42C176.46 166.524 176.149 166.563 175.823 166.534C175.497 166.505 175.168 166.371 174.836 166.132C174.454 165.856 174.181 165.506 174.016 165.083C173.851 164.662 173.815 164.195 173.909 163.681C174.001 163.17 174.244 162.642 174.636 162.098C175.002 161.592 175.4 161.212 175.831 160.959C176.261 160.708 176.698 160.583 177.144 160.582C177.588 160.583 178.013 160.71 178.42 160.962L177.782 161.846C177.498 161.676 177.212 161.607 176.924 161.637C176.636 161.671 176.363 161.779 176.103 161.959C175.844 162.143 175.613 162.376 175.41 162.657C175.174 162.984 175.015 163.316 174.933 163.653C174.853 163.991 174.854 164.306 174.936 164.596C175.02 164.887 175.19 165.126 175.448 165.312C175.683 165.482 175.922 165.554 176.164 165.529C176.406 165.505 176.651 165.418 176.898 165.27C177.144 165.123 177.392 164.949 177.641 164.751L178.518 164.059C179.076 163.621 179.619 163.347 180.146 163.237C180.674 163.128 181.176 163.245 181.653 163.589C182.049 163.875 182.318 164.232 182.458 164.659C182.599 165.09 182.62 165.546 182.52 166.028C182.422 166.514 182.21 166.983 181.884 167.434C181.555 167.89 181.18 168.237 180.761 168.474C180.344 168.712 179.92 168.833 179.489 168.838C179.057 168.845 178.658 168.725 178.292 168.479L178.891 167.65ZM171.478 166.581L178.091 172.277L174.653 176.268L173.943 175.656L176.691 172.466L174.456 170.541L171.887 173.525L171.176 172.913L173.746 169.929L171.499 167.994L168.707 171.235L167.996 170.624L171.478 166.581ZM168.257 182.659L167.495 183.392L163.49 179.226C163.077 178.796 162.809 178.315 162.687 177.782C162.564 177.253 162.593 176.715 162.773 176.168C162.954 175.623 163.291 175.114 163.785 174.639C164.279 174.164 164.801 173.847 165.353 173.687C165.906 173.529 166.446 173.521 166.972 173.662C167.497 173.807 167.967 174.094 168.38 174.524L172.385 178.689L171.624 179.422L167.678 175.318C167.382 175.011 167.052 174.803 166.686 174.693C166.323 174.585 165.95 174.583 165.568 174.686C165.186 174.793 164.82 175.015 164.47 175.352C164.12 175.688 163.884 176.045 163.762 176.423C163.642 176.802 163.63 177.175 163.725 177.54C163.82 177.91 164.016 178.248 164.311 178.555L168.257 182.659ZM164.743 185.804L163.744 186.573L156.975 182.641L156.894 182.703L158.961 190.253L157.962 191.022L152.639 184.106L153.423 183.503L157.467 188.758L157.534 188.706L155.652 181.788L156.408 181.206L162.614 184.797L162.681 184.745L158.637 179.49L159.421 178.887L164.743 185.804ZM140.83 194.566C141.02 194.476 141.216 194.467 141.416 194.539C141.616 194.611 141.761 194.742 141.851 194.933C141.941 195.123 141.95 195.318 141.878 195.518C141.806 195.719 141.675 195.864 141.484 195.954C141.294 196.043 141.099 196.052 140.899 195.98C140.698 195.908 140.553 195.777 140.464 195.587C140.404 195.461 140.382 195.33 140.396 195.195C140.408 195.06 140.452 194.936 140.527 194.822C140.601 194.712 140.702 194.627 140.83 194.566ZM121.782 206.991L120.755 207.24L119.397 201.623C119.257 201.043 119.268 200.493 119.431 199.971C119.592 199.453 119.888 199.002 120.319 198.621C120.75 198.241 121.299 197.971 121.964 197.811C122.63 197.65 123.241 197.639 123.798 197.779C124.356 197.922 124.826 198.187 125.209 198.573C125.59 198.964 125.85 199.449 125.991 200.028L127.349 205.645L126.322 205.893L124.984 200.36C124.883 199.946 124.703 199.599 124.443 199.32C124.183 199.044 123.862 198.854 123.481 198.75C123.097 198.65 122.669 198.657 122.197 198.771C121.725 198.886 121.341 199.075 121.045 199.339C120.75 199.606 120.552 199.922 120.45 200.286C120.346 200.653 120.344 201.043 120.444 201.458L121.782 206.991ZM110.353 208.853L109.195 200.203L110.209 200.067L115.831 206.228L115.916 206.217L115.007 199.425L116.054 199.285L117.212 207.935L116.198 208.07L110.556 201.895L110.472 201.906L111.383 208.715L110.353 208.853ZM106 209.265L105.448 200.556L106.503 200.489L107.055 209.199L106 209.265ZM102.336 209.381L99.7786 202.023L99.6763 202.022L97.0518 209.357L95.9439 209.352L99.1883 200.64L100.279 200.645L103.444 209.386L102.336 209.381ZM94.0325 200.519L93.1933 209.206L87.9507 208.699L88.0408 207.766L92.2315 208.171L92.5151 205.236L88.5959 204.857L88.686 203.924L92.6053 204.303L92.8905 201.351L88.6319 200.939L88.722 200.006L94.0325 200.519ZM86.3117 199.682L84.7276 208.264L81.8278 207.729C81.1573 207.605 80.628 207.389 80.2401 207.081C79.8516 206.775 79.5906 206.405 79.4571 205.97C79.3236 205.535 79.3035 205.065 79.3968 204.559C79.4902 204.053 79.6763 203.624 79.9552 203.271C80.2341 202.918 80.608 202.669 81.0766 202.525C81.5448 202.383 82.1114 202.373 82.7763 202.496L85.123 202.929L84.9497 203.868L82.6365 203.441C82.1784 203.356 81.7972 203.355 81.4931 203.438C81.1862 203.52 80.9472 203.672 80.7761 203.895C80.6017 204.12 80.4828 204.404 80.4193 204.748C80.3559 205.091 80.3647 205.403 80.4458 205.684C80.5269 205.965 80.6956 206.201 80.952 206.393C81.2079 206.587 81.5677 206.728 82.0314 206.813L83.8585 207.15L85.2724 199.49L86.3117 199.682ZM81.5604 202.792L80.1599 198.546L81.3668 198.769L82.7337 203.008L81.5604 202.792ZM71.8419 203.109C71.7751 203.539 71.8847 203.918 72.1707 204.245C72.4568 204.573 72.8543 204.808 73.3633 204.95C73.7354 205.054 74.0778 205.084 74.3905 205.042C74.7005 204.999 74.9629 204.893 75.1777 204.726C75.3897 204.558 75.5332 204.34 75.6081 204.072C75.6707 203.848 75.6712 203.64 75.6095 203.449C75.5444 203.259 75.4419 203.088 75.302 202.934C75.1614 202.782 75.0076 202.647 74.8407 202.526C74.6729 202.409 74.5168 202.307 74.3723 202.223L73.5827 201.755C73.3799 201.636 73.1585 201.489 72.9186 201.313C72.676 201.136 72.456 200.925 72.2586 200.682C72.0577 200.44 71.9144 200.161 71.8286 199.845C71.7427 199.529 71.7548 199.174 71.8648 198.78C71.9916 198.326 72.2252 197.948 72.5657 197.648C72.9033 197.347 73.3295 197.152 73.844 197.063C74.3559 196.973 74.9347 197.018 75.5804 197.198C76.1824 197.366 76.6766 197.609 77.0629 197.926C77.4464 198.242 77.7156 198.609 77.8703 199.027C78.0223 199.444 78.0505 199.887 77.955 200.356L76.9043 200.063C76.9656 199.738 76.9322 199.445 76.8042 199.185C76.6727 198.927 76.4774 198.708 76.2183 198.526C75.9558 198.347 75.6576 198.21 75.3238 198.117C74.9352 198.009 74.5688 197.974 74.2244 198.014C73.8793 198.056 73.5848 198.166 73.3408 198.342C73.096 198.522 72.9309 198.765 72.8453 199.071C72.7674 199.35 72.782 199.599 72.8891 199.818C72.9961 200.037 73.1616 200.236 73.3856 200.417C73.6095 200.597 73.8577 200.77 74.1303 200.934L75.0821 201.518C75.6861 201.891 76.1308 202.305 76.4161 202.762C76.7014 203.22 76.765 203.731 76.6069 204.298C76.4755 204.768 76.2337 205.143 75.8814 205.423C75.5257 205.704 75.1045 205.881 74.6179 205.955C74.1279 206.03 73.6147 205.993 73.0784 205.844C72.5366 205.692 72.0821 205.461 71.715 205.149C71.347 204.84 71.0865 204.484 70.9335 204.081C70.7777 203.678 70.7521 203.262 70.8568 202.834L71.8419 203.109ZM66.3914 203.692L69.278 195.455L70.2754 195.805L67.3887 204.041L66.3914 203.692ZM64.119 201.843L63.7509 202.705L57.7311 200.135L58.0991 199.273L60.6231 200.35L63.6815 193.186L64.6534 193.601L61.595 200.765L64.119 201.843ZM55.6575 199.178L54.5931 198.602L54.4034 193.868L54.3134 193.819L50.2457 196.25L49.1814 195.674L54.3967 192.662L56.1085 189.499L57.0379 190.002L55.3261 193.165L55.6575 199.178ZM39.5259 182.053C39.6873 182.188 39.7776 182.362 39.7967 182.574C39.8159 182.786 39.7581 182.972 39.6234 183.134C39.4888 183.295 39.3154 183.386 39.1033 183.405C38.8912 183.424 38.7045 183.366 38.5431 183.231C38.3817 183.097 38.2914 182.923 38.2722 182.711C38.2531 182.499 38.3108 182.312 38.4455 182.151C38.5347 182.044 38.6439 181.969 38.773 181.925C38.9 181.879 39.031 181.866 39.1659 181.886C39.2968 181.907 39.4168 181.962 39.5259 182.053ZM22.5241 169.496C22.2213 169.808 22.092 170.181 22.1363 170.613C22.1805 171.046 22.3693 171.467 22.7027 171.877C22.9464 172.177 23.2082 172.4 23.488 172.546C23.766 172.69 24.0409 172.755 24.3128 172.743C24.5829 172.728 24.8259 172.633 25.0419 172.458C25.2227 172.311 25.3432 172.141 25.4033 171.95C25.4595 171.758 25.475 171.558 25.4498 171.352C25.4225 171.147 25.3754 170.947 25.3087 170.753C25.2397 170.56 25.1707 170.387 25.1016 170.234L24.7276 169.396C24.6305 169.182 24.5349 168.934 24.4408 168.652C24.345 168.367 24.2869 168.068 24.2667 167.755C24.2425 167.442 24.2866 167.131 24.3991 166.824C24.5116 166.516 24.7265 166.234 25.0439 165.975C25.4099 165.678 25.8185 165.505 26.2698 165.457C26.7193 165.406 27.1798 165.493 27.6515 165.717C28.1213 165.939 28.5677 166.311 28.9907 166.831C29.3849 167.316 29.6481 167.799 29.7801 168.281C29.9104 168.761 29.918 169.216 29.8029 169.647C29.6861 170.075 29.4532 170.453 29.1044 170.78L28.4162 169.934C28.654 169.704 28.7957 169.446 28.8414 169.16C28.883 168.873 28.8505 168.581 28.7439 168.284C28.6333 167.985 28.4687 167.702 28.25 167.433C27.9955 167.12 27.7163 166.88 27.4124 166.713C27.1063 166.549 26.8026 166.468 26.5014 166.471C26.1979 166.476 25.9228 166.579 25.6759 166.78C25.4511 166.963 25.3192 167.174 25.2803 167.414C25.2414 167.655 25.2611 167.913 25.3396 168.19C25.4181 168.467 25.5211 168.751 25.6485 169.043L26.0879 170.07C26.366 170.722 26.4893 171.318 26.4581 171.856C26.4269 172.394 26.1831 172.848 25.7268 173.219C25.3477 173.527 24.9337 173.694 24.4849 173.718C24.0321 173.742 23.5858 173.643 23.1461 173.422C22.7025 173.201 22.305 172.874 21.9537 172.442C21.5989 172.006 21.3617 171.554 21.2422 171.088C21.1205 170.623 21.1135 170.182 21.2211 169.765C21.327 169.345 21.5462 168.991 21.8789 168.703L22.5241 169.496ZM16.6038 160.094L17.1898 160.973C16.9715 161.194 16.8099 161.433 16.7051 161.691C16.5986 161.946 16.5418 162.209 16.5347 162.48C16.5236 162.75 16.559 163.019 16.6409 163.285C16.7228 163.551 16.8441 163.805 17.0047 164.046C17.2977 164.486 17.6743 164.81 18.1344 165.019C18.5929 165.226 19.1086 165.29 19.6815 165.212C20.2527 165.132 20.8528 164.882 21.4816 164.463C22.1105 164.044 22.5719 163.586 22.8659 163.09C23.1584 162.591 23.2976 162.091 23.2835 161.588C23.2678 161.083 23.1135 160.611 22.8205 160.171C22.6598 159.93 22.4723 159.72 22.2581 159.542C22.0438 159.364 21.811 159.227 21.5596 159.132C21.3044 159.036 21.0385 158.987 20.7619 158.987C20.4814 158.986 20.1985 159.044 19.9133 159.159L19.3272 158.279C19.7425 158.098 20.155 157.997 20.5648 157.977C20.9745 157.956 21.3688 158.008 21.7478 158.131C22.1244 158.255 22.4738 158.444 22.796 158.697C23.1166 158.948 23.399 159.256 23.6432 159.623C24.0559 160.242 24.2717 160.894 24.2905 161.578C24.3092 162.262 24.1318 162.928 23.7582 163.576C23.3845 164.224 22.8147 164.804 22.0488 165.314C21.2828 165.825 20.5287 166.127 19.7864 166.223C19.0442 166.318 18.3611 166.225 17.7371 165.944C17.1131 165.664 16.5948 165.214 16.182 164.594C15.9378 164.228 15.7618 163.849 15.654 163.456C15.5445 163.061 15.506 162.665 15.5384 162.268C15.5684 161.873 15.6717 161.49 15.8483 161.12C16.0225 160.751 16.2743 160.409 16.6038 160.094ZM20.4124 154.796L12.6962 158.873L12.2024 157.939L15.6385 156.123L13.4644 152.009L10.0283 153.825L9.53452 152.89L17.2507 148.813L17.7444 149.747L14.2933 151.571L16.4674 155.685L19.9186 153.861L20.4124 154.796ZM9.29534 141.158C10.1497 140.815 10.9499 140.674 11.6959 140.733C12.4419 140.792 13.0915 141.023 13.6446 141.426C14.1977 141.828 14.6127 142.375 14.8896 143.066C15.1664 143.757 15.2439 144.439 15.1219 145.112C15 145.785 14.6896 146.401 14.1909 146.959C13.6922 147.517 13.0157 147.967 12.1612 148.309C11.3068 148.652 10.5066 148.793 9.76066 148.734C9.01468 148.675 8.36513 148.444 7.81201 148.041C7.25889 147.639 6.84389 147.092 6.56703 146.401C6.29016 145.71 6.21271 145.028 6.33467 144.355C6.45664 143.682 6.76697 143.066 7.26568 142.508C7.76438 141.95 8.44094 141.5 9.29534 141.158ZM9.67577 142.107C8.97432 142.388 8.42932 142.743 8.04079 143.171C7.65121 143.596 7.41226 144.058 7.32394 144.555C7.23457 145.05 7.28816 145.543 7.48472 146.033C7.68127 146.524 7.98328 146.918 8.39073 147.217C8.79713 147.514 9.28864 147.682 9.86527 147.724C10.4408 147.762 11.0794 147.641 11.7808 147.36C12.4823 147.079 13.0278 146.726 13.4174 146.3C13.8059 145.872 14.0449 145.411 14.1342 144.916C14.2225 144.418 14.1684 143.924 13.9719 143.434C13.7753 142.943 13.4738 142.55 13.0674 142.254C12.66 141.955 12.1685 141.786 11.5929 141.747C11.0163 141.706 10.3772 141.826 9.67577 142.107ZM6.3911 131.375C7.27771 131.128 8.08857 131.074 8.82367 131.214C9.55878 131.354 10.1793 131.655 10.6853 132.115C11.1913 132.576 11.5442 133.164 11.7442 133.881C11.9442 134.598 11.9469 135.285 11.7524 135.941C11.5578 136.597 11.1823 137.175 10.6258 137.675C10.0693 138.175 9.34771 138.549 8.4611 138.796C7.57449 139.044 6.76363 139.097 6.02853 138.957C5.29342 138.817 4.67288 138.517 4.16691 138.057C3.66093 137.596 3.30796 137.007 3.10798 136.29C2.908 135.573 2.90529 134.887 3.09985 134.231C3.2944 133.575 3.66993 132.997 4.22643 132.497C4.78293 131.996 5.50449 131.623 6.3911 131.375ZM6.66588 132.36C5.93798 132.563 5.35761 132.856 4.92477 133.24C4.49117 133.62 4.20338 134.053 4.06141 134.538C3.91868 135.02 3.91829 135.516 4.06026 136.025C4.20223 136.534 4.45946 136.959 4.83194 137.3C5.20366 137.639 5.67387 137.86 6.24257 137.964C6.81051 138.065 7.45843 138.014 8.18632 137.811C8.91422 137.608 9.49497 137.317 9.92857 136.936C10.3614 136.553 10.6492 136.12 10.7919 135.638C10.9339 135.153 10.9339 134.656 10.7919 134.147C10.65 133.638 10.3931 133.214 10.0214 132.875C9.64893 132.534 9.17872 132.313 8.61078 132.212C8.04207 132.108 7.39377 132.157 6.66588 132.36ZM10.0505 127.897L1.46615 129.47L1.27566 128.43L8.93786 127.026L8.20665 123.036L9.12879 122.867L10.0505 127.897Z" fill="var(--fill-0, white)"/>
</g>
</g>
</svg>

