<svg preserveAspectRatio="none" width="100%" height="100%" overflow="visible" style="display: block;" viewBox="0 0 359.624 379" fill="none" xmlns="http://www.w3.org/2000/svg">
<path id="Ellipse 142" opacity="0.2" d="M189.5 0C155.694 -4.03133e-07 122.503 9.0435 93.37 26.1927C64.2366 43.342 40.2212 67.9725 23.8142 97.5302C7.4071 127.088 -0.794233 160.497 0.0606081 194.292C0.91545 228.087 10.7953 261.038 28.6758 289.729C46.5562 318.419 71.7861 341.804 101.749 357.458C131.712 373.113 165.318 380.467 199.081 378.758C232.843 377.049 265.534 366.339 293.763 347.738C321.993 329.138 344.732 303.325 359.624 272.976L336.683 261.719C323.799 287.976 304.126 310.308 279.704 326.4C255.281 342.492 226.999 351.758 197.789 353.237C168.579 354.715 139.505 348.353 113.582 334.81C87.6596 321.266 65.8318 301.035 50.3625 276.213C34.8933 251.392 26.3456 222.884 25.6061 193.646C24.8665 164.408 31.9619 135.504 46.1565 109.932C60.3511 84.3602 81.1281 63.051 106.333 48.2143C131.538 33.3776 160.253 25.5536 189.5 25.5536L189.5 0Z" fill="var(--fill-0, #11161F)"/>
</svg>

