<svg preserveAspectRatio="none" width="100%" height="100%" overflow="visible" style="display: block;" viewBox="0 0 213 213" fill="none" xmlns="http://www.w3.org/2000/svg">
<g id="Mask group">
<mask id="mask0_0_4" style="mask-type:alpha" maskUnits="userSpaceOnUse" x="0" y="0" width="213" height="213">
<path id="Ellipse 141" d="M213 106.5C213 165.318 165.318 213 106.5 213C47.6817 213 0 165.318 0 106.5C0 47.6817 47.6817 0 106.5 0C165.318 0 213 47.6817 213 106.5ZM26.0423 106.5C26.0423 150.936 62.0644 186.958 106.5 186.958C150.936 186.958 186.958 150.936 186.958 106.5C186.958 62.0644 150.936 26.0423 106.5 26.0423C62.0644 26.0423 26.0423 62.0644 26.0423 106.5Z" fill="var(--fill-0, #200000)" fill-opacity="0.4"/>
</mask>
<g mask="url(#mask0_0_4)">
<path id="cafe &#194;&#183; home &#194;&#183; office &#194;&#183; park &#194;&#183; shop &#194;&#183; museum &#194;&#183; university &#194;&#183; school &#194;&#183;" d="M10.2068 102.035L10.1873 103.092C9.88223 103.149 9.61321 103.253 9.38025 103.405C9.14734 103.554 8.95073 103.738 8.79042 103.957C8.62732 104.173 8.50354 104.413 8.41908 104.679C8.33462 104.944 8.28971 105.222 8.28437 105.512C8.27461 106.04 8.39928 106.521 8.65836 106.955C8.9175 107.386 9.30463 107.733 9.81976 107.995C10.3349 108.255 10.9703 108.391 11.7259 108.405C12.4814 108.419 13.1214 108.306 13.6458 108.066C14.1703 107.822 14.5699 107.49 14.8448 107.069C15.1197 106.645 15.2621 106.169 15.2718 105.641C15.2772 105.351 15.2425 105.072 15.1679 104.803C15.0933 104.535 14.9799 104.29 14.8277 104.068C14.6728 103.844 14.4817 103.653 14.2544 103.495C14.0244 103.335 13.7594 103.22 13.4595 103.152L13.479 102.096C13.9235 102.183 14.3199 102.336 14.6682 102.552C15.0165 102.769 15.3114 103.036 15.5527 103.353C15.7912 103.67 15.9708 104.024 16.0914 104.416C16.2121 104.804 16.2684 105.219 16.2603 105.659C16.2465 106.403 16.0525 107.062 15.6783 107.634C15.304 108.207 14.7786 108.653 14.1021 108.973C13.4257 109.293 12.6273 109.445 11.707 109.428C10.7867 109.411 9.99444 109.23 9.33024 108.885C8.66603 108.541 8.15749 108.075 7.80461 107.489C7.45173 106.903 7.28216 106.238 7.2959 105.493C7.30402 105.053 7.37556 104.641 7.51051 104.257C7.64552 103.87 7.83946 103.523 8.09234 103.215C8.34239 102.907 8.64546 102.651 9.00155 102.448C9.3548 102.244 9.75656 102.106 10.2068 102.035ZM16.3904 99.4943L16.2638 100.595L7.9597 96.4146L8.0843 95.3308L17.1205 93.1441L16.9939 94.2448L9.39754 95.9966L9.38975 96.0643L16.3904 99.4943ZM13.0503 98.6985L13.5604 94.2618L14.4918 94.3689L13.9817 98.8056L13.0503 98.6985ZM17.4374 91.2173L8.89153 89.4471L9.95293 84.3229L10.8709 84.5131L10.0239 88.6024L12.9115 89.2006L13.679 85.4951L14.597 85.6853L13.8295 89.3907L17.6517 90.1824L17.4374 91.2173ZM19.0795 83.7591L10.728 81.2259L12.2568 76.1856L13.1539 76.4577L11.9319 80.4867L14.7538 81.3426L15.8967 77.5747L16.7938 77.8468L15.6509 81.6148L18.4891 82.4756L19.731 78.3814L20.6281 78.6535L19.0795 83.7591ZM23.7838 63.4803C23.6849 63.6658 23.5335 63.7895 23.3298 63.8515C23.1261 63.9134 22.9315 63.8949 22.746 63.796C22.5605 63.697 22.4368 63.5457 22.3748 63.342C22.3129 63.1383 22.3313 62.9437 22.4303 62.7582C22.5293 62.5727 22.6806 62.449 22.8843 62.387C23.088 62.325 23.2826 62.3435 23.4681 62.4425C23.5909 62.508 23.687 62.5995 23.7563 62.717C23.827 62.832 23.8663 62.9576 23.8741 63.0938C23.8808 63.2261 23.8507 63.355 23.7838 63.4803ZM34.72 52.1385L28.0387 46.5238L28.7186 45.7147L31.6939 48.215L34.6877 44.6525L31.7124 42.1522L32.3923 41.3432L39.0736 46.9579L38.3937 47.767L35.4054 45.2557L32.4116 48.8182L35.3999 51.3295L34.72 52.1385ZM43.1763 36.7076C43.8148 37.3706 44.2469 38.0588 44.4725 38.7723C44.6981 39.4858 44.7283 40.1745 44.5631 40.8385C44.3979 41.5024 44.0472 42.0925 43.5111 42.6088C42.9749 43.1251 42.372 43.4533 41.7023 43.5934C41.0326 43.7334 40.3456 43.6773 39.6411 43.4249C38.9366 43.1725 38.2651 42.7148 37.6266 42.0518C36.9882 41.3888 36.5561 40.7005 36.3305 39.987C36.1048 39.2735 36.0746 38.5848 36.2399 37.9209C36.4051 37.257 36.7558 36.6668 37.2919 36.1506C37.828 35.6343 38.431 35.3061 39.1006 35.166C39.7703 35.0259 40.4574 35.0821 41.1619 35.3345C41.8664 35.5869 42.5379 36.0445 43.1763 36.7076ZM42.4397 37.417C41.9155 36.8727 41.382 36.5009 40.8393 36.3018C40.2986 36.1008 39.7811 36.0528 39.2869 36.158C38.7947 36.2613 38.3583 36.4962 37.9777 36.8627C37.597 37.2292 37.3449 37.6574 37.2211 38.1474C37.0994 38.6353 37.1278 39.1542 37.3063 39.7041C37.4868 40.252 37.8392 40.7981 38.3633 41.3424C38.8875 41.8867 39.4199 42.2594 39.9606 42.4605C40.5034 42.6596 41.0209 42.7075 41.513 42.6043C42.0073 42.4991 42.4447 42.2632 42.8253 41.8967C43.2059 41.5302 43.4571 41.1029 43.5788 40.615C43.7026 40.1251 43.6742 39.6062 43.4937 39.0583C43.3152 38.5084 42.9638 37.9613 42.4397 37.417ZM42.6915 31.3625L43.6938 30.5968L50.4485 34.553L50.5298 34.491L48.4889 26.9337L49.4912 26.168L54.7892 33.1032L54.0036 33.7033L49.9783 28.4342L49.9106 28.486L51.7686 35.4107L51.0101 35.9902L44.8176 32.3767L44.7499 32.4284L48.7751 37.6975L47.9895 38.2977L42.6915 31.3625ZM57.0065 31.551L52.4773 24.0909L56.9796 21.3575L57.4661 22.1589L53.8672 24.3439L55.3976 26.8645L58.7634 24.8211L59.2499 25.6225L55.8841 27.6659L57.4233 30.2012L61.0805 27.9808L61.567 28.7822L57.0065 31.551ZM70.2457 21.1144C70.0513 21.1944 69.8558 21.1935 69.6592 21.1116C69.4627 21.0297 69.3244 20.8915 69.2443 20.6971C69.1643 20.5027 69.1652 20.3073 69.2471 20.1107C69.329 19.9141 69.4672 19.7759 69.6616 19.6958C69.856 19.6158 70.0515 19.6167 70.248 19.6986C70.4446 19.7805 70.5829 19.9187 70.6629 20.1131C70.7159 20.2418 70.7317 20.3735 70.7104 20.5083C70.6917 20.6419 70.642 20.7638 70.5614 20.8738C70.4822 20.9801 70.377 21.0603 70.2457 21.1144ZM92.3532 13.7103C92.5192 14.6156 92.4993 15.428 92.2934 16.1474C92.0874 16.8669 91.7322 17.4577 91.2278 17.9199C90.7234 18.3822 90.1051 18.6805 89.373 18.8148C88.6409 18.9491 87.9571 18.8897 87.3214 18.6366C86.6858 18.3835 86.144 17.9572 85.6961 17.3577C85.2482 16.7583 84.9412 16.0059 84.7751 15.1005C84.609 14.1952 84.6289 13.3828 84.8349 12.6634C85.0408 11.9439 85.396 11.3531 85.9004 10.8909C86.4048 10.4286 87.0231 10.1303 87.7552 9.99603C88.4873 9.86173 89.1712 9.92112 89.8068 10.1742C90.4425 10.4273 90.9842 10.8536 91.4322 11.4531C91.8801 12.0525 92.1871 12.8049 92.3532 13.7103ZM91.3472 13.8948C91.2109 13.1516 90.9714 12.547 90.6289 12.0813C90.2892 11.6151 89.8843 11.2893 89.4142 11.1041C88.9469 10.9183 88.4533 10.8731 87.9336 10.9684C87.4138 11.0638 86.9671 11.2815 86.5934 11.6216C86.2224 11.9611 85.9595 12.4094 85.8046 12.9664C85.6525 13.5228 85.6447 14.1727 85.781 14.916C85.9174 15.6593 86.1554 16.264 86.4951 16.7303C86.8376 17.196 87.2425 17.5217 87.7099 17.7075C88.18 17.8928 88.6749 17.9377 89.1946 17.8424C89.7144 17.747 90.1597 17.5296 90.5307 17.19C90.9044 16.8499 91.1673 16.4017 91.3194 15.8452C91.4743 15.2882 91.4836 14.6381 91.3472 13.8948ZM95.4855 17.6732L94.7256 8.97909L99.9387 8.52346L100.02 9.45739L95.86 9.82102L96.1168 12.7587L99.8865 12.4292L99.9681 13.3631L96.1984 13.6926L96.5383 17.5812L95.4855 17.6732ZM103.1 17.0991L103.092 8.37182L108.325 8.3671L108.326 9.3046L104.15 9.30837L104.153 12.2572L107.937 12.2538L107.938 13.1913L104.153 13.1947L104.157 17.0981L103.1 17.0991ZM112.344 8.51677L111.793 17.2266L110.738 17.1599L111.29 8.45003L112.344 8.51677ZM122.256 12.4582L121.209 12.3178C121.187 12.0082 121.114 11.729 120.99 11.4802C120.869 11.2317 120.708 11.0153 120.51 10.831C120.314 10.6443 120.089 10.4937 119.835 10.3794C119.581 10.2651 119.31 10.1887 119.023 10.1502C118.499 10.08 118.007 10.1487 117.546 10.3564C117.088 10.5645 116.7 10.9093 116.38 11.391C116.063 11.8731 115.855 12.4886 115.754 13.2376C115.654 13.9866 115.693 14.6353 115.872 15.1838C116.053 15.7327 116.337 16.1678 116.724 16.4891C117.114 16.8107 117.571 17.0067 118.094 17.0769C118.382 17.1154 118.663 17.1129 118.938 17.0696C119.213 17.0262 119.47 16.9416 119.707 16.8158C119.948 16.6876 120.16 16.5196 120.342 16.3119C120.528 16.1018 120.672 15.8517 120.774 15.5615L121.821 15.7019C121.683 16.1334 121.487 16.5098 121.232 16.831C120.976 17.1522 120.678 17.4145 120.335 17.618C119.993 17.8186 119.62 17.9564 119.218 18.0314C118.818 18.1068 118.399 18.1152 117.963 18.0567C117.225 17.9578 116.593 17.6897 116.067 17.2523C115.541 16.8149 115.158 16.2418 114.918 15.5332C114.677 14.8245 114.618 14.014 114.741 13.1017C114.863 12.1894 115.133 11.4231 115.552 10.8027C115.97 10.1824 116.491 9.73051 117.114 9.4471C117.736 9.16369 118.417 9.07143 119.154 9.17032C119.591 9.22883 119.992 9.3471 120.358 9.52514C120.727 9.70356 121.049 9.93601 121.326 10.2225C121.604 10.5062 121.823 10.8365 121.985 11.2136C122.147 11.5879 122.237 12.0028 122.256 12.4582ZM123.722 18.8105L125.704 10.3113L130.834 11.5076L130.621 12.4206L126.521 11.4643L125.851 14.3361L129.685 15.2304L129.473 16.1434L125.638 15.2491L124.964 18.1375L129.131 19.1093L128.918 20.0223L123.722 18.8105ZM140.481 20.5854C140.285 20.5072 140.146 20.3702 140.062 20.1744C139.979 19.9787 139.976 19.7832 140.054 19.5881C140.132 19.3929 140.269 19.2535 140.465 19.1697C140.661 19.086 140.856 19.0832 141.051 19.1614C141.246 19.2396 141.386 19.3766 141.47 19.5723C141.553 19.7681 141.556 19.9636 141.478 20.1587C141.426 20.2879 141.346 20.3934 141.236 20.4751C141.13 20.5578 141.009 20.6105 140.875 20.6331C140.744 20.6541 140.612 20.6382 140.481 20.5854ZM152.932 30.2524L157.717 22.9538L160.183 24.5705C160.755 24.9459 161.156 25.3561 161.384 25.8011C161.616 26.2453 161.705 26.6996 161.652 27.1641C161.599 27.6287 161.431 28.0759 161.149 28.506C160.867 28.936 160.523 29.2692 160.117 29.5056C159.713 29.7435 159.261 29.8478 158.76 29.8186C158.261 29.787 157.728 29.5851 157.16 29.2128L155.392 28.054L155.906 27.2699L157.645 28.4101C158.037 28.6671 158.397 28.8057 158.723 28.8261C159.049 28.8464 159.342 28.7764 159.6 28.616C159.861 28.4548 160.088 28.2281 160.28 27.9359C160.471 27.6437 160.588 27.3465 160.63 27.0444C160.674 26.7438 160.619 26.4496 160.465 26.1616C160.312 25.8712 160.037 25.596 159.64 25.3359L158.087 24.3172L153.816 30.8318L152.932 30.2524ZM159.284 34.564L158.414 33.8781L166.333 29.0078L167.19 29.6832L164.304 38.5209L163.434 37.8351L165.933 30.4509L165.88 30.4087L159.284 34.564ZM161.716 32.1399L165.223 34.9045L164.642 35.6408L161.135 32.8762L161.716 32.1399ZM165.774 39.8058L171.795 33.4883L173.93 35.5229C174.423 35.9933 174.748 36.4637 174.904 36.9342C175.062 37.4026 175.078 37.8554 174.952 38.2924C174.826 38.7295 174.585 39.1341 174.23 39.5063C173.876 39.8785 173.485 40.1361 173.058 40.2789C172.632 40.4218 172.183 40.4255 171.711 40.2902C171.242 40.1528 170.762 39.8508 170.273 39.3843L168.545 37.7379L169.204 37.0469L170.907 38.6698C171.244 38.9913 171.563 39.2006 171.862 39.2979C172.164 39.3972 172.447 39.4004 172.712 39.3077C172.981 39.2148 173.237 39.0419 173.478 38.789C173.719 38.536 173.882 38.2699 173.968 37.9905C174.054 37.7111 174.042 37.4211 173.932 37.1203C173.824 36.8174 173.6 36.5033 173.258 36.178L171.913 34.8961L166.539 40.5349L165.774 39.8058ZM171.452 39.8021L170.302 44.1218L169.414 43.275L170.589 38.9789L171.452 39.8021ZM171.691 45.5796L178.268 39.8433L178.963 40.6398L175.7 43.4855L175.767 43.5626L181.607 43.6715L182.514 44.712L177.138 44.5381L175.937 50.4483L175.097 49.4848L176.16 44.5317L174.518 44.5163L172.385 46.3761L171.691 45.5796ZM184.659 57.3366C184.547 57.1588 184.515 56.966 184.562 56.7584C184.609 56.5507 184.721 56.3908 184.899 56.2787C185.077 56.1666 185.27 56.1341 185.478 56.1812C185.685 56.2282 185.845 56.3407 185.957 56.5186C186.069 56.6964 186.102 56.8891 186.055 57.0968C186.008 57.3045 185.895 57.4644 185.717 57.5765C185.6 57.6507 185.473 57.6888 185.336 57.6909C185.201 57.6953 185.073 57.6672 184.951 57.6065C184.832 57.5467 184.735 57.4568 184.659 57.3366ZM196.881 74.635C197.268 74.4355 197.509 74.1235 197.604 73.6993C197.7 73.275 197.655 72.8155 197.469 72.3207C197.334 71.959 197.156 71.6644 196.938 71.437C196.72 71.2123 196.48 71.0625 196.218 70.9878C195.958 70.9157 195.697 70.9285 195.436 71.0263C195.218 71.1081 195.05 71.2304 194.932 71.393C194.818 71.5573 194.74 71.7413 194.698 71.9451C194.659 72.148 194.64 72.3523 194.641 72.5581C194.645 72.7629 194.656 72.9486 194.673 73.1152L194.76 74.0289C194.784 74.2627 194.796 74.5283 194.795 74.8259C194.796 75.1262 194.756 75.4279 194.675 75.7312C194.599 76.0361 194.458 76.3164 194.254 76.5722C194.049 76.8279 193.755 77.0276 193.372 77.1713C192.931 77.337 192.489 77.371 192.045 77.2733C191.603 77.1783 191.194 76.9494 190.818 76.5867C190.443 76.2267 190.138 75.7328 189.903 75.1051C189.683 74.5199 189.588 73.9778 189.616 73.4787C189.645 72.9823 189.782 72.5483 190.028 72.1769C190.275 71.8081 190.616 71.5239 191.051 71.3243L191.434 72.3457C191.136 72.4881 190.919 72.6876 190.785 72.9443C190.655 73.2027 190.592 73.49 190.599 73.8062C190.609 74.1241 190.675 74.4453 190.796 74.7698C190.938 75.1475 191.127 75.4636 191.362 75.7183C191.6 75.972 191.862 76.1451 192.148 76.2379C192.438 76.3296 192.731 76.3196 193.029 76.2078C193.3 76.106 193.493 75.9474 193.606 75.7319C193.719 75.5164 193.783 75.265 193.797 74.9777C193.81 74.6904 193.803 74.3882 193.775 74.071L193.685 72.9578C193.629 72.2506 193.701 71.6469 193.902 71.1468C194.103 70.6466 194.479 70.2933 195.029 70.0867C195.487 69.9151 195.932 69.8891 196.365 70.0087C196.802 70.13 197.194 70.3653 197.54 70.7147C197.891 71.0658 198.164 71.502 198.359 72.0233C198.557 72.55 198.638 73.0535 198.603 73.534C198.57 74.0135 198.437 74.4338 198.202 74.7949C197.968 75.1587 197.648 75.4246 197.241 75.5926L196.881 74.635ZM191.876 80.2203L200.306 77.9628L200.58 78.9836L196.826 79.9889L198.029 84.4839L201.783 83.4786L202.057 84.4995L193.627 86.757L193.353 85.7362L197.124 84.7264L195.92 80.2314L192.15 81.2411L191.876 80.2203ZM199.659 96.0055C198.749 96.1468 197.938 96.1046 197.224 95.8791C196.511 95.6536 195.93 95.2824 195.482 94.7655C195.033 94.2486 194.752 93.6225 194.638 92.887C194.523 92.1515 194.602 91.4695 194.872 90.841C195.142 90.2125 195.583 89.6825 196.195 89.2512C196.806 88.8198 197.567 88.5335 198.476 88.3922C199.386 88.2509 200.197 88.2931 200.911 88.5186C201.624 88.7441 202.205 89.1153 202.654 89.6322C203.102 90.1491 203.383 90.7753 203.497 91.5107C203.612 92.2462 203.534 92.9282 203.263 93.5567C202.993 94.1852 202.552 94.7152 201.94 95.1465C201.329 95.5779 200.568 95.8642 199.659 96.0055ZM199.502 94.9949C200.249 94.8789 200.859 94.6561 201.334 94.3264C201.81 93.9996 202.146 93.6037 202.344 93.1388C202.543 92.6768 202.602 92.1846 202.52 91.6625C202.439 91.1403 202.234 90.6878 201.904 90.3049C201.575 89.9248 201.134 89.6498 200.581 89.4797C200.029 89.3125 199.38 89.2868 198.633 89.4028C197.887 89.5188 197.275 89.7402 196.8 90.0671C196.325 90.3967 195.989 90.7926 195.79 91.2547C195.592 91.7195 195.534 92.2131 195.615 92.7352C195.696 93.2574 195.901 93.7085 196.23 94.0886C196.56 94.4715 197.001 94.7465 197.553 94.9138C198.106 95.0838 198.755 95.1109 199.502 94.9949ZM195.604 99.0302L204.319 98.5729L204.474 101.518C204.51 102.201 204.416 102.767 204.192 103.214C203.971 103.664 203.657 104.004 203.251 104.236C202.845 104.468 202.385 104.597 201.872 104.624C201.358 104.651 200.886 104.571 200.455 104.383C200.024 104.198 199.673 103.895 199.4 103.474C199.131 103.053 198.978 102.503 198.943 101.825L198.832 99.7143L199.768 99.6652L199.877 101.742C199.902 102.21 200.002 102.582 200.179 102.857C200.355 103.132 200.585 103.326 200.867 103.44C201.151 103.555 201.468 103.604 201.817 103.586C202.166 103.568 202.475 103.486 202.743 103.341C203.012 103.199 203.217 102.981 203.358 102.686C203.501 102.391 203.561 102.007 203.536 101.533L203.439 99.6774L195.66 100.086L195.604 99.0302ZM198.566 116.067C198.587 115.858 198.679 115.686 198.844 115.551C199.009 115.416 199.196 115.359 199.405 115.38C199.614 115.401 199.786 115.494 199.921 115.659C200.056 115.823 200.113 116.01 200.092 116.219C200.071 116.429 199.979 116.601 199.814 116.736C199.649 116.87 199.462 116.927 199.253 116.907C199.114 116.893 198.991 116.845 198.882 116.763C198.773 116.683 198.689 116.582 198.629 116.459C198.573 116.339 198.552 116.209 198.566 116.067ZM201.058 133.457L200.662 134.654L192.853 135.196L192.821 135.293L198.768 140.383L198.372 141.581L190.086 138.841L190.396 137.902L196.691 139.984L196.718 139.903L191.279 135.232L191.579 134.326L198.73 133.818L198.757 133.737L192.462 131.655L192.772 130.717L201.058 133.457ZM194.642 150.231L194.199 151.19L188.954 148.766C188.412 148.516 187.988 148.165 187.68 147.713C187.374 147.264 187.205 146.753 187.173 146.178C187.144 145.604 187.273 145.007 187.561 144.385C187.848 143.764 188.219 143.278 188.675 142.929C189.133 142.58 189.633 142.376 190.174 142.316C190.716 142.26 191.258 142.358 191.8 142.608L197.045 145.032L196.602 145.991L191.434 143.603C191.047 143.424 190.663 143.35 190.283 143.381C189.905 143.413 189.557 143.546 189.239 143.781C188.922 144.019 188.662 144.359 188.458 144.8C188.254 145.241 188.164 145.66 188.188 146.055C188.214 146.452 188.338 146.804 188.56 147.11C188.783 147.419 189.088 147.664 189.474 147.842L194.642 150.231ZM188.26 157.372C188.658 157.547 189.052 157.539 189.442 157.347C189.832 157.155 190.162 156.832 190.43 156.377C190.627 156.044 190.745 155.721 190.784 155.408C190.822 155.097 190.789 154.817 190.682 154.566C190.575 154.318 190.401 154.123 190.161 153.982C189.961 153.863 189.76 153.809 189.56 153.819C189.36 153.833 189.168 153.888 188.983 153.984C188.8 154.08 188.629 154.194 188.47 154.324C188.313 154.456 188.175 154.581 188.056 154.699L187.4 155.341C187.233 155.506 187.034 155.682 186.802 155.868C186.568 156.057 186.308 156.215 186.022 156.343C185.736 156.475 185.43 156.541 185.102 156.543C184.775 156.544 184.435 156.441 184.083 156.233C183.677 155.993 183.372 155.67 183.17 155.264C182.966 154.86 182.888 154.398 182.934 153.878C182.979 153.36 183.172 152.812 183.513 152.235C183.83 151.697 184.192 151.282 184.598 150.991C185.003 150.702 185.427 150.536 185.871 150.495C186.313 150.455 186.748 150.542 187.177 150.756L186.622 151.695C186.324 151.552 186.033 151.509 185.749 151.565C185.465 151.626 185.203 151.758 184.961 151.961C184.72 152.169 184.511 152.422 184.335 152.72C184.13 153.068 184.002 153.413 183.951 153.756C183.903 154.1 183.933 154.413 184.041 154.694C184.151 154.977 184.343 155.199 184.617 155.361C184.867 155.508 185.111 155.558 185.35 155.511C185.589 155.464 185.824 155.356 186.056 155.186C186.288 155.016 186.519 154.821 186.749 154.6L187.559 153.831C188.074 153.343 188.589 153.021 189.105 152.863C189.62 152.705 190.131 152.776 190.637 153.075C191.058 153.323 191.358 153.654 191.537 154.066C191.717 154.482 191.779 154.935 191.725 155.424C191.672 155.917 191.503 156.403 191.22 156.883C190.934 157.367 190.594 157.746 190.197 158.021C189.804 158.296 189.393 158.456 188.964 158.5C188.534 158.547 188.126 158.464 187.74 158.253L188.26 157.372ZM180.778 156.987L187.871 162.071L184.803 166.352L184.041 165.806L186.493 162.384L184.097 160.666L181.803 163.867L181.041 163.32L183.335 160.12L180.924 158.392L178.432 161.87L177.67 161.324L180.778 156.987ZM178.991 173.29L178.297 174.087L173.94 170.291C173.491 169.899 173.181 169.443 173.013 168.923C172.844 168.407 172.825 167.869 172.956 167.308C173.089 166.749 173.38 166.212 173.83 165.695C174.279 165.179 174.772 164.817 175.307 164.609C175.845 164.403 176.382 164.347 176.918 164.441C177.454 164.539 177.947 164.784 178.397 165.176L182.754 168.972L182.059 169.769L177.767 166.029C177.446 165.749 177.098 165.57 176.724 165.493C176.353 165.418 175.981 165.449 175.61 165.585C175.239 165.725 174.894 165.979 174.575 166.345C174.256 166.711 174.052 167.088 173.964 167.474C173.878 167.863 173.899 168.235 174.026 168.591C174.153 168.95 174.378 169.27 174.699 169.55L178.991 173.29ZM175.734 176.757L174.801 177.607L167.729 174.252L167.653 174.321L170.342 181.672L169.41 182.522L163.53 176.073L164.261 175.407L168.728 180.307L168.791 180.249L166.339 173.512L167.045 172.869L173.527 175.931L173.59 175.874L169.123 170.974L169.854 170.308L175.734 176.757ZM156.159 185.355C156.336 185.242 156.529 185.208 156.737 185.254C156.945 185.3 157.105 185.411 157.218 185.588C157.332 185.765 157.366 185.958 157.32 186.166C157.274 186.374 157.163 186.534 156.986 186.648C156.809 186.761 156.616 186.795 156.408 186.749C156.2 186.703 156.04 186.592 155.926 186.415C155.851 186.298 155.812 186.171 155.809 186.035C155.804 185.9 155.831 185.771 155.891 185.648C155.95 185.53 156.039 185.432 156.159 185.355ZM138.764 200.034L137.775 200.406L135.737 194.999C135.527 194.441 135.47 193.893 135.568 193.355C135.664 192.821 135.903 192.338 136.283 191.906C136.665 191.477 137.176 191.141 137.817 190.9C138.458 190.659 139.063 190.573 139.633 190.644C140.204 190.717 140.703 190.922 141.131 191.258C141.557 191.599 141.875 192.048 142.085 192.606L144.123 198.014L143.134 198.386L141.126 193.059C140.976 192.66 140.755 192.338 140.462 192.094C140.17 191.851 139.829 191.702 139.437 191.646C139.044 191.594 138.62 191.654 138.166 191.825C137.711 191.996 137.353 192.231 137.093 192.53C136.833 192.832 136.675 193.169 136.618 193.542C136.56 193.92 136.606 194.308 136.756 194.706L138.764 200.034ZM127.61 203.264L125.43 194.814L126.42 194.558L132.737 200.006L132.819 199.984L131.108 193.349L132.131 193.085L134.311 201.536L133.321 201.791L126.983 196.332L126.901 196.353L128.617 203.005L127.61 203.264ZM123.283 204.19L121.749 195.598L122.789 195.412L124.323 204.004L123.283 204.19ZM119.638 204.719L116.277 197.691L116.175 197.702L114.384 205.283L113.282 205.402L115.536 196.382L116.621 196.265L120.739 204.601L119.638 204.719ZM110.4 196.837L110.538 205.563L105.271 205.646L105.256 204.709L109.466 204.642L109.42 201.694L105.483 201.756L105.468 200.819L109.405 200.756L109.358 197.791L105.08 197.858L105.065 196.921L110.4 196.837ZM102.635 196.869L102.022 205.574L99.08 205.367C98.3998 205.319 97.8498 205.164 97.4297 204.901C97.0095 204.64 96.7086 204.301 96.5273 203.884C96.3459 203.467 96.2733 203.002 96.3094 202.489C96.3456 201.976 96.4825 201.529 96.7201 201.147C96.9578 200.765 97.3014 200.476 97.7509 200.28C98.2003 200.086 98.7622 200.013 99.4367 200.061L101.817 200.229L101.75 201.181L99.4036 201.015C98.9388 200.983 98.56 201.024 98.267 201.14C97.9712 201.256 97.7508 201.434 97.6057 201.675C97.4575 201.918 97.3712 202.214 97.3466 202.562C97.3221 202.911 97.3658 203.22 97.4778 203.49C97.5898 203.76 97.7839 203.976 98.0602 204.138C98.3362 204.302 98.7094 204.401 99.1799 204.434L101.033 204.565L101.581 196.794L102.635 196.869ZM98.2615 200.491L96.3946 196.429L97.6188 196.515L99.4517 200.575L98.2615 200.491ZM88.6322 201.884C88.6132 202.319 88.764 202.683 89.0845 202.977C89.405 203.271 89.8261 203.461 90.3476 203.546C90.7289 203.608 91.0727 203.6 91.3788 203.524C91.6821 203.446 91.9312 203.313 92.1262 203.123C92.3184 202.933 92.4369 202.7 92.4817 202.425C92.5191 202.195 92.4967 201.989 92.4143 201.806C92.3286 201.625 92.2078 201.465 92.0517 201.328C91.8952 201.193 91.7274 201.075 91.5481 200.974C91.3684 200.875 91.2021 200.792 91.0491 200.724L90.2127 200.346C89.9979 200.25 89.7616 200.128 89.5038 199.98C89.2431 199.831 89.0012 199.646 88.7781 199.426C88.5517 199.207 88.3784 198.946 88.2582 198.642C88.138 198.337 88.1108 197.983 88.1765 197.579C88.2524 197.114 88.4429 196.713 88.748 196.377C89.0504 196.04 89.4523 195.799 89.9539 195.654C90.4526 195.508 91.0329 195.488 91.6946 195.596C92.3115 195.697 92.8294 195.883 93.2484 196.156C93.6646 196.428 93.9727 196.763 94.1726 197.161C94.3697 197.559 94.4468 197.996 94.4037 198.473L93.3269 198.297C93.3519 197.967 93.2864 197.68 93.1305 197.436C92.9712 197.194 92.7529 196.998 92.4754 196.846C92.1946 196.697 91.8832 196.594 91.5411 196.538C91.1429 196.473 90.7749 196.48 90.4371 196.557C90.0988 196.637 89.8181 196.779 89.5951 196.981C89.3717 197.187 89.2344 197.446 89.1832 197.76C89.1366 198.046 89.1786 198.292 89.3092 198.498C89.4398 198.703 89.6263 198.883 89.8688 199.038C90.1113 199.192 90.3771 199.336 90.6662 199.47L91.6768 199.945C92.3182 200.249 92.806 200.612 93.14 201.034C93.4741 201.457 93.5939 201.959 93.4993 202.539C93.4207 203.022 93.2218 203.421 92.9026 203.737C92.5801 204.056 92.1811 204.279 91.7056 204.406C91.2269 204.535 90.7128 204.555 90.1632 204.465C89.608 204.375 89.1307 204.195 88.7314 203.926C88.3315 203.659 88.0333 203.334 87.8367 202.951C87.6373 202.567 87.566 202.157 87.6228 201.72L88.6322 201.884ZM83.276 203.064L85.2379 194.56L86.2677 194.798L84.3057 203.302L83.276 203.064ZM80.7917 201.468L80.5182 202.365L74.2575 200.455L74.531 199.559L77.156 200.359L79.4286 192.909L80.4394 193.217L78.1668 200.668L80.7917 201.468ZM72.069 199.716L70.9504 199.254L70.2676 194.565L70.1731 194.526L66.3812 197.368L65.2626 196.906L70.1352 193.367L71.5076 190.042L72.4844 190.446L71.112 193.77L72.069 199.716ZM57.7174 186.519C57.8965 186.629 58.0108 186.788 58.0602 186.995C58.1097 187.202 58.0794 187.395 57.9693 187.574C57.8592 187.753 57.7006 187.868 57.4935 187.917C57.2864 187.967 57.0933 187.936 56.9142 187.826C56.7351 187.716 56.6208 187.557 56.5713 187.35C56.5219 187.143 56.5522 186.95 56.6623 186.771C56.7352 186.652 56.8324 186.562 56.9539 186.5C57.073 186.436 57.2007 186.405 57.3371 186.405C57.4696 186.407 57.5964 186.445 57.7174 186.519ZM39.101 176.467C38.8444 176.818 38.7679 177.205 38.8717 177.627C38.9754 178.05 39.2208 178.441 39.6077 178.8C39.8906 179.064 40.1807 179.248 40.4781 179.354C40.7733 179.458 41.0547 179.485 41.3222 179.435C41.5877 179.383 41.8153 179.255 42.0049 179.051C42.1635 178.881 42.2593 178.696 42.2924 178.498C42.3214 178.3 42.3091 178.101 42.2556 177.899C42.2001 177.7 42.1258 177.509 42.0328 177.326C41.9377 177.144 41.8454 176.983 41.7559 176.841L41.2694 176.063C41.1436 175.864 41.0145 175.632 40.8823 175.365C40.7479 175.097 40.649 174.809 40.5856 174.502C40.5182 174.194 40.5189 173.881 40.5877 173.561C40.6565 173.241 40.8302 172.931 41.1088 172.631C41.43 172.286 41.8107 172.058 42.2509 171.948C42.6891 171.835 43.1572 171.857 43.6554 172.014C44.1515 172.169 44.645 172.475 45.1359 172.931C45.5936 173.357 45.9212 173.8 46.1188 174.259C46.3143 174.716 46.3848 175.166 46.3305 175.608C46.2741 176.048 46.0959 176.455 45.7958 176.827L44.997 176.084C45.2006 175.824 45.3052 175.549 45.3108 175.259C45.3123 174.969 45.2397 174.685 45.0929 174.404C44.942 174.125 44.7397 173.867 44.4859 173.63C44.1905 173.356 43.8807 173.157 43.5567 173.034C43.2307 172.913 42.9187 172.875 42.6208 172.92C42.321 172.967 42.0628 173.107 41.8461 173.34C41.6487 173.552 41.5474 173.78 41.5422 174.024C41.537 174.267 41.5924 174.52 41.7084 174.783C41.8245 175.047 41.9659 175.314 42.1325 175.585L42.7099 176.541C43.0757 177.149 43.2803 177.722 43.3239 178.259C43.3675 178.796 43.1891 179.28 42.7886 179.71C42.4558 180.068 42.0689 180.29 41.6277 180.377C41.1826 180.463 40.727 180.427 40.261 180.269C39.7909 180.111 39.352 179.843 38.9443 179.464C38.5324 179.081 38.2349 178.666 38.0519 178.221C37.867 177.777 37.799 177.341 37.8478 176.913C37.8945 176.484 38.0626 176.103 38.3521 175.77L39.101 176.467ZM31.9382 167.961L32.6393 168.752C32.4532 169 32.326 169.259 32.2574 169.529C32.187 169.796 32.1668 170.065 32.1969 170.334C32.2229 170.603 32.2948 170.864 32.4124 171.117C32.53 171.37 32.6849 171.604 32.8772 171.821C33.2277 172.217 33.6451 172.486 34.1295 172.63C34.612 172.772 35.1317 172.765 35.6884 172.609C36.2433 172.451 36.8035 172.122 37.369 171.621C37.9344 171.119 38.3288 170.603 38.552 170.071C38.7733 169.537 38.8425 169.022 38.7597 168.526C38.675 168.027 38.4573 167.581 38.1068 167.185C37.9146 166.968 37.7001 166.786 37.4635 166.639C37.2268 166.492 36.9775 166.389 36.7154 166.329C36.4494 166.268 36.1794 166.257 35.9054 166.295C35.6274 166.333 35.3551 166.428 35.0883 166.581L34.3872 165.79C34.7737 165.554 35.1685 165.397 35.5716 165.321C35.9747 165.245 36.3723 165.241 36.7646 165.311C37.1547 165.383 37.5267 165.522 37.8805 165.729C38.2325 165.933 38.5545 166.2 38.8466 166.529C39.3404 167.086 39.6434 167.702 39.7557 168.377C39.8681 169.052 39.7836 169.736 39.5024 170.43C39.2212 171.123 38.7362 171.775 38.0474 172.386C37.3586 172.996 36.6531 173.4 35.9309 173.596C35.2087 173.792 34.5194 173.794 33.8628 173.601C33.2062 173.409 32.6311 173.034 32.1374 172.477C31.8453 172.147 31.6189 171.796 31.4583 171.422C31.2957 171.046 31.2033 170.659 31.181 170.261C31.1565 169.865 31.2063 169.472 31.3305 169.081C31.4525 168.692 31.6551 168.318 31.9382 167.961ZM34.9857 162.19L27.8951 167.278L27.279 166.42L30.4365 164.154L27.7234 160.373L24.5659 162.639L23.9498 161.78L31.0403 156.692L31.6565 157.551L28.4851 159.827L31.1982 163.607L34.3695 161.332L34.9857 162.19ZM22.148 150.143C22.9506 149.692 23.7256 149.448 24.4729 149.409C25.2202 149.371 25.8943 149.515 26.4951 149.842C27.096 150.17 27.5786 150.658 27.9431 151.307C28.3075 151.956 28.4731 152.622 28.4398 153.305C28.4065 153.989 28.1789 154.639 27.7571 155.257C27.3353 155.875 26.7231 156.41 25.9205 156.861C25.1179 157.311 24.343 157.556 23.5956 157.594C22.8483 157.633 22.1742 157.488 21.5734 157.161C20.9726 156.834 20.4899 156.346 20.1255 155.697C19.761 155.048 19.5954 154.382 19.6287 153.698C19.662 153.015 19.8896 152.364 20.3114 151.746C20.7333 151.128 21.3455 150.593 22.148 150.143ZM22.6488 151.035C21.9899 151.405 21.4957 151.827 21.1662 152.302C20.8353 152.775 20.6585 153.263 20.6357 153.768C20.6115 154.27 20.7288 154.752 20.9875 155.213C21.2462 155.673 21.597 156.025 22.0399 156.269C22.4814 156.509 22.9907 156.613 23.5678 156.579C24.1435 156.542 24.7608 156.339 25.4197 155.969C26.0786 155.599 26.5735 155.178 26.9044 154.705C27.2339 154.23 27.4108 153.741 27.4349 153.239C27.4577 152.734 27.3398 152.251 27.081 151.791C26.8223 151.33 26.4722 150.979 26.0307 150.738C25.5878 150.495 25.0785 150.392 24.5028 150.428C23.9257 150.462 23.3077 150.665 22.6488 151.035ZM17.9823 140.837C18.8284 140.475 19.625 140.314 20.3722 140.356C21.1194 140.398 21.7742 140.613 22.3366 141.003C22.8991 141.392 23.3268 141.929 23.6199 142.613C23.9129 143.298 24.0064 143.978 23.9004 144.653C23.7943 145.329 23.4985 145.952 23.0131 146.522C22.5277 147.091 21.8619 147.557 21.0158 147.92C20.1697 148.282 19.3731 148.442 18.6259 148.401C17.8787 148.359 17.2239 148.144 16.6615 147.754C16.099 147.365 15.6713 146.828 15.3782 146.143C15.0851 145.459 14.9916 144.779 15.0977 144.103C15.2038 143.427 15.4995 142.805 15.985 142.235C16.4704 141.666 17.1362 141.2 17.9823 140.837ZM18.385 141.777C17.6903 142.075 17.1538 142.442 16.7755 142.879C16.396 143.314 16.168 143.781 16.0914 144.28C16.0137 144.777 16.0789 145.269 16.287 145.754C16.495 146.24 16.8062 146.627 17.2206 146.917C17.6339 147.203 18.1292 147.36 18.7067 147.388C19.283 147.413 19.9185 147.277 20.6131 146.979C21.3078 146.682 21.8448 146.316 22.2243 145.881C22.6026 145.444 22.8306 144.977 22.9083 144.48C22.9849 143.981 22.9192 143.488 22.7111 143.003C22.5031 142.517 22.1924 142.131 21.7791 141.844C21.3648 141.555 20.8694 141.398 20.2931 141.373C19.7156 141.345 19.0796 141.48 18.385 141.777ZM21.1535 136.905L12.8429 139.57L12.5203 138.563L19.9381 136.185L18.6996 132.322L19.5924 132.036L21.1535 136.905ZM13.6134 117.938C13.6366 118.147 13.5817 118.335 13.4487 118.501C13.3157 118.667 13.1447 118.762 12.9357 118.785C12.7268 118.809 12.5392 118.754 12.3729 118.621C12.2066 118.488 12.1119 118.317 12.0887 118.108C12.0655 117.899 12.1204 117.711 12.2534 117.545C12.3864 117.379 12.5574 117.284 12.7663 117.261C12.9047 117.245 13.0357 117.266 13.1593 117.324C13.2826 117.379 13.3859 117.46 13.4694 117.568C13.5497 117.674 13.5977 117.797 13.6134 117.938Z" fill="var(--fill-0, white)"/>
</g>
</g>
</svg>

