<svg preserveAspectRatio="none" width="100%" height="100%" overflow="visible" style="display: block;" viewBox="0 0 86 46" fill="none" xmlns="http://www.w3.org/2000/svg">
<path id="Vector 33" d="M18.8849 11.2831C21.34 12.5279 22.7564 20.066 23.7292 17.0745C23.9235 16.4767 23.951 15.7713 23.9856 15.4595C24.0964 14.3363 24.3846 13.2524 26.7488 8.41669C27.8616 6.52624 29.5827 4.26014 31.7298 2.06297C32.8255 0.941728 33.3732 0.456866 33.883 0.279353C34.3088 0.131095 36.9892 -0.423084 41.078 0.623164C44.1821 1.41744 45.6544 1.99644 46.256 2.49807C47.3851 3.43939 48.6098 4.40242 49.4733 6.08239C51.9192 10.8408 52.5898 15.9834 52.5873 14.7169C52.5855 13.8391 52.3047 12.2752 53.545 10.0994L53.5459 10.0978C55.1851 7.22228 56.1935 5.45338 60.2188 3.55933C64.9665 1.32541 66.6962 0.805386 69.2019 1.59661C70.5027 2.00736 72.6282 2.98059 75.4286 5.16246C76.93 6.33227 78.5081 7.76939 79.847 9.21042C81.1859 10.6514 82.2894 12.0188 82.9089 12.9947C83.8014 14.4008 84.8114 16.3862 85.5192 19.0037C85.8907 20.3774 86.2593 23.4984 85.7512 27.5856C85.4102 30.329 84.7046 32.6739 82.9508 34.5221C81.3209 36.2399 78.6713 38.7685 75.1677 40.8582C73.4522 41.8813 71.7704 42.6321 68.7089 43.5692C65.6474 44.5064 61.3369 45.5969 52.484 45.9042C43.6311 46.2115 30.6297 45.7495 22.6649 44.9494C14.7001 44.1493 11.8179 43.1602 9.68184 42.018C6.04051 40.0707 3.37984 38.7365 1.70628 36.0445C0.751488 34.5087 0.0238152 33.2332 0.00344672 31.8982C-0.0281031 29.8305 0.123093 25.5345 1.90213 22.2979C4.73638 17.1415 6.72944 13.4486 7.2493 12.9895C8.19983 12.15 9.18626 11.1808 12.2559 11.0761C15.7419 10.9571 16.4974 10.0726 18.8849 11.2831Z" fill="url(#paint0_linear_0_9)"/>
<defs>
<linearGradient id="paint0_linear_0_9" x1="43" y1="-3.74704e-08" x2="43" y2="46" gradientUnits="userSpaceOnUse">
<stop stop-color="white"/>
<stop offset="1" stop-color="#C1D6E5"/>
</linearGradient>
</defs>
</svg>

