<svg width="60" height="60" viewBox="0 0 60 60" fill="none" xmlns="http://www.w3.org/2000/svg">
<g clip-path="url(#clip0_498_844)">
<g filter="url(#filter0_ddn_498_844)">
<path d="M34.4121 17.7686C34.4352 17.7769 34.4585 17.7845 34.4814 17.793L45.4268 11.6152L41.2412 23.4678C41.2532 23.4883 41.2655 23.5087 41.2773 23.5293L53.6357 25.832L42.8096 32.2217C42.8055 32.2454 42.8021 32.2693 42.7979 32.293L50.7842 42L38.3789 39.9355C38.3622 39.9497 38.3459 39.9645 38.3291 39.9785L38.208 52.5527L30.0332 42.999C30.0221 42.9991 30.0111 43 30 43C29.9886 43 29.9772 42.9991 29.9658 42.999L21.792 52.5527L21.6699 39.9785C21.6531 39.9645 21.6369 39.9497 21.6201 39.9355L9.21582 42L17.2012 32.293C17.197 32.2693 17.1935 32.2454 17.1895 32.2217L6.36426 25.832L18.7217 23.5293C18.7335 23.5087 18.7458 23.4883 18.7578 23.4678L14.5732 11.6152L25.5176 17.793C25.5406 17.7845 25.5639 17.7769 25.5869 17.7686L30 6L34.4121 17.7686Z" fill="url(#paint0_radial_498_844)"/>
</g>
</g>
<defs>
<filter id="filter0_ddn_498_844" x="-2.63574" y="-3" width="65.2715" height="64.5527" filterUnits="userSpaceOnUse" color-interpolation-filters="sRGB">
<feFlood flood-opacity="0" result="BackgroundImageFix"/>
<feColorMatrix in="SourceAlpha" type="matrix" values="0 0 0 0 0 0 0 0 0 0 0 0 0 0 0 0 0 0 127 0" result="hardAlpha"/>
<feMorphology radius="1" operator="dilate" in="SourceAlpha" result="effect1_dropShadow_498_844"/>
<feOffset/>
<feGaussianBlur stdDeviation="4"/>
<feComposite in2="hardAlpha" operator="out"/>
<feColorMatrix type="matrix" values="0 0 0 0 1 0 0 0 0 0.478431 0 0 0 0 0.00392157 0 0 0 0.4 0"/>
<feBlend mode="normal" in2="BackgroundImageFix" result="effect1_dropShadow_498_844"/>
<feColorMatrix in="SourceAlpha" type="matrix" values="0 0 0 0 0 0 0 0 0 0 0 0 0 0 0 0 0 0 127 0" result="hardAlpha"/>
<feMorphology radius="1" operator="dilate" in="SourceAlpha" result="effect2_dropShadow_498_844"/>
<feOffset/>
<feGaussianBlur stdDeviation="0.5"/>
<feComposite in2="hardAlpha" operator="out"/>
<feColorMatrix type="matrix" values="0 0 0 0 1 0 0 0 0 1 0 0 0 0 1 0 0 0 0.1 0"/>
<feBlend mode="normal" in2="effect1_dropShadow_498_844" result="effect2_dropShadow_498_844"/>
<feBlend mode="normal" in="SourceGraphic" in2="BackgroundImageFix" result="shape"/>
<feTurbulence type="fractalNoise" baseFrequency="2 2" stitchTiles="stitch" numOctaves="3" result="noise" seed="5906" />
<feComponentTransfer in="noise" result="coloredNoise1">
<feFuncR type="linear" slope="2" intercept="-0.5" />
<feFuncG type="linear" slope="2" intercept="-0.5" />
<feFuncB type="linear" slope="2" intercept="-0.5" />
<feFuncA type="discrete" tableValues="1 1 1 1 1 1 1 1 1 1 1 1 1 1 1 1 1 1 1 1 1 1 1 1 1 1 1 1 1 1 1 1 1 1 1 1 1 1 1 1 1 1 1 1 1 1 1 1 1 1 1 0 0 0 0 0 0 0 0 0 0 0 0 0 0 0 0 0 0 0 0 0 0 0 0 0 0 0 0 0 0 0 0 0 0 0 0 0 0 0 0 0 0 0 0 0 0 0 0 0 "/>
</feComponentTransfer>
<feComposite operator="in" in2="shape" in="coloredNoise1" result="noise1Clipped" />
<feComponentTransfer in="noise1Clipped" result="color1">
<feFuncA type="table" tableValues="0 0.15" />
</feComponentTransfer>
<feMerge result="effect3_noise_498_844">
<feMergeNode in="shape" />
<feMergeNode in="color1" />
</feMerge>
<feBlend mode="normal" in="effect3_noise_498_844" in2="effect2_dropShadow_498_844" result="effect3_noise_498_844"/>
</filter>
<radialGradient id="paint0_radial_498_844" cx="0" cy="0" r="1" gradientUnits="userSpaceOnUse" gradientTransform="translate(25.32 26.36) rotate(49.1446) scale(12.7188 13.4378)">
<stop stop-color="#FFA100"/>
<stop offset="1" stop-color="#FF7A01"/>
</radialGradient>
<clipPath id="clip0_498_844">
<rect width="60" height="60" fill="white"/>
</clipPath>
</defs>
</svg>
