<svg width="60" height="60" viewBox="0 0 60 60" fill="none" xmlns="http://www.w3.org/2000/svg">
<path d="M47.9553 35.2663C34.1942 35.2663 15.5573 36.3843 9.66282 35.2663C3.76831 34.1483 1.0866 27.4058 3.05866 22.4496C4.69713 18.3318 10.105 15.6322 14.4494 16.7183C14.4494 8.34179 23.4239 7.74347 27.0141 10.7351C32.3987 -0.633008 47.9553 5.35019 47.9553 14.325C60.5198 14.325 61.7164 35.2663 47.9553 35.2663Z" fill="url(#paint0_linear_498_835)"/>
<g filter="url(#filter0_n_498_835)">
<path d="M48.008 35.7632C34.2062 35.7632 15.5142 36.3843 9.60222 35.2663C3.69028 34.1483 1.00064 27.4058 2.97853 22.4496C4.62185 18.3318 10.0458 15.6322 14.4029 16.7183C14.4029 8.34179 23.404 7.74347 27.0048 10.7351C32.4054 -0.633008 48.008 5.35019 48.008 14.325C60.6096 14.325 61.8098 35.7632 48.008 35.7632Z" fill="url(#paint1_linear_498_835)"/>
</g>
<g filter="url(#filter1_ddn_498_835)">
<g clip-path="url(#paint2_diamond_498_835_clip_path)" data-figma-skip-parse="true"><g transform="matrix(0 0.0036904 -0.00366609 0 11.3338 42.4404)"><rect x="0" y="0" width="1574.25" height="1591.29" fill="url(#paint2_diamond_498_835)" opacity="1" shape-rendering="crispEdges"/><rect x="0" y="0" width="1574.25" height="1591.29" transform="scale(1 -1)" fill="url(#paint2_diamond_498_835)" opacity="1" shape-rendering="crispEdges"/><rect x="0" y="0" width="1574.25" height="1591.29" transform="scale(-1 1)" fill="url(#paint2_diamond_498_835)" opacity="1" shape-rendering="crispEdges"/><rect x="0" y="0" width="1574.25" height="1591.29" transform="scale(-1)" fill="url(#paint2_diamond_498_835)" opacity="1" shape-rendering="crispEdges"/></g></g><path d="M11.2489 38.75C11.3098 38.75 11.3592 38.7994 11.3592 38.8603V40.0279L11.943 39.4441C11.9861 39.401 12.0559 39.401 12.099 39.4441C12.142 39.4871 12.142 39.557 12.099 39.6L11.3592 40.3398V42.2331L12.7153 40.877C12.7583 40.834 12.8282 40.834 12.8712 40.877C12.9143 40.9201 12.9143 40.9899 12.8712 41.033L11.5156 42.3886H13.7411L14.4798 41.65C14.5228 41.6069 14.5927 41.6069 14.6357 41.65C14.6788 41.693 14.6788 41.7629 14.6357 41.8059L14.053 42.3886H14.8897C14.9506 42.3886 15 42.438 15 42.4989C15 42.5598 14.9506 42.6092 14.8897 42.6092H14.0509L14.6357 43.1941C14.6788 43.2372 14.6788 43.307 14.6357 43.35C14.5927 43.3931 14.5228 43.3931 14.4798 43.35L13.7389 42.6092H11.5167L12.8727 43.9653C12.9158 44.0083 12.9158 44.0782 12.8727 44.1212C12.8297 44.1643 12.7599 44.1643 12.7168 44.1212L11.3592 42.7637V44.7705L12.099 45.5103C12.142 45.5533 12.142 45.6231 12.099 45.6662C12.0559 45.7093 11.9861 45.7093 11.943 45.6662L11.3592 45.0824V46.1397C11.3592 46.2006 11.3098 46.25 11.2489 46.25C11.188 46.25 11.1386 46.2006 11.1386 46.1397V45.0824L10.5548 45.6662C10.5118 45.7093 10.442 45.7093 10.3989 45.6662C10.3558 45.6231 10.3558 45.5533 10.3989 45.5103L11.1386 44.7705V42.7656L9.783 44.1212C9.73993 44.1643 9.67011 44.1643 9.62704 44.1212C9.58401 44.0782 9.58398 44.0083 9.62704 43.9653L10.9831 42.6092H9.31037L8.56955 43.35C8.52648 43.3931 8.45666 43.3931 8.41359 43.35C8.37052 43.307 8.37052 43.2372 8.41359 43.1941L8.99845 42.6092H7.61029C7.54939 42.6092 7.50001 42.5598 7.5 42.4989C7.5 42.438 7.54938 42.3886 7.61029 42.3886H8.99629L8.41359 41.8059C8.37052 41.7629 8.37052 41.693 8.41359 41.65C8.45666 41.6069 8.52648 41.6069 8.56955 41.65L9.30822 42.3886H10.984L9.62855 41.0332C9.58547 40.9901 9.58547 40.9201 9.62855 40.877C9.6716 40.834 9.74145 40.834 9.78451 40.877L11.1386 42.2312V40.3398L10.3989 39.6C10.3558 39.557 10.3558 39.4872 10.3989 39.4441C10.442 39.401 10.5118 39.401 10.5548 39.4441L11.1386 40.0279V38.8603C11.1386 38.7994 11.188 38.75 11.2489 38.75Z" data-figma-gradient-fill="{&#34;type&#34;:&#34;GRADIENT_DIAMOND&#34;,&#34;stops&#34;:[{&#34;color&#34;:{&#34;r&#34;:0.10218223929405212,&#34;g&#34;:0.62590914964675903,&#34;b&#34;:1.0,&#34;a&#34;:1.0},&#34;position&#34;:0.0},{&#34;color&#34;:{&#34;r&#34;:0.80551379919052124,&#34;g&#34;:0.89035767316818237,&#34;b&#34;:1.0,&#34;a&#34;:1.0},&#34;position&#34;:0.51442307233810425},{&#34;color&#34;:{&#34;r&#34;:1.0,&#34;g&#34;:1.0,&#34;b&#34;:1.0,&#34;a&#34;:1.0},&#34;position&#34;:1.0}],&#34;stopsVar&#34;:[{&#34;color&#34;:{&#34;r&#34;:0.10218223929405212,&#34;g&#34;:0.62590914964675903,&#34;b&#34;:1.0,&#34;a&#34;:1.0},&#34;position&#34;:0.0},{&#34;color&#34;:{&#34;r&#34;:0.80551379919052124,&#34;g&#34;:0.89035767316818237,&#34;b&#34;:1.0,&#34;a&#34;:1.0},&#34;position&#34;:0.51442307233810425},{&#34;color&#34;:{&#34;r&#34;:1.0,&#34;g&#34;:1.0,&#34;b&#34;:1.0,&#34;a&#34;:1.0},&#34;position&#34;:1.0}],&#34;transform&#34;:{&#34;m00&#34;:4.4896679613726730e-16,&#34;m01&#34;:-7.3321838378906250,&#34;m02&#34;:14.999912261962891,&#34;m10&#34;:7.3807969093322754,&#34;m11&#34;:4.5194353461171493e-16,&#34;m12&#34;:38.750},&#34;opacity&#34;:1.0,&#34;blendMode&#34;:&#34;NORMAL&#34;,&#34;visible&#34;:true}"/>
</g>
<g filter="url(#filter2_ddn_498_835)">
<g clip-path="url(#paint3_diamond_498_835_clip_path)" data-figma-skip-parse="true"><g transform="matrix(0 0.0036904 -0.00366609 0 36.8338 42.4404)"><rect x="0" y="0" width="1574.25" height="1591.29" fill="url(#paint3_diamond_498_835)" opacity="1" shape-rendering="crispEdges"/><rect x="0" y="0" width="1574.25" height="1591.29" transform="scale(1 -1)" fill="url(#paint3_diamond_498_835)" opacity="1" shape-rendering="crispEdges"/><rect x="0" y="0" width="1574.25" height="1591.29" transform="scale(-1 1)" fill="url(#paint3_diamond_498_835)" opacity="1" shape-rendering="crispEdges"/><rect x="0" y="0" width="1574.25" height="1591.29" transform="scale(-1)" fill="url(#paint3_diamond_498_835)" opacity="1" shape-rendering="crispEdges"/></g></g><path d="M36.7489 38.75C36.8098 38.75 36.8592 38.7994 36.8592 38.8603V40.0279L37.443 39.4441C37.4861 39.401 37.5559 39.401 37.599 39.4441C37.642 39.4871 37.642 39.557 37.599 39.6L36.8592 40.3398V42.2331L38.2153 40.877C38.2583 40.834 38.3282 40.834 38.3712 40.877C38.4143 40.9201 38.4143 40.9899 38.3712 41.033L37.0156 42.3886H39.2411L39.9798 41.65C40.0228 41.6069 40.0927 41.6069 40.1357 41.65C40.1788 41.693 40.1788 41.7629 40.1357 41.8059L39.553 42.3886H40.3897C40.4506 42.3886 40.5 42.438 40.5 42.4989C40.5 42.5598 40.4506 42.6092 40.3897 42.6092H39.5509L40.1357 43.1941C40.1788 43.2372 40.1788 43.307 40.1357 43.35C40.0927 43.3931 40.0228 43.3931 39.9798 43.35L39.2389 42.6092H37.0167L38.3727 43.9653C38.4158 44.0083 38.4158 44.0782 38.3727 44.1212C38.3297 44.1643 38.2599 44.1643 38.2168 44.1212L36.8592 42.7637V44.7705L37.599 45.5103C37.642 45.5533 37.642 45.6231 37.599 45.6662C37.5559 45.7093 37.4861 45.7093 37.443 45.6662L36.8592 45.0824V46.1397C36.8592 46.2006 36.8098 46.25 36.7489 46.25C36.688 46.25 36.6386 46.2006 36.6386 46.1397V45.0824L36.0548 45.6662C36.0118 45.7093 35.942 45.7093 35.8989 45.6662C35.8558 45.6231 35.8558 45.5533 35.8989 45.5103L36.6386 44.7705V42.7656L35.283 44.1212C35.2399 44.1643 35.1701 44.1643 35.127 44.1212C35.084 44.0782 35.084 44.0083 35.127 43.9653L36.4831 42.6092H34.8104L34.0696 43.35C34.0265 43.3931 33.9567 43.3931 33.9136 43.35C33.8705 43.307 33.8705 43.2372 33.9136 43.1941L34.4984 42.6092H33.1103C33.0494 42.6092 33 42.5598 33 42.4989C33 42.438 33.0494 42.3886 33.1103 42.3886H34.4963L33.9136 41.8059C33.8705 41.7629 33.8705 41.693 33.9136 41.65C33.9567 41.6069 34.0265 41.6069 34.0696 41.65L34.8082 42.3886H36.484L35.1285 41.0332C35.0855 40.9901 35.0855 40.9201 35.1285 40.877C35.1716 40.834 35.2414 40.834 35.2845 40.877L36.6386 42.2312V40.3398L35.8989 39.6C35.8558 39.557 35.8558 39.4872 35.8989 39.4441C35.942 39.401 36.0118 39.401 36.0548 39.4441L36.6386 40.0279V38.8603C36.6386 38.7994 36.688 38.75 36.7489 38.75Z" data-figma-gradient-fill="{&#34;type&#34;:&#34;GRADIENT_DIAMOND&#34;,&#34;stops&#34;:[{&#34;color&#34;:{&#34;r&#34;:0.10218223929405212,&#34;g&#34;:0.62590914964675903,&#34;b&#34;:1.0,&#34;a&#34;:1.0},&#34;position&#34;:0.0},{&#34;color&#34;:{&#34;r&#34;:0.80551379919052124,&#34;g&#34;:0.89035767316818237,&#34;b&#34;:1.0,&#34;a&#34;:1.0},&#34;position&#34;:0.51442307233810425},{&#34;color&#34;:{&#34;r&#34;:1.0,&#34;g&#34;:1.0,&#34;b&#34;:1.0,&#34;a&#34;:1.0},&#34;position&#34;:1.0}],&#34;stopsVar&#34;:[{&#34;color&#34;:{&#34;r&#34;:0.10218223929405212,&#34;g&#34;:0.62590914964675903,&#34;b&#34;:1.0,&#34;a&#34;:1.0},&#34;position&#34;:0.0},{&#34;color&#34;:{&#34;r&#34;:0.80551379919052124,&#34;g&#34;:0.89035767316818237,&#34;b&#34;:1.0,&#34;a&#34;:1.0},&#34;position&#34;:0.51442307233810425},{&#34;color&#34;:{&#34;r&#34;:1.0,&#34;g&#34;:1.0,&#34;b&#34;:1.0,&#34;a&#34;:1.0},&#34;position&#34;:1.0}],&#34;transform&#34;:{&#34;m00&#34;:4.4896679613726730e-16,&#34;m01&#34;:-7.3321838378906250,&#34;m02&#34;:40.499912261962891,&#34;m10&#34;:7.3807969093322754,&#34;m11&#34;:4.5194353461171493e-16,&#34;m12&#34;:38.750},&#34;opacity&#34;:1.0,&#34;blendMode&#34;:&#34;NORMAL&#34;,&#34;visible&#34;:true}"/>
</g>
<g filter="url(#filter3_ddn_498_835)">
<g clip-path="url(#paint4_diamond_498_835_clip_path)" data-figma-skip-parse="true"><g transform="matrix(0 0.0036904 -0.00366609 0 18.8338 48.4404)"><rect x="0" y="0" width="1574.25" height="1591.29" fill="url(#paint4_diamond_498_835)" opacity="1" shape-rendering="crispEdges"/><rect x="0" y="0" width="1574.25" height="1591.29" transform="scale(1 -1)" fill="url(#paint4_diamond_498_835)" opacity="1" shape-rendering="crispEdges"/><rect x="0" y="0" width="1574.25" height="1591.29" transform="scale(-1 1)" fill="url(#paint4_diamond_498_835)" opacity="1" shape-rendering="crispEdges"/><rect x="0" y="0" width="1574.25" height="1591.29" transform="scale(-1)" fill="url(#paint4_diamond_498_835)" opacity="1" shape-rendering="crispEdges"/></g></g><path d="M18.7489 44.75C18.8098 44.75 18.8592 44.7994 18.8592 44.8603V46.0279L19.443 45.4441C19.4861 45.401 19.5559 45.401 19.599 45.4441C19.642 45.4871 19.642 45.557 19.599 45.6L18.8592 46.3398V48.2331L20.2153 46.877C20.2583 46.834 20.3282 46.834 20.3712 46.877C20.4143 46.9201 20.4143 46.9899 20.3712 47.033L19.0156 48.3886H21.2411L21.9798 47.65C22.0228 47.6069 22.0927 47.6069 22.1357 47.65C22.1788 47.693 22.1788 47.7629 22.1357 47.8059L21.553 48.3886H22.3897C22.4506 48.3886 22.5 48.438 22.5 48.4989C22.5 48.5598 22.4506 48.6092 22.3897 48.6092H21.5509L22.1357 49.1941C22.1788 49.2372 22.1788 49.307 22.1357 49.35C22.0927 49.3931 22.0228 49.3931 21.9798 49.35L21.2389 48.6092H19.0167L20.3727 49.9653C20.4158 50.0083 20.4158 50.0782 20.3727 50.1212C20.3297 50.1643 20.2599 50.1643 20.2168 50.1212L18.8592 48.7637V50.7705L19.599 51.5103C19.642 51.5533 19.642 51.6231 19.599 51.6662C19.5559 51.7093 19.4861 51.7093 19.443 51.6662L18.8592 51.0824V52.1397C18.8592 52.2006 18.8098 52.25 18.7489 52.25C18.688 52.25 18.6386 52.2006 18.6386 52.1397V51.0824L18.0548 51.6662C18.0118 51.7093 17.942 51.7093 17.8989 51.6662C17.8558 51.6231 17.8558 51.5533 17.8989 51.5103L18.6386 50.7705V48.7656L17.283 50.1212C17.2399 50.1643 17.1701 50.1643 17.127 50.1212C17.084 50.0782 17.084 50.0083 17.127 49.9653L18.4831 48.6092H16.8104L16.0696 49.35C16.0265 49.3931 15.9567 49.3931 15.9136 49.35C15.8705 49.307 15.8705 49.2372 15.9136 49.1941L16.4984 48.6092H15.1103C15.0494 48.6092 15 48.5598 15 48.4989C15 48.438 15.0494 48.3886 15.1103 48.3886H16.4963L15.9136 47.8059C15.8705 47.7629 15.8705 47.693 15.9136 47.65C15.9567 47.6069 16.0265 47.6069 16.0696 47.65L16.8082 48.3886H18.484L17.1285 47.0332C17.0855 46.9901 17.0855 46.9201 17.1285 46.877C17.1716 46.834 17.2414 46.834 17.2845 46.877L18.6386 48.2312V46.3398L17.8989 45.6C17.8558 45.557 17.8558 45.4872 17.8989 45.4441C17.942 45.401 18.0118 45.401 18.0548 45.4441L18.6386 46.0279V44.8603C18.6386 44.7994 18.688 44.75 18.7489 44.75Z" data-figma-gradient-fill="{&#34;type&#34;:&#34;GRADIENT_DIAMOND&#34;,&#34;stops&#34;:[{&#34;color&#34;:{&#34;r&#34;:0.10218223929405212,&#34;g&#34;:0.62590914964675903,&#34;b&#34;:1.0,&#34;a&#34;:1.0},&#34;position&#34;:0.0},{&#34;color&#34;:{&#34;r&#34;:0.80551379919052124,&#34;g&#34;:0.89035767316818237,&#34;b&#34;:1.0,&#34;a&#34;:1.0},&#34;position&#34;:0.51442307233810425},{&#34;color&#34;:{&#34;r&#34;:1.0,&#34;g&#34;:1.0,&#34;b&#34;:1.0,&#34;a&#34;:1.0},&#34;position&#34;:1.0}],&#34;stopsVar&#34;:[{&#34;color&#34;:{&#34;r&#34;:0.10218223929405212,&#34;g&#34;:0.62590914964675903,&#34;b&#34;:1.0,&#34;a&#34;:1.0},&#34;position&#34;:0.0},{&#34;color&#34;:{&#34;r&#34;:0.80551379919052124,&#34;g&#34;:0.89035767316818237,&#34;b&#34;:1.0,&#34;a&#34;:1.0},&#34;position&#34;:0.51442307233810425},{&#34;color&#34;:{&#34;r&#34;:1.0,&#34;g&#34;:1.0,&#34;b&#34;:1.0,&#34;a&#34;:1.0},&#34;position&#34;:1.0}],&#34;transform&#34;:{&#34;m00&#34;:4.4896679613726730e-16,&#34;m01&#34;:-7.3321838378906250,&#34;m02&#34;:22.499912261962891,&#34;m10&#34;:7.3807969093322754,&#34;m11&#34;:4.5194353461171493e-16,&#34;m12&#34;:44.750},&#34;opacity&#34;:1.0,&#34;blendMode&#34;:&#34;NORMAL&#34;,&#34;visible&#34;:true}"/>
</g>
<g filter="url(#filter4_ddn_498_835)">
<g clip-path="url(#paint5_diamond_498_835_clip_path)" data-figma-skip-parse="true"><g transform="matrix(0 0.0036904 -0.00366609 0 41.3338 48.4404)"><rect x="0" y="0" width="1574.25" height="1591.29" fill="url(#paint5_diamond_498_835)" opacity="1" shape-rendering="crispEdges"/><rect x="0" y="0" width="1574.25" height="1591.29" transform="scale(1 -1)" fill="url(#paint5_diamond_498_835)" opacity="1" shape-rendering="crispEdges"/><rect x="0" y="0" width="1574.25" height="1591.29" transform="scale(-1 1)" fill="url(#paint5_diamond_498_835)" opacity="1" shape-rendering="crispEdges"/><rect x="0" y="0" width="1574.25" height="1591.29" transform="scale(-1)" fill="url(#paint5_diamond_498_835)" opacity="1" shape-rendering="crispEdges"/></g></g><path d="M41.2489 44.75C41.3098 44.75 41.3592 44.7994 41.3592 44.8603V46.0279L41.943 45.4441C41.9861 45.401 42.0559 45.401 42.099 45.4441C42.142 45.4871 42.142 45.557 42.099 45.6L41.3592 46.3398V48.2331L42.7153 46.877C42.7583 46.834 42.8282 46.834 42.8712 46.877C42.9143 46.9201 42.9143 46.9899 42.8712 47.033L41.5156 48.3886H43.7411L44.4798 47.65C44.5228 47.6069 44.5927 47.6069 44.6357 47.65C44.6788 47.693 44.6788 47.7629 44.6357 47.8059L44.053 48.3886H44.8897C44.9506 48.3886 45 48.438 45 48.4989C45 48.5598 44.9506 48.6092 44.8897 48.6092H44.0509L44.6357 49.1941C44.6788 49.2372 44.6788 49.307 44.6357 49.35C44.5927 49.3931 44.5228 49.3931 44.4798 49.35L43.7389 48.6092H41.5167L42.8727 49.9653C42.9158 50.0083 42.9158 50.0782 42.8727 50.1212C42.8297 50.1643 42.7599 50.1643 42.7168 50.1212L41.3592 48.7637V50.7705L42.099 51.5103C42.142 51.5533 42.142 51.6231 42.099 51.6662C42.0559 51.7093 41.9861 51.7093 41.943 51.6662L41.3592 51.0824V52.1397C41.3592 52.2006 41.3098 52.25 41.2489 52.25C41.188 52.25 41.1386 52.2006 41.1386 52.1397V51.0824L40.5548 51.6662C40.5118 51.7093 40.442 51.7093 40.3989 51.6662C40.3558 51.6231 40.3558 51.5533 40.3989 51.5103L41.1386 50.7705V48.7656L39.783 50.1212C39.7399 50.1643 39.6701 50.1643 39.627 50.1212C39.584 50.0782 39.584 50.0083 39.627 49.9653L40.9831 48.6092H39.3104L38.5696 49.35C38.5265 49.3931 38.4567 49.3931 38.4136 49.35C38.3705 49.307 38.3705 49.2372 38.4136 49.1941L38.9984 48.6092H37.6103C37.5494 48.6092 37.5 48.5598 37.5 48.4989C37.5 48.438 37.5494 48.3886 37.6103 48.3886H38.9963L38.4136 47.8059C38.3705 47.7629 38.3705 47.693 38.4136 47.65C38.4567 47.6069 38.5265 47.6069 38.5696 47.65L39.3082 48.3886H40.984L39.6285 47.0332C39.5855 46.9901 39.5855 46.9201 39.6285 46.877C39.6716 46.834 39.7414 46.834 39.7845 46.877L41.1386 48.2312V46.3398L40.3989 45.6C40.3558 45.557 40.3558 45.4872 40.3989 45.4441C40.442 45.401 40.5118 45.401 40.5548 45.4441L41.1386 46.0279V44.8603C41.1386 44.7994 41.188 44.75 41.2489 44.75Z" data-figma-gradient-fill="{&#34;type&#34;:&#34;GRADIENT_DIAMOND&#34;,&#34;stops&#34;:[{&#34;color&#34;:{&#34;r&#34;:0.10218223929405212,&#34;g&#34;:0.62590914964675903,&#34;b&#34;:1.0,&#34;a&#34;:1.0},&#34;position&#34;:0.0},{&#34;color&#34;:{&#34;r&#34;:0.80551379919052124,&#34;g&#34;:0.89035767316818237,&#34;b&#34;:1.0,&#34;a&#34;:1.0},&#34;position&#34;:0.51442307233810425},{&#34;color&#34;:{&#34;r&#34;:1.0,&#34;g&#34;:1.0,&#34;b&#34;:1.0,&#34;a&#34;:1.0},&#34;position&#34;:1.0}],&#34;stopsVar&#34;:[{&#34;color&#34;:{&#34;r&#34;:0.10218223929405212,&#34;g&#34;:0.62590914964675903,&#34;b&#34;:1.0,&#34;a&#34;:1.0},&#34;position&#34;:0.0},{&#34;color&#34;:{&#34;r&#34;:0.80551379919052124,&#34;g&#34;:0.89035767316818237,&#34;b&#34;:1.0,&#34;a&#34;:1.0},&#34;position&#34;:0.51442307233810425},{&#34;color&#34;:{&#34;r&#34;:1.0,&#34;g&#34;:1.0,&#34;b&#34;:1.0,&#34;a&#34;:1.0},&#34;position&#34;:1.0}],&#34;transform&#34;:{&#34;m00&#34;:4.4896679613726730e-16,&#34;m01&#34;:-7.3321838378906250,&#34;m02&#34;:44.999912261962891,&#34;m10&#34;:7.3807969093322754,&#34;m11&#34;:4.5194353461171493e-16,&#34;m12&#34;:44.750},&#34;opacity&#34;:1.0,&#34;blendMode&#34;:&#34;NORMAL&#34;,&#34;visible&#34;:true}"/>
</g>
<g filter="url(#filter5_ddn_498_835)">
<g clip-path="url(#paint6_diamond_498_835_clip_path)" data-figma-skip-parse="true"><g transform="matrix(0 0.0036904 -0.00366609 0 27.8338 44.4404)"><rect x="0" y="0" width="1574.25" height="1591.29" fill="url(#paint6_diamond_498_835)" opacity="1" shape-rendering="crispEdges"/><rect x="0" y="0" width="1574.25" height="1591.29" transform="scale(1 -1)" fill="url(#paint6_diamond_498_835)" opacity="1" shape-rendering="crispEdges"/><rect x="0" y="0" width="1574.25" height="1591.29" transform="scale(-1 1)" fill="url(#paint6_diamond_498_835)" opacity="1" shape-rendering="crispEdges"/><rect x="0" y="0" width="1574.25" height="1591.29" transform="scale(-1)" fill="url(#paint6_diamond_498_835)" opacity="1" shape-rendering="crispEdges"/></g></g><path d="M27.7489 40.75C27.8098 40.75 27.8592 40.7994 27.8592 40.8603V42.0279L28.443 41.4441C28.4861 41.401 28.5559 41.401 28.599 41.4441C28.642 41.4871 28.642 41.557 28.599 41.6L27.8592 42.3398V44.2331L29.2153 42.877C29.2583 42.834 29.3282 42.834 29.3712 42.877C29.4143 42.9201 29.4143 42.9899 29.3712 43.033L28.0156 44.3886H30.2411L30.9798 43.65C31.0228 43.6069 31.0927 43.6069 31.1357 43.65C31.1788 43.693 31.1788 43.7629 31.1357 43.8059L30.553 44.3886H31.3897C31.4506 44.3886 31.5 44.438 31.5 44.4989C31.5 44.5598 31.4506 44.6092 31.3897 44.6092H30.5509L31.1357 45.1941C31.1788 45.2372 31.1788 45.307 31.1357 45.35C31.0927 45.3931 31.0228 45.3931 30.9798 45.35L30.2389 44.6092H28.0167L29.3727 45.9653C29.4158 46.0083 29.4158 46.0782 29.3727 46.1212C29.3297 46.1643 29.2599 46.1643 29.2168 46.1212L27.8592 44.7637V46.7705L28.599 47.5103C28.642 47.5533 28.642 47.6231 28.599 47.6662C28.5559 47.7093 28.4861 47.7093 28.443 47.6662L27.8592 47.0824V48.1397C27.8592 48.2006 27.8098 48.25 27.7489 48.25C27.688 48.25 27.6386 48.2006 27.6386 48.1397V47.0824L27.0548 47.6662C27.0118 47.7093 26.942 47.7093 26.8989 47.6662C26.8558 47.6231 26.8558 47.5533 26.8989 47.5103L27.6386 46.7705V44.7656L26.283 46.1212C26.2399 46.1643 26.1701 46.1643 26.127 46.1212C26.084 46.0782 26.084 46.0083 26.127 45.9653L27.4831 44.6092H25.8104L25.0696 45.35C25.0265 45.3931 24.9567 45.3931 24.9136 45.35C24.8705 45.307 24.8705 45.2372 24.9136 45.1941L25.4984 44.6092H24.1103C24.0494 44.6092 24 44.5598 24 44.4989C24 44.438 24.0494 44.3886 24.1103 44.3886H25.4963L24.9136 43.8059C24.8705 43.7629 24.8705 43.693 24.9136 43.65C24.9567 43.6069 25.0265 43.6069 25.0696 43.65L25.8082 44.3886H27.484L26.1285 43.0332C26.0855 42.9901 26.0855 42.9201 26.1285 42.877C26.1716 42.834 26.2414 42.834 26.2845 42.877L27.6386 44.2312V42.3398L26.8989 41.6C26.8558 41.557 26.8558 41.4872 26.8989 41.4441C26.942 41.401 27.0118 41.401 27.0548 41.4441L27.6386 42.0279V40.8603C27.6386 40.7994 27.688 40.75 27.7489 40.75Z" data-figma-gradient-fill="{&#34;type&#34;:&#34;GRADIENT_DIAMOND&#34;,&#34;stops&#34;:[{&#34;color&#34;:{&#34;r&#34;:0.10218223929405212,&#34;g&#34;:0.62590914964675903,&#34;b&#34;:1.0,&#34;a&#34;:1.0},&#34;position&#34;:0.0},{&#34;color&#34;:{&#34;r&#34;:0.80551379919052124,&#34;g&#34;:0.89035767316818237,&#34;b&#34;:1.0,&#34;a&#34;:1.0},&#34;position&#34;:0.51442307233810425},{&#34;color&#34;:{&#34;r&#34;:1.0,&#34;g&#34;:1.0,&#34;b&#34;:1.0,&#34;a&#34;:1.0},&#34;position&#34;:1.0}],&#34;stopsVar&#34;:[{&#34;color&#34;:{&#34;r&#34;:0.10218223929405212,&#34;g&#34;:0.62590914964675903,&#34;b&#34;:1.0,&#34;a&#34;:1.0},&#34;position&#34;:0.0},{&#34;color&#34;:{&#34;r&#34;:0.80551379919052124,&#34;g&#34;:0.89035767316818237,&#34;b&#34;:1.0,&#34;a&#34;:1.0},&#34;position&#34;:0.51442307233810425},{&#34;color&#34;:{&#34;r&#34;:1.0,&#34;g&#34;:1.0,&#34;b&#34;:1.0,&#34;a&#34;:1.0},&#34;position&#34;:1.0}],&#34;transform&#34;:{&#34;m00&#34;:4.4896679613726730e-16,&#34;m01&#34;:-7.3321838378906250,&#34;m02&#34;:31.499912261962891,&#34;m10&#34;:7.3807969093322754,&#34;m11&#34;:4.5194353461171493e-16,&#34;m12&#34;:40.750},&#34;opacity&#34;:1.0,&#34;blendMode&#34;:&#34;NORMAL&#34;,&#34;visible&#34;:true}"/>
</g>
<g filter="url(#filter6_ddn_498_835)">
<g clip-path="url(#paint7_diamond_498_835_clip_path)" data-figma-skip-parse="true"><g transform="matrix(0 0.0036904 -0.00366609 0 48.8338 44.4404)"><rect x="0" y="0" width="1574.25" height="1591.29" fill="url(#paint7_diamond_498_835)" opacity="1" shape-rendering="crispEdges"/><rect x="0" y="0" width="1574.25" height="1591.29" transform="scale(1 -1)" fill="url(#paint7_diamond_498_835)" opacity="1" shape-rendering="crispEdges"/><rect x="0" y="0" width="1574.25" height="1591.29" transform="scale(-1 1)" fill="url(#paint7_diamond_498_835)" opacity="1" shape-rendering="crispEdges"/><rect x="0" y="0" width="1574.25" height="1591.29" transform="scale(-1)" fill="url(#paint7_diamond_498_835)" opacity="1" shape-rendering="crispEdges"/></g></g><path d="M48.7489 40.75C48.8098 40.75 48.8592 40.7994 48.8592 40.8603V42.0279L49.443 41.4441C49.4861 41.401 49.5559 41.401 49.599 41.4441C49.642 41.4871 49.642 41.557 49.599 41.6L48.8592 42.3398V44.2331L50.2153 42.877C50.2583 42.834 50.3282 42.834 50.3712 42.877C50.4143 42.9201 50.4143 42.9899 50.3712 43.033L49.0156 44.3886H51.2411L51.9798 43.65C52.0228 43.6069 52.0927 43.6069 52.1357 43.65C52.1788 43.693 52.1788 43.7629 52.1357 43.8059L51.553 44.3886H52.3897C52.4506 44.3886 52.5 44.438 52.5 44.4989C52.5 44.5598 52.4506 44.6092 52.3897 44.6092H51.5509L52.1357 45.1941C52.1788 45.2372 52.1788 45.307 52.1357 45.35C52.0927 45.3931 52.0228 45.3931 51.9798 45.35L51.2389 44.6092H49.0167L50.3727 45.9653C50.4158 46.0083 50.4158 46.0782 50.3727 46.1212C50.3297 46.1643 50.2599 46.1643 50.2168 46.1212L48.8592 44.7637V46.7705L49.599 47.5103C49.642 47.5533 49.642 47.6231 49.599 47.6662C49.5559 47.7093 49.4861 47.7093 49.443 47.6662L48.8592 47.0824V48.1397C48.8592 48.2006 48.8098 48.25 48.7489 48.25C48.688 48.25 48.6386 48.2006 48.6386 48.1397V47.0824L48.0548 47.6662C48.0118 47.7093 47.942 47.7093 47.8989 47.6662C47.8558 47.6231 47.8558 47.5533 47.8989 47.5103L48.6386 46.7705V44.7656L47.283 46.1212C47.2399 46.1643 47.1701 46.1643 47.127 46.1212C47.084 46.0782 47.084 46.0083 47.127 45.9653L48.4831 44.6092H46.8104L46.0696 45.35C46.0265 45.3931 45.9567 45.3931 45.9136 45.35C45.8705 45.307 45.8705 45.2372 45.9136 45.1941L46.4984 44.6092H45.1103C45.0494 44.6092 45 44.5598 45 44.4989C45 44.438 45.0494 44.3886 45.1103 44.3886H46.4963L45.9136 43.8059C45.8705 43.7629 45.8705 43.693 45.9136 43.65C45.9567 43.6069 46.0265 43.6069 46.0696 43.65L46.8082 44.3886H48.484L47.1285 43.0332C47.0855 42.9901 47.0855 42.9201 47.1285 42.877C47.1716 42.834 47.2414 42.834 47.2845 42.877L48.6386 44.2312V42.3398L47.8989 41.6C47.8558 41.557 47.8558 41.4872 47.8989 41.4441C47.942 41.401 48.0118 41.401 48.0548 41.4441L48.6386 42.0279V40.8603C48.6386 40.7994 48.688 40.75 48.7489 40.75Z" data-figma-gradient-fill="{&#34;type&#34;:&#34;GRADIENT_DIAMOND&#34;,&#34;stops&#34;:[{&#34;color&#34;:{&#34;r&#34;:0.10218223929405212,&#34;g&#34;:0.62590914964675903,&#34;b&#34;:1.0,&#34;a&#34;:1.0},&#34;position&#34;:0.0},{&#34;color&#34;:{&#34;r&#34;:0.80551379919052124,&#34;g&#34;:0.89035767316818237,&#34;b&#34;:1.0,&#34;a&#34;:1.0},&#34;position&#34;:0.51442307233810425},{&#34;color&#34;:{&#34;r&#34;:1.0,&#34;g&#34;:1.0,&#34;b&#34;:1.0,&#34;a&#34;:1.0},&#34;position&#34;:1.0}],&#34;stopsVar&#34;:[{&#34;color&#34;:{&#34;r&#34;:0.10218223929405212,&#34;g&#34;:0.62590914964675903,&#34;b&#34;:1.0,&#34;a&#34;:1.0},&#34;position&#34;:0.0},{&#34;color&#34;:{&#34;r&#34;:0.80551379919052124,&#34;g&#34;:0.89035767316818237,&#34;b&#34;:1.0,&#34;a&#34;:1.0},&#34;position&#34;:0.51442307233810425},{&#34;color&#34;:{&#34;r&#34;:1.0,&#34;g&#34;:1.0,&#34;b&#34;:1.0,&#34;a&#34;:1.0},&#34;position&#34;:1.0}],&#34;transform&#34;:{&#34;m00&#34;:4.4896679613726730e-16,&#34;m01&#34;:-7.3321838378906250,&#34;m02&#34;:52.499912261962891,&#34;m10&#34;:7.3807969093322754,&#34;m11&#34;:4.5194353461171493e-16,&#34;m12&#34;:40.750},&#34;opacity&#34;:1.0,&#34;blendMode&#34;:&#34;NORMAL&#34;,&#34;visible&#34;:true}"/>
</g>
<defs>
<filter id="filter0_n_498_835" x="2.33545" y="4.5" width="55.5791" height="31.4352" filterUnits="userSpaceOnUse" color-interpolation-filters="sRGB">
<feFlood flood-opacity="0" result="BackgroundImageFix"/>
<feBlend mode="normal" in="SourceGraphic" in2="BackgroundImageFix" result="shape"/>
<feTurbulence type="fractalNoise" baseFrequency="2 2" stitchTiles="stitch" numOctaves="3" result="noise" seed="7883" />
<feComponentTransfer in="noise" result="coloredNoise1">
<feFuncR type="linear" slope="2" intercept="-0.5" />
<feFuncG type="linear" slope="2" intercept="-0.5" />
<feFuncB type="linear" slope="2" intercept="-0.5" />
<feFuncA type="discrete" tableValues="1 1 1 1 1 1 1 1 1 1 1 1 1 1 1 1 1 1 1 1 1 1 1 1 1 1 1 1 1 1 1 1 1 1 1 1 1 1 1 1 1 1 1 1 1 1 1 1 1 1 1 0 0 0 0 0 0 0 0 0 0 0 0 0 0 0 0 0 0 0 0 0 0 0 0 0 0 0 0 0 0 0 0 0 0 0 0 0 0 0 0 0 0 0 0 0 0 0 0 0 "/>
</feComponentTransfer>
<feComposite operator="in" in2="shape" in="coloredNoise1" result="noise1Clipped" />
<feComponentTransfer in="noise1Clipped" result="color1">
<feFuncA type="table" tableValues="0 0.13" />
</feComponentTransfer>
<feMerge result="effect1_noise_498_835">
<feMergeNode in="shape" />
<feMergeNode in="color1" />
</feMerge>
</filter>
<filter id="filter1_ddn_498_835" x="2.5" y="33.75" width="17.5" height="17.5" filterUnits="userSpaceOnUse" color-interpolation-filters="sRGB">
<feFlood flood-opacity="0" result="BackgroundImageFix"/>
<feColorMatrix in="SourceAlpha" type="matrix" values="0 0 0 0 0 0 0 0 0 0 0 0 0 0 0 0 0 0 127 0" result="hardAlpha"/>
<feOffset/>
<feGaussianBlur stdDeviation="2"/>
<feComposite in2="hardAlpha" operator="out"/>
<feColorMatrix type="matrix" values="0 0 0 0 1 0 0 0 0 1 0 0 0 0 1 0 0 0 0.25 0"/>
<feBlend mode="normal" in2="BackgroundImageFix" result="effect1_dropShadow_498_835"/>
<feColorMatrix in="SourceAlpha" type="matrix" values="0 0 0 0 0 0 0 0 0 0 0 0 0 0 0 0 0 0 127 0" result="hardAlpha"/>
<feOffset/>
<feGaussianBlur stdDeviation="2.5"/>
<feComposite in2="hardAlpha" operator="out"/>
<feColorMatrix type="matrix" values="0 0 0 0 1 0 0 0 0 1 0 0 0 0 1 0 0 0 0.25 0"/>
<feBlend mode="normal" in2="effect1_dropShadow_498_835" result="effect2_dropShadow_498_835"/>
<feBlend mode="normal" in="SourceGraphic" in2="BackgroundImageFix" result="shape"/>
<feTurbulence type="fractalNoise" baseFrequency="2 2" stitchTiles="stitch" numOctaves="3" result="noise" seed="4225" />
<feComponentTransfer in="noise" result="coloredNoise1">
<feFuncR type="linear" slope="2" intercept="-0.5" />
<feFuncG type="linear" slope="2" intercept="-0.5" />
<feFuncB type="linear" slope="2" intercept="-0.5" />
<feFuncA type="discrete" tableValues="1 1 1 1 1 1 1 1 1 1 1 1 1 1 1 1 1 1 1 1 1 1 1 1 1 1 1 1 1 1 1 1 1 1 1 1 1 1 1 1 1 1 1 1 1 1 1 1 1 1 1 0 0 0 0 0 0 0 0 0 0 0 0 0 0 0 0 0 0 0 0 0 0 0 0 0 0 0 0 0 0 0 0 0 0 0 0 0 0 0 0 0 0 0 0 0 0 0 0 0 "/>
</feComponentTransfer>
<feComposite operator="in" in2="shape" in="coloredNoise1" result="noise1Clipped" />
<feComponentTransfer in="noise1Clipped" result="color1">
<feFuncA type="table" tableValues="0 0.15" />
</feComponentTransfer>
<feMerge result="effect3_noise_498_835">
<feMergeNode in="shape" />
<feMergeNode in="color1" />
</feMerge>
<feBlend mode="normal" in="effect3_noise_498_835" in2="effect2_dropShadow_498_835" result="effect3_noise_498_835"/>
</filter>
<clipPath id="paint2_diamond_498_835_clip_path"><path d="M11.2489 38.75C11.3098 38.75 11.3592 38.7994 11.3592 38.8603V40.0279L11.943 39.4441C11.9861 39.401 12.0559 39.401 12.099 39.4441C12.142 39.4871 12.142 39.557 12.099 39.6L11.3592 40.3398V42.2331L12.7153 40.877C12.7583 40.834 12.8282 40.834 12.8712 40.877C12.9143 40.9201 12.9143 40.9899 12.8712 41.033L11.5156 42.3886H13.7411L14.4798 41.65C14.5228 41.6069 14.5927 41.6069 14.6357 41.65C14.6788 41.693 14.6788 41.7629 14.6357 41.8059L14.053 42.3886H14.8897C14.9506 42.3886 15 42.438 15 42.4989C15 42.5598 14.9506 42.6092 14.8897 42.6092H14.0509L14.6357 43.1941C14.6788 43.2372 14.6788 43.307 14.6357 43.35C14.5927 43.3931 14.5228 43.3931 14.4798 43.35L13.7389 42.6092H11.5167L12.8727 43.9653C12.9158 44.0083 12.9158 44.0782 12.8727 44.1212C12.8297 44.1643 12.7599 44.1643 12.7168 44.1212L11.3592 42.7637V44.7705L12.099 45.5103C12.142 45.5533 12.142 45.6231 12.099 45.6662C12.0559 45.7093 11.9861 45.7093 11.943 45.6662L11.3592 45.0824V46.1397C11.3592 46.2006 11.3098 46.25 11.2489 46.25C11.188 46.25 11.1386 46.2006 11.1386 46.1397V45.0824L10.5548 45.6662C10.5118 45.7093 10.442 45.7093 10.3989 45.6662C10.3558 45.6231 10.3558 45.5533 10.3989 45.5103L11.1386 44.7705V42.7656L9.783 44.1212C9.73993 44.1643 9.67011 44.1643 9.62704 44.1212C9.58401 44.0782 9.58398 44.0083 9.62704 43.9653L10.9831 42.6092H9.31037L8.56955 43.35C8.52648 43.3931 8.45666 43.3931 8.41359 43.35C8.37052 43.307 8.37052 43.2372 8.41359 43.1941L8.99845 42.6092H7.61029C7.54939 42.6092 7.50001 42.5598 7.5 42.4989C7.5 42.438 7.54938 42.3886 7.61029 42.3886H8.99629L8.41359 41.8059C8.37052 41.7629 8.37052 41.693 8.41359 41.65C8.45666 41.6069 8.52648 41.6069 8.56955 41.65L9.30822 42.3886H10.984L9.62855 41.0332C9.58547 40.9901 9.58547 40.9201 9.62855 40.877C9.6716 40.834 9.74145 40.834 9.78451 40.877L11.1386 42.2312V40.3398L10.3989 39.6C10.3558 39.557 10.3558 39.4872 10.3989 39.4441C10.442 39.401 10.5118 39.401 10.5548 39.4441L11.1386 40.0279V38.8603C11.1386 38.7994 11.188 38.75 11.2489 38.75Z"/></clipPath><filter id="filter2_ddn_498_835" x="28" y="33.75" width="17.5" height="17.5" filterUnits="userSpaceOnUse" color-interpolation-filters="sRGB">
<feFlood flood-opacity="0" result="BackgroundImageFix"/>
<feColorMatrix in="SourceAlpha" type="matrix" values="0 0 0 0 0 0 0 0 0 0 0 0 0 0 0 0 0 0 127 0" result="hardAlpha"/>
<feOffset/>
<feGaussianBlur stdDeviation="2"/>
<feComposite in2="hardAlpha" operator="out"/>
<feColorMatrix type="matrix" values="0 0 0 0 1 0 0 0 0 1 0 0 0 0 1 0 0 0 0.25 0"/>
<feBlend mode="normal" in2="BackgroundImageFix" result="effect1_dropShadow_498_835"/>
<feColorMatrix in="SourceAlpha" type="matrix" values="0 0 0 0 0 0 0 0 0 0 0 0 0 0 0 0 0 0 127 0" result="hardAlpha"/>
<feOffset/>
<feGaussianBlur stdDeviation="2.5"/>
<feComposite in2="hardAlpha" operator="out"/>
<feColorMatrix type="matrix" values="0 0 0 0 1 0 0 0 0 1 0 0 0 0 1 0 0 0 0.25 0"/>
<feBlend mode="normal" in2="effect1_dropShadow_498_835" result="effect2_dropShadow_498_835"/>
<feBlend mode="normal" in="SourceGraphic" in2="BackgroundImageFix" result="shape"/>
<feTurbulence type="fractalNoise" baseFrequency="2 2" stitchTiles="stitch" numOctaves="3" result="noise" seed="4225" />
<feComponentTransfer in="noise" result="coloredNoise1">
<feFuncR type="linear" slope="2" intercept="-0.5" />
<feFuncG type="linear" slope="2" intercept="-0.5" />
<feFuncB type="linear" slope="2" intercept="-0.5" />
<feFuncA type="discrete" tableValues="1 1 1 1 1 1 1 1 1 1 1 1 1 1 1 1 1 1 1 1 1 1 1 1 1 1 1 1 1 1 1 1 1 1 1 1 1 1 1 1 1 1 1 1 1 1 1 1 1 1 1 0 0 0 0 0 0 0 0 0 0 0 0 0 0 0 0 0 0 0 0 0 0 0 0 0 0 0 0 0 0 0 0 0 0 0 0 0 0 0 0 0 0 0 0 0 0 0 0 0 "/>
</feComponentTransfer>
<feComposite operator="in" in2="shape" in="coloredNoise1" result="noise1Clipped" />
<feComponentTransfer in="noise1Clipped" result="color1">
<feFuncA type="table" tableValues="0 0.15" />
</feComponentTransfer>
<feMerge result="effect3_noise_498_835">
<feMergeNode in="shape" />
<feMergeNode in="color1" />
</feMerge>
<feBlend mode="normal" in="effect3_noise_498_835" in2="effect2_dropShadow_498_835" result="effect3_noise_498_835"/>
</filter>
<clipPath id="paint3_diamond_498_835_clip_path"><path d="M36.7489 38.75C36.8098 38.75 36.8592 38.7994 36.8592 38.8603V40.0279L37.443 39.4441C37.4861 39.401 37.5559 39.401 37.599 39.4441C37.642 39.4871 37.642 39.557 37.599 39.6L36.8592 40.3398V42.2331L38.2153 40.877C38.2583 40.834 38.3282 40.834 38.3712 40.877C38.4143 40.9201 38.4143 40.9899 38.3712 41.033L37.0156 42.3886H39.2411L39.9798 41.65C40.0228 41.6069 40.0927 41.6069 40.1357 41.65C40.1788 41.693 40.1788 41.7629 40.1357 41.8059L39.553 42.3886H40.3897C40.4506 42.3886 40.5 42.438 40.5 42.4989C40.5 42.5598 40.4506 42.6092 40.3897 42.6092H39.5509L40.1357 43.1941C40.1788 43.2372 40.1788 43.307 40.1357 43.35C40.0927 43.3931 40.0228 43.3931 39.9798 43.35L39.2389 42.6092H37.0167L38.3727 43.9653C38.4158 44.0083 38.4158 44.0782 38.3727 44.1212C38.3297 44.1643 38.2599 44.1643 38.2168 44.1212L36.8592 42.7637V44.7705L37.599 45.5103C37.642 45.5533 37.642 45.6231 37.599 45.6662C37.5559 45.7093 37.4861 45.7093 37.443 45.6662L36.8592 45.0824V46.1397C36.8592 46.2006 36.8098 46.25 36.7489 46.25C36.688 46.25 36.6386 46.2006 36.6386 46.1397V45.0824L36.0548 45.6662C36.0118 45.7093 35.942 45.7093 35.8989 45.6662C35.8558 45.6231 35.8558 45.5533 35.8989 45.5103L36.6386 44.7705V42.7656L35.283 44.1212C35.2399 44.1643 35.1701 44.1643 35.127 44.1212C35.084 44.0782 35.084 44.0083 35.127 43.9653L36.4831 42.6092H34.8104L34.0696 43.35C34.0265 43.3931 33.9567 43.3931 33.9136 43.35C33.8705 43.307 33.8705 43.2372 33.9136 43.1941L34.4984 42.6092H33.1103C33.0494 42.6092 33 42.5598 33 42.4989C33 42.438 33.0494 42.3886 33.1103 42.3886H34.4963L33.9136 41.8059C33.8705 41.7629 33.8705 41.693 33.9136 41.65C33.9567 41.6069 34.0265 41.6069 34.0696 41.65L34.8082 42.3886H36.484L35.1285 41.0332C35.0855 40.9901 35.0855 40.9201 35.1285 40.877C35.1716 40.834 35.2414 40.834 35.2845 40.877L36.6386 42.2312V40.3398L35.8989 39.6C35.8558 39.557 35.8558 39.4872 35.8989 39.4441C35.942 39.401 36.0118 39.401 36.0548 39.4441L36.6386 40.0279V38.8603C36.6386 38.7994 36.688 38.75 36.7489 38.75Z"/></clipPath><filter id="filter3_ddn_498_835" x="10" y="39.75" width="17.5" height="17.5" filterUnits="userSpaceOnUse" color-interpolation-filters="sRGB">
<feFlood flood-opacity="0" result="BackgroundImageFix"/>
<feColorMatrix in="SourceAlpha" type="matrix" values="0 0 0 0 0 0 0 0 0 0 0 0 0 0 0 0 0 0 127 0" result="hardAlpha"/>
<feOffset/>
<feGaussianBlur stdDeviation="2"/>
<feComposite in2="hardAlpha" operator="out"/>
<feColorMatrix type="matrix" values="0 0 0 0 1 0 0 0 0 1 0 0 0 0 1 0 0 0 0.25 0"/>
<feBlend mode="normal" in2="BackgroundImageFix" result="effect1_dropShadow_498_835"/>
<feColorMatrix in="SourceAlpha" type="matrix" values="0 0 0 0 0 0 0 0 0 0 0 0 0 0 0 0 0 0 127 0" result="hardAlpha"/>
<feOffset/>
<feGaussianBlur stdDeviation="2.5"/>
<feComposite in2="hardAlpha" operator="out"/>
<feColorMatrix type="matrix" values="0 0 0 0 1 0 0 0 0 1 0 0 0 0 1 0 0 0 0.25 0"/>
<feBlend mode="normal" in2="effect1_dropShadow_498_835" result="effect2_dropShadow_498_835"/>
<feBlend mode="normal" in="SourceGraphic" in2="BackgroundImageFix" result="shape"/>
<feTurbulence type="fractalNoise" baseFrequency="2 2" stitchTiles="stitch" numOctaves="3" result="noise" seed="4225" />
<feComponentTransfer in="noise" result="coloredNoise1">
<feFuncR type="linear" slope="2" intercept="-0.5" />
<feFuncG type="linear" slope="2" intercept="-0.5" />
<feFuncB type="linear" slope="2" intercept="-0.5" />
<feFuncA type="discrete" tableValues="1 1 1 1 1 1 1 1 1 1 1 1 1 1 1 1 1 1 1 1 1 1 1 1 1 1 1 1 1 1 1 1 1 1 1 1 1 1 1 1 1 1 1 1 1 1 1 1 1 1 1 0 0 0 0 0 0 0 0 0 0 0 0 0 0 0 0 0 0 0 0 0 0 0 0 0 0 0 0 0 0 0 0 0 0 0 0 0 0 0 0 0 0 0 0 0 0 0 0 0 "/>
</feComponentTransfer>
<feComposite operator="in" in2="shape" in="coloredNoise1" result="noise1Clipped" />
<feComponentTransfer in="noise1Clipped" result="color1">
<feFuncA type="table" tableValues="0 0.15" />
</feComponentTransfer>
<feMerge result="effect3_noise_498_835">
<feMergeNode in="shape" />
<feMergeNode in="color1" />
</feMerge>
<feBlend mode="normal" in="effect3_noise_498_835" in2="effect2_dropShadow_498_835" result="effect3_noise_498_835"/>
</filter>
<clipPath id="paint4_diamond_498_835_clip_path"><path d="M18.7489 44.75C18.8098 44.75 18.8592 44.7994 18.8592 44.8603V46.0279L19.443 45.4441C19.4861 45.401 19.5559 45.401 19.599 45.4441C19.642 45.4871 19.642 45.557 19.599 45.6L18.8592 46.3398V48.2331L20.2153 46.877C20.2583 46.834 20.3282 46.834 20.3712 46.877C20.4143 46.9201 20.4143 46.9899 20.3712 47.033L19.0156 48.3886H21.2411L21.9798 47.65C22.0228 47.6069 22.0927 47.6069 22.1357 47.65C22.1788 47.693 22.1788 47.7629 22.1357 47.8059L21.553 48.3886H22.3897C22.4506 48.3886 22.5 48.438 22.5 48.4989C22.5 48.5598 22.4506 48.6092 22.3897 48.6092H21.5509L22.1357 49.1941C22.1788 49.2372 22.1788 49.307 22.1357 49.35C22.0927 49.3931 22.0228 49.3931 21.9798 49.35L21.2389 48.6092H19.0167L20.3727 49.9653C20.4158 50.0083 20.4158 50.0782 20.3727 50.1212C20.3297 50.1643 20.2599 50.1643 20.2168 50.1212L18.8592 48.7637V50.7705L19.599 51.5103C19.642 51.5533 19.642 51.6231 19.599 51.6662C19.5559 51.7093 19.4861 51.7093 19.443 51.6662L18.8592 51.0824V52.1397C18.8592 52.2006 18.8098 52.25 18.7489 52.25C18.688 52.25 18.6386 52.2006 18.6386 52.1397V51.0824L18.0548 51.6662C18.0118 51.7093 17.942 51.7093 17.8989 51.6662C17.8558 51.6231 17.8558 51.5533 17.8989 51.5103L18.6386 50.7705V48.7656L17.283 50.1212C17.2399 50.1643 17.1701 50.1643 17.127 50.1212C17.084 50.0782 17.084 50.0083 17.127 49.9653L18.4831 48.6092H16.8104L16.0696 49.35C16.0265 49.3931 15.9567 49.3931 15.9136 49.35C15.8705 49.307 15.8705 49.2372 15.9136 49.1941L16.4984 48.6092H15.1103C15.0494 48.6092 15 48.5598 15 48.4989C15 48.438 15.0494 48.3886 15.1103 48.3886H16.4963L15.9136 47.8059C15.8705 47.7629 15.8705 47.693 15.9136 47.65C15.9567 47.6069 16.0265 47.6069 16.0696 47.65L16.8082 48.3886H18.484L17.1285 47.0332C17.0855 46.9901 17.0855 46.9201 17.1285 46.877C17.1716 46.834 17.2414 46.834 17.2845 46.877L18.6386 48.2312V46.3398L17.8989 45.6C17.8558 45.557 17.8558 45.4872 17.8989 45.4441C17.942 45.401 18.0118 45.401 18.0548 45.4441L18.6386 46.0279V44.8603C18.6386 44.7994 18.688 44.75 18.7489 44.75Z"/></clipPath><filter id="filter4_ddn_498_835" x="32.5" y="39.75" width="17.5" height="17.5" filterUnits="userSpaceOnUse" color-interpolation-filters="sRGB">
<feFlood flood-opacity="0" result="BackgroundImageFix"/>
<feColorMatrix in="SourceAlpha" type="matrix" values="0 0 0 0 0 0 0 0 0 0 0 0 0 0 0 0 0 0 127 0" result="hardAlpha"/>
<feOffset/>
<feGaussianBlur stdDeviation="2"/>
<feComposite in2="hardAlpha" operator="out"/>
<feColorMatrix type="matrix" values="0 0 0 0 1 0 0 0 0 1 0 0 0 0 1 0 0 0 0.25 0"/>
<feBlend mode="normal" in2="BackgroundImageFix" result="effect1_dropShadow_498_835"/>
<feColorMatrix in="SourceAlpha" type="matrix" values="0 0 0 0 0 0 0 0 0 0 0 0 0 0 0 0 0 0 127 0" result="hardAlpha"/>
<feOffset/>
<feGaussianBlur stdDeviation="2.5"/>
<feComposite in2="hardAlpha" operator="out"/>
<feColorMatrix type="matrix" values="0 0 0 0 1 0 0 0 0 1 0 0 0 0 1 0 0 0 0.25 0"/>
<feBlend mode="normal" in2="effect1_dropShadow_498_835" result="effect2_dropShadow_498_835"/>
<feBlend mode="normal" in="SourceGraphic" in2="BackgroundImageFix" result="shape"/>
<feTurbulence type="fractalNoise" baseFrequency="2 2" stitchTiles="stitch" numOctaves="3" result="noise" seed="4225" />
<feComponentTransfer in="noise" result="coloredNoise1">
<feFuncR type="linear" slope="2" intercept="-0.5" />
<feFuncG type="linear" slope="2" intercept="-0.5" />
<feFuncB type="linear" slope="2" intercept="-0.5" />
<feFuncA type="discrete" tableValues="1 1 1 1 1 1 1 1 1 1 1 1 1 1 1 1 1 1 1 1 1 1 1 1 1 1 1 1 1 1 1 1 1 1 1 1 1 1 1 1 1 1 1 1 1 1 1 1 1 1 1 0 0 0 0 0 0 0 0 0 0 0 0 0 0 0 0 0 0 0 0 0 0 0 0 0 0 0 0 0 0 0 0 0 0 0 0 0 0 0 0 0 0 0 0 0 0 0 0 0 "/>
</feComponentTransfer>
<feComposite operator="in" in2="shape" in="coloredNoise1" result="noise1Clipped" />
<feComponentTransfer in="noise1Clipped" result="color1">
<feFuncA type="table" tableValues="0 0.15" />
</feComponentTransfer>
<feMerge result="effect3_noise_498_835">
<feMergeNode in="shape" />
<feMergeNode in="color1" />
</feMerge>
<feBlend mode="normal" in="effect3_noise_498_835" in2="effect2_dropShadow_498_835" result="effect3_noise_498_835"/>
</filter>
<clipPath id="paint5_diamond_498_835_clip_path"><path d="M41.2489 44.75C41.3098 44.75 41.3592 44.7994 41.3592 44.8603V46.0279L41.943 45.4441C41.9861 45.401 42.0559 45.401 42.099 45.4441C42.142 45.4871 42.142 45.557 42.099 45.6L41.3592 46.3398V48.2331L42.7153 46.877C42.7583 46.834 42.8282 46.834 42.8712 46.877C42.9143 46.9201 42.9143 46.9899 42.8712 47.033L41.5156 48.3886H43.7411L44.4798 47.65C44.5228 47.6069 44.5927 47.6069 44.6357 47.65C44.6788 47.693 44.6788 47.7629 44.6357 47.8059L44.053 48.3886H44.8897C44.9506 48.3886 45 48.438 45 48.4989C45 48.5598 44.9506 48.6092 44.8897 48.6092H44.0509L44.6357 49.1941C44.6788 49.2372 44.6788 49.307 44.6357 49.35C44.5927 49.3931 44.5228 49.3931 44.4798 49.35L43.7389 48.6092H41.5167L42.8727 49.9653C42.9158 50.0083 42.9158 50.0782 42.8727 50.1212C42.8297 50.1643 42.7599 50.1643 42.7168 50.1212L41.3592 48.7637V50.7705L42.099 51.5103C42.142 51.5533 42.142 51.6231 42.099 51.6662C42.0559 51.7093 41.9861 51.7093 41.943 51.6662L41.3592 51.0824V52.1397C41.3592 52.2006 41.3098 52.25 41.2489 52.25C41.188 52.25 41.1386 52.2006 41.1386 52.1397V51.0824L40.5548 51.6662C40.5118 51.7093 40.442 51.7093 40.3989 51.6662C40.3558 51.6231 40.3558 51.5533 40.3989 51.5103L41.1386 50.7705V48.7656L39.783 50.1212C39.7399 50.1643 39.6701 50.1643 39.627 50.1212C39.584 50.0782 39.584 50.0083 39.627 49.9653L40.9831 48.6092H39.3104L38.5696 49.35C38.5265 49.3931 38.4567 49.3931 38.4136 49.35C38.3705 49.307 38.3705 49.2372 38.4136 49.1941L38.9984 48.6092H37.6103C37.5494 48.6092 37.5 48.5598 37.5 48.4989C37.5 48.438 37.5494 48.3886 37.6103 48.3886H38.9963L38.4136 47.8059C38.3705 47.7629 38.3705 47.693 38.4136 47.65C38.4567 47.6069 38.5265 47.6069 38.5696 47.65L39.3082 48.3886H40.984L39.6285 47.0332C39.5855 46.9901 39.5855 46.9201 39.6285 46.877C39.6716 46.834 39.7414 46.834 39.7845 46.877L41.1386 48.2312V46.3398L40.3989 45.6C40.3558 45.557 40.3558 45.4872 40.3989 45.4441C40.442 45.401 40.5118 45.401 40.5548 45.4441L41.1386 46.0279V44.8603C41.1386 44.7994 41.188 44.75 41.2489 44.75Z"/></clipPath><filter id="filter5_ddn_498_835" x="19" y="35.75" width="17.5" height="17.5" filterUnits="userSpaceOnUse" color-interpolation-filters="sRGB">
<feFlood flood-opacity="0" result="BackgroundImageFix"/>
<feColorMatrix in="SourceAlpha" type="matrix" values="0 0 0 0 0 0 0 0 0 0 0 0 0 0 0 0 0 0 127 0" result="hardAlpha"/>
<feOffset/>
<feGaussianBlur stdDeviation="2"/>
<feComposite in2="hardAlpha" operator="out"/>
<feColorMatrix type="matrix" values="0 0 0 0 1 0 0 0 0 1 0 0 0 0 1 0 0 0 0.25 0"/>
<feBlend mode="normal" in2="BackgroundImageFix" result="effect1_dropShadow_498_835"/>
<feColorMatrix in="SourceAlpha" type="matrix" values="0 0 0 0 0 0 0 0 0 0 0 0 0 0 0 0 0 0 127 0" result="hardAlpha"/>
<feOffset/>
<feGaussianBlur stdDeviation="2.5"/>
<feComposite in2="hardAlpha" operator="out"/>
<feColorMatrix type="matrix" values="0 0 0 0 1 0 0 0 0 1 0 0 0 0 1 0 0 0 0.25 0"/>
<feBlend mode="normal" in2="effect1_dropShadow_498_835" result="effect2_dropShadow_498_835"/>
<feBlend mode="normal" in="SourceGraphic" in2="BackgroundImageFix" result="shape"/>
<feTurbulence type="fractalNoise" baseFrequency="2 2" stitchTiles="stitch" numOctaves="3" result="noise" seed="4225" />
<feComponentTransfer in="noise" result="coloredNoise1">
<feFuncR type="linear" slope="2" intercept="-0.5" />
<feFuncG type="linear" slope="2" intercept="-0.5" />
<feFuncB type="linear" slope="2" intercept="-0.5" />
<feFuncA type="discrete" tableValues="1 1 1 1 1 1 1 1 1 1 1 1 1 1 1 1 1 1 1 1 1 1 1 1 1 1 1 1 1 1 1 1 1 1 1 1 1 1 1 1 1 1 1 1 1 1 1 1 1 1 1 0 0 0 0 0 0 0 0 0 0 0 0 0 0 0 0 0 0 0 0 0 0 0 0 0 0 0 0 0 0 0 0 0 0 0 0 0 0 0 0 0 0 0 0 0 0 0 0 0 "/>
</feComponentTransfer>
<feComposite operator="in" in2="shape" in="coloredNoise1" result="noise1Clipped" />
<feComponentTransfer in="noise1Clipped" result="color1">
<feFuncA type="table" tableValues="0 0.15" />
</feComponentTransfer>
<feMerge result="effect3_noise_498_835">
<feMergeNode in="shape" />
<feMergeNode in="color1" />
</feMerge>
<feBlend mode="normal" in="effect3_noise_498_835" in2="effect2_dropShadow_498_835" result="effect3_noise_498_835"/>
</filter>
<clipPath id="paint6_diamond_498_835_clip_path"><path d="M27.7489 40.75C27.8098 40.75 27.8592 40.7994 27.8592 40.8603V42.0279L28.443 41.4441C28.4861 41.401 28.5559 41.401 28.599 41.4441C28.642 41.4871 28.642 41.557 28.599 41.6L27.8592 42.3398V44.2331L29.2153 42.877C29.2583 42.834 29.3282 42.834 29.3712 42.877C29.4143 42.9201 29.4143 42.9899 29.3712 43.033L28.0156 44.3886H30.2411L30.9798 43.65C31.0228 43.6069 31.0927 43.6069 31.1357 43.65C31.1788 43.693 31.1788 43.7629 31.1357 43.8059L30.553 44.3886H31.3897C31.4506 44.3886 31.5 44.438 31.5 44.4989C31.5 44.5598 31.4506 44.6092 31.3897 44.6092H30.5509L31.1357 45.1941C31.1788 45.2372 31.1788 45.307 31.1357 45.35C31.0927 45.3931 31.0228 45.3931 30.9798 45.35L30.2389 44.6092H28.0167L29.3727 45.9653C29.4158 46.0083 29.4158 46.0782 29.3727 46.1212C29.3297 46.1643 29.2599 46.1643 29.2168 46.1212L27.8592 44.7637V46.7705L28.599 47.5103C28.642 47.5533 28.642 47.6231 28.599 47.6662C28.5559 47.7093 28.4861 47.7093 28.443 47.6662L27.8592 47.0824V48.1397C27.8592 48.2006 27.8098 48.25 27.7489 48.25C27.688 48.25 27.6386 48.2006 27.6386 48.1397V47.0824L27.0548 47.6662C27.0118 47.7093 26.942 47.7093 26.8989 47.6662C26.8558 47.6231 26.8558 47.5533 26.8989 47.5103L27.6386 46.7705V44.7656L26.283 46.1212C26.2399 46.1643 26.1701 46.1643 26.127 46.1212C26.084 46.0782 26.084 46.0083 26.127 45.9653L27.4831 44.6092H25.8104L25.0696 45.35C25.0265 45.3931 24.9567 45.3931 24.9136 45.35C24.8705 45.307 24.8705 45.2372 24.9136 45.1941L25.4984 44.6092H24.1103C24.0494 44.6092 24 44.5598 24 44.4989C24 44.438 24.0494 44.3886 24.1103 44.3886H25.4963L24.9136 43.8059C24.8705 43.7629 24.8705 43.693 24.9136 43.65C24.9567 43.6069 25.0265 43.6069 25.0696 43.65L25.8082 44.3886H27.484L26.1285 43.0332C26.0855 42.9901 26.0855 42.9201 26.1285 42.877C26.1716 42.834 26.2414 42.834 26.2845 42.877L27.6386 44.2312V42.3398L26.8989 41.6C26.8558 41.557 26.8558 41.4872 26.8989 41.4441C26.942 41.401 27.0118 41.401 27.0548 41.4441L27.6386 42.0279V40.8603C27.6386 40.7994 27.688 40.75 27.7489 40.75Z"/></clipPath><filter id="filter6_ddn_498_835" x="40" y="35.75" width="17.5" height="17.5" filterUnits="userSpaceOnUse" color-interpolation-filters="sRGB">
<feFlood flood-opacity="0" result="BackgroundImageFix"/>
<feColorMatrix in="SourceAlpha" type="matrix" values="0 0 0 0 0 0 0 0 0 0 0 0 0 0 0 0 0 0 127 0" result="hardAlpha"/>
<feOffset/>
<feGaussianBlur stdDeviation="2"/>
<feComposite in2="hardAlpha" operator="out"/>
<feColorMatrix type="matrix" values="0 0 0 0 1 0 0 0 0 1 0 0 0 0 1 0 0 0 0.25 0"/>
<feBlend mode="normal" in2="BackgroundImageFix" result="effect1_dropShadow_498_835"/>
<feColorMatrix in="SourceAlpha" type="matrix" values="0 0 0 0 0 0 0 0 0 0 0 0 0 0 0 0 0 0 127 0" result="hardAlpha"/>
<feOffset/>
<feGaussianBlur stdDeviation="2.5"/>
<feComposite in2="hardAlpha" operator="out"/>
<feColorMatrix type="matrix" values="0 0 0 0 1 0 0 0 0 1 0 0 0 0 1 0 0 0 0.25 0"/>
<feBlend mode="normal" in2="effect1_dropShadow_498_835" result="effect2_dropShadow_498_835"/>
<feBlend mode="normal" in="SourceGraphic" in2="BackgroundImageFix" result="shape"/>
<feTurbulence type="fractalNoise" baseFrequency="2 2" stitchTiles="stitch" numOctaves="3" result="noise" seed="4225" />
<feComponentTransfer in="noise" result="coloredNoise1">
<feFuncR type="linear" slope="2" intercept="-0.5" />
<feFuncG type="linear" slope="2" intercept="-0.5" />
<feFuncB type="linear" slope="2" intercept="-0.5" />
<feFuncA type="discrete" tableValues="1 1 1 1 1 1 1 1 1 1 1 1 1 1 1 1 1 1 1 1 1 1 1 1 1 1 1 1 1 1 1 1 1 1 1 1 1 1 1 1 1 1 1 1 1 1 1 1 1 1 1 0 0 0 0 0 0 0 0 0 0 0 0 0 0 0 0 0 0 0 0 0 0 0 0 0 0 0 0 0 0 0 0 0 0 0 0 0 0 0 0 0 0 0 0 0 0 0 0 0 "/>
</feComponentTransfer>
<feComposite operator="in" in2="shape" in="coloredNoise1" result="noise1Clipped" />
<feComponentTransfer in="noise1Clipped" result="color1">
<feFuncA type="table" tableValues="0 0.15" />
</feComponentTransfer>
<feMerge result="effect3_noise_498_835">
<feMergeNode in="shape" />
<feMergeNode in="color1" />
</feMerge>
<feBlend mode="normal" in="effect3_noise_498_835" in2="effect2_dropShadow_498_835" result="effect3_noise_498_835"/>
</filter>
<clipPath id="paint7_diamond_498_835_clip_path"><path d="M48.7489 40.75C48.8098 40.75 48.8592 40.7994 48.8592 40.8603V42.0279L49.443 41.4441C49.4861 41.401 49.5559 41.401 49.599 41.4441C49.642 41.4871 49.642 41.557 49.599 41.6L48.8592 42.3398V44.2331L50.2153 42.877C50.2583 42.834 50.3282 42.834 50.3712 42.877C50.4143 42.9201 50.4143 42.9899 50.3712 43.033L49.0156 44.3886H51.2411L51.9798 43.65C52.0228 43.6069 52.0927 43.6069 52.1357 43.65C52.1788 43.693 52.1788 43.7629 52.1357 43.8059L51.553 44.3886H52.3897C52.4506 44.3886 52.5 44.438 52.5 44.4989C52.5 44.5598 52.4506 44.6092 52.3897 44.6092H51.5509L52.1357 45.1941C52.1788 45.2372 52.1788 45.307 52.1357 45.35C52.0927 45.3931 52.0228 45.3931 51.9798 45.35L51.2389 44.6092H49.0167L50.3727 45.9653C50.4158 46.0083 50.4158 46.0782 50.3727 46.1212C50.3297 46.1643 50.2599 46.1643 50.2168 46.1212L48.8592 44.7637V46.7705L49.599 47.5103C49.642 47.5533 49.642 47.6231 49.599 47.6662C49.5559 47.7093 49.4861 47.7093 49.443 47.6662L48.8592 47.0824V48.1397C48.8592 48.2006 48.8098 48.25 48.7489 48.25C48.688 48.25 48.6386 48.2006 48.6386 48.1397V47.0824L48.0548 47.6662C48.0118 47.7093 47.942 47.7093 47.8989 47.6662C47.8558 47.6231 47.8558 47.5533 47.8989 47.5103L48.6386 46.7705V44.7656L47.283 46.1212C47.2399 46.1643 47.1701 46.1643 47.127 46.1212C47.084 46.0782 47.084 46.0083 47.127 45.9653L48.4831 44.6092H46.8104L46.0696 45.35C46.0265 45.3931 45.9567 45.3931 45.9136 45.35C45.8705 45.307 45.8705 45.2372 45.9136 45.1941L46.4984 44.6092H45.1103C45.0494 44.6092 45 44.5598 45 44.4989C45 44.438 45.0494 44.3886 45.1103 44.3886H46.4963L45.9136 43.8059C45.8705 43.7629 45.8705 43.693 45.9136 43.65C45.9567 43.6069 46.0265 43.6069 46.0696 43.65L46.8082 44.3886H48.484L47.1285 43.0332C47.0855 42.9901 47.0855 42.9201 47.1285 42.877C47.1716 42.834 47.2414 42.834 47.2845 42.877L48.6386 44.2312V42.3398L47.8989 41.6C47.8558 41.557 47.8558 41.4872 47.8989 41.4441C47.942 41.401 48.0118 41.401 48.0548 41.4441L48.6386 42.0279V40.8603C48.6386 40.7994 48.688 40.75 48.7489 40.75Z"/></clipPath><linearGradient id="paint0_linear_498_835" x1="30.7443" y1="4.5" x2="30.7443" y2="35.2663" gradientUnits="userSpaceOnUse">
<stop stop-color="white"/>
<stop offset="1" stop-color="#C1D6E5"/>
</linearGradient>
<linearGradient id="paint1_linear_498_835" x1="30.7461" y1="4.5" x2="33.0591" y2="35.7625" gradientUnits="userSpaceOnUse">
<stop offset="0.547017" stop-color="white" stop-opacity="0"/>
<stop offset="1" stop-color="#C1D6E5"/>
</linearGradient>
<linearGradient id="paint2_diamond_498_835" x1="0" y1="0" x2="500" y2="500" gradientUnits="userSpaceOnUse">
<stop stop-color="#1AA0FF"/>
<stop offset="0.514423" stop-color="#CDE3FF"/>
<stop offset="1" stop-color="white"/>
</linearGradient>
<linearGradient id="paint3_diamond_498_835" x1="0" y1="0" x2="500" y2="500" gradientUnits="userSpaceOnUse">
<stop stop-color="#1AA0FF"/>
<stop offset="0.514423" stop-color="#CDE3FF"/>
<stop offset="1" stop-color="white"/>
</linearGradient>
<linearGradient id="paint4_diamond_498_835" x1="0" y1="0" x2="500" y2="500" gradientUnits="userSpaceOnUse">
<stop stop-color="#1AA0FF"/>
<stop offset="0.514423" stop-color="#CDE3FF"/>
<stop offset="1" stop-color="white"/>
</linearGradient>
<linearGradient id="paint5_diamond_498_835" x1="0" y1="0" x2="500" y2="500" gradientUnits="userSpaceOnUse">
<stop stop-color="#1AA0FF"/>
<stop offset="0.514423" stop-color="#CDE3FF"/>
<stop offset="1" stop-color="white"/>
</linearGradient>
<linearGradient id="paint6_diamond_498_835" x1="0" y1="0" x2="500" y2="500" gradientUnits="userSpaceOnUse">
<stop stop-color="#1AA0FF"/>
<stop offset="0.514423" stop-color="#CDE3FF"/>
<stop offset="1" stop-color="white"/>
</linearGradient>
<linearGradient id="paint7_diamond_498_835" x1="0" y1="0" x2="500" y2="500" gradientUnits="userSpaceOnUse">
<stop stop-color="#1AA0FF"/>
<stop offset="0.514423" stop-color="#CDE3FF"/>
<stop offset="1" stop-color="white"/>
</linearGradient>
</defs>
</svg>
