<svg width="60" height="60" viewBox="0 0 60 60" fill="none" xmlns="http://www.w3.org/2000/svg">
<path d="M48.0988 35.081C34.5164 35.081 16.1215 36.1845 10.3036 35.081C4.48563 33.9775 1.83875 27.3227 3.7852 22.4308C5.40239 18.3664 10.7401 15.702 15.028 16.7739C15.028 8.50619 23.886 7.91564 27.4295 10.8685C32.7442 -0.352052 48.0988 5.55344 48.0988 14.4117C60.5001 14.4117 61.6812 35.081 48.0988 35.081Z" fill="url(#paint0_linear_498_840)"/>
<g filter="url(#filter0_n_498_840)">
<path d="M48.1507 35.5714C34.5281 35.5714 16.0789 36.1845 10.2437 35.081C4.40852 33.9775 1.75381 27.3226 3.70602 22.4308C5.32799 18.3664 10.6815 15.702 14.9821 16.7739C14.9821 8.50619 23.8662 7.91564 27.4203 10.8685C32.7507 -0.352051 48.1507 5.55344 48.1507 14.4117C60.5887 14.4117 61.7733 35.5714 48.1507 35.5714Z" fill="url(#paint1_linear_498_840)"/>
</g>
<path d="M12 39C9.73613 41.5 6.56671 46.5 12 46.5C17.4333 46.5 14.2639 41.5 12 39Z" fill="url(#paint2_linear_498_840)"/>
<path d="M48 39C45.7361 41.5 42.5667 46.5 48 46.5C53.4333 46.5 50.2639 41.5 48 39Z" fill="url(#paint3_linear_498_840)"/>
<path d="M39 48C36.7361 50.5 33.5667 55.5 39 55.5C44.4333 55.5 41.2639 50.5 39 48Z" fill="url(#paint4_linear_498_840)"/>
<path d="M21 48C18.7361 50.5 15.5667 55.5 21 55.5C26.4333 55.5 23.2639 50.5 21 48Z" fill="url(#paint5_linear_498_840)"/>
<path d="M30 39C27.7361 41.5 24.5667 46.5 30 46.5C35.4333 46.5 32.2639 41.5 30 39Z" fill="url(#paint6_linear_498_840)"/>
<path d="M21 41C19.8681 42.5 18.2834 45.5 21 45.5C23.7166 45.5 22.1319 42.5 21 41Z" fill="url(#paint7_linear_498_840)"/>
<path d="M30 50C28.8681 51.5 27.2834 54.5 30 54.5C32.7166 54.5 31.1319 51.5 30 50Z" fill="url(#paint8_linear_498_840)"/>
<path d="M48 50C46.8681 51.5 45.2834 54.5 48 54.5C50.7166 54.5 49.1319 51.5 48 50Z" fill="url(#paint9_linear_498_840)"/>
<path d="M12 50C10.8681 51.5 9.28336 54.5 12 54.5C14.7166 54.5 13.1319 51.5 12 50Z" fill="url(#paint10_linear_498_840)"/>
<path d="M39 41C37.8681 42.5 36.2834 45.5 39 45.5C41.7166 45.5 40.1319 42.5 39 41Z" fill="url(#paint11_linear_498_840)"/>
<defs>
<filter id="filter0_n_498_840" x="3.07129" y="4.71429" width="54.8574" height="31.0269" filterUnits="userSpaceOnUse" color-interpolation-filters="sRGB">
<feFlood flood-opacity="0" result="BackgroundImageFix"/>
<feBlend mode="normal" in="SourceGraphic" in2="BackgroundImageFix" result="shape"/>
<feTurbulence type="fractalNoise" baseFrequency="2 2" stitchTiles="stitch" numOctaves="3" result="noise" seed="7883" />
<feComponentTransfer in="noise" result="coloredNoise1">
<feFuncR type="linear" slope="2" intercept="-0.5" />
<feFuncG type="linear" slope="2" intercept="-0.5" />
<feFuncB type="linear" slope="2" intercept="-0.5" />
<feFuncA type="discrete" tableValues="1 1 1 1 1 1 1 1 1 1 1 1 1 1 1 1 1 1 1 1 1 1 1 1 1 1 1 1 1 1 1 1 1 1 1 1 1 1 1 1 1 1 1 1 1 1 1 1 1 1 1 0 0 0 0 0 0 0 0 0 0 0 0 0 0 0 0 0 0 0 0 0 0 0 0 0 0 0 0 0 0 0 0 0 0 0 0 0 0 0 0 0 0 0 0 0 0 0 0 0 "/>
</feComponentTransfer>
<feComposite operator="in" in2="shape" in="coloredNoise1" result="noise1Clipped" />
<feComponentTransfer in="noise1Clipped" result="color1">
<feFuncA type="table" tableValues="0 0.13" />
</feComponentTransfer>
<feMerge result="effect1_noise_498_840">
<feMergeNode in="shape" />
<feMergeNode in="color1" />
</feMerge>
</filter>
<linearGradient id="paint0_linear_498_840" x1="31.1113" y1="4.71429" x2="31.1113" y2="35.081" gradientUnits="userSpaceOnUse">
<stop stop-color="white"/>
<stop offset="1" stop-color="#C1D6E5"/>
</linearGradient>
<linearGradient id="paint1_linear_498_840" x1="31.113" y1="4.71429" x2="33.3959" y2="35.5708" gradientUnits="userSpaceOnUse">
<stop offset="0.547017" stop-color="white" stop-opacity="0"/>
<stop offset="1" stop-color="#C1D6E5"/>
</linearGradient>
<linearGradient id="paint2_linear_498_840" x1="12.0671" y1="39" x2="12.0671" y2="46.3808" gradientUnits="userSpaceOnUse">
<stop stop-color="white"/>
<stop offset="1" stop-color="#C1D6E5"/>
</linearGradient>
<linearGradient id="paint3_linear_498_840" x1="48.0671" y1="39" x2="48.0671" y2="46.3808" gradientUnits="userSpaceOnUse">
<stop stop-color="white"/>
<stop offset="1" stop-color="#C1D6E5"/>
</linearGradient>
<linearGradient id="paint4_linear_498_840" x1="39.0671" y1="48" x2="39.0671" y2="55.3808" gradientUnits="userSpaceOnUse">
<stop stop-color="white"/>
<stop offset="1" stop-color="#C1D6E5"/>
</linearGradient>
<linearGradient id="paint5_linear_498_840" x1="21.0671" y1="48" x2="21.0671" y2="55.3808" gradientUnits="userSpaceOnUse">
<stop stop-color="white"/>
<stop offset="1" stop-color="#C1D6E5"/>
</linearGradient>
<linearGradient id="paint6_linear_498_840" x1="30.0671" y1="39" x2="30.0671" y2="46.3808" gradientUnits="userSpaceOnUse">
<stop stop-color="white"/>
<stop offset="1" stop-color="#C1D6E5"/>
</linearGradient>
<linearGradient id="paint7_linear_498_840" x1="21.0335" y1="41" x2="21.0335" y2="45.4285" gradientUnits="userSpaceOnUse">
<stop stop-color="white"/>
<stop offset="1" stop-color="#C1D6E5"/>
</linearGradient>
<linearGradient id="paint8_linear_498_840" x1="30.0335" y1="50" x2="30.0335" y2="54.4285" gradientUnits="userSpaceOnUse">
<stop stop-color="white"/>
<stop offset="1" stop-color="#C1D6E5"/>
</linearGradient>
<linearGradient id="paint9_linear_498_840" x1="48.0335" y1="50" x2="48.0335" y2="54.4285" gradientUnits="userSpaceOnUse">
<stop stop-color="white"/>
<stop offset="1" stop-color="#C1D6E5"/>
</linearGradient>
<linearGradient id="paint10_linear_498_840" x1="12.0335" y1="50" x2="12.0335" y2="54.4285" gradientUnits="userSpaceOnUse">
<stop stop-color="white"/>
<stop offset="1" stop-color="#C1D6E5"/>
</linearGradient>
<linearGradient id="paint11_linear_498_840" x1="39.0335" y1="41" x2="39.0335" y2="45.4285" gradientUnits="userSpaceOnUse">
<stop stop-color="white"/>
<stop offset="1" stop-color="#C1D6E5"/>
</linearGradient>
</defs>
</svg>
