<svg width="60" height="60" viewBox="0 0 60 60" fill="none" xmlns="http://www.w3.org/2000/svg">
<path d="M47.9553 35.2663C34.1942 35.2663 15.5573 36.3843 9.66282 35.2663C3.76831 34.1483 1.0866 27.4058 3.05866 22.4496C4.69713 18.3318 10.105 15.6322 14.4494 16.7183C14.4494 8.34179 23.4239 7.74347 27.0141 10.7351C32.3987 -0.633008 47.9553 5.35019 47.9553 14.325C60.5198 14.325 61.7164 35.2663 47.9553 35.2663Z" fill="url(#paint0_linear_498_839)"/>
<g filter="url(#filter0_n_498_839)">
<path d="M48.008 35.7632C34.2062 35.7632 15.5142 36.3843 9.60222 35.2663C3.69028 34.1483 1.00064 27.4058 2.97853 22.4496C4.62185 18.3318 10.0458 15.6322 14.4029 16.7183C14.4029 8.34179 23.404 7.74347 27.0048 10.7351C32.4054 -0.633008 48.008 5.35019 48.008 14.325C60.6096 14.325 61.8098 35.7632 48.008 35.7632Z" fill="url(#paint1_linear_498_839)"/>
</g>
<path d="M12.9705 39.1277C10.1368 40.9566 5.78123 44.9659 11.0294 46.3722C16.2775 47.7784 14.5102 42.1285 12.9705 39.1277Z" fill="url(#paint2_linear_498_839)"/>
<path d="M47.471 39.1277C44.6372 40.9566 40.2817 44.9659 45.5299 46.3722C50.778 47.7784 49.0107 42.1285 47.471 39.1277Z" fill="url(#paint3_linear_498_839)"/>
<path d="M49.244 49.1507C46.4102 50.9796 42.0547 54.9889 47.3028 56.3952C52.551 57.8014 50.7837 52.1515 49.244 49.1507Z" fill="url(#paint4_linear_498_839)"/>
<path d="M40.2435 43.1508C37.4097 44.9796 33.0542 48.989 38.3023 50.3952C43.5505 51.8014 41.7832 46.1515 40.2435 43.1508Z" fill="url(#paint5_linear_498_839)"/>
<path d="M32.744 47.6507C29.9102 49.4796 25.5547 53.4889 30.8028 54.8952C36.051 56.3014 34.2837 50.6515 32.744 47.6507Z" fill="url(#paint6_linear_498_839)"/>
<path d="M14.744 47.6507C11.9102 49.4796 7.55467 53.4889 12.8028 54.8952C18.051 56.3014 16.2837 50.6515 14.744 47.6507Z" fill="url(#paint7_linear_498_839)"/>
<path d="M23.2435 43.1507C20.4097 44.9796 16.0542 48.9889 21.3023 50.3952C26.5505 51.8014 24.7832 46.1515 23.2435 43.1507Z" fill="url(#paint8_linear_498_839)"/>
<path d="M30.471 39.1277C27.6372 40.9566 23.2817 44.9659 28.5299 46.3722C33.778 47.7784 32.0107 42.1285 30.471 39.1277Z" fill="url(#paint9_linear_498_839)"/>
<path d="M41.6134 52.8882C40.1318 54.0442 37.8247 56.5318 40.4488 57.2349C43.0728 57.938 42.3186 54.6301 41.6134 52.8882Z" fill="url(#paint10_linear_498_839)"/>
<path d="M22.1134 52.8882C20.6318 54.0442 18.3247 56.5318 20.9488 57.2349C23.5728 57.938 22.8186 54.6301 22.1134 52.8882Z" fill="url(#paint11_linear_498_839)"/>
<path d="M19.1134 39.3882C17.6318 40.5442 15.3247 43.0318 17.9488 43.7349C20.5728 44.438 19.8186 41.1301 19.1134 39.3882Z" fill="url(#paint12_linear_498_839)"/>
<path d="M37.1134 39.3882C35.6318 40.5442 33.3247 43.0318 35.9488 43.7349C38.5728 44.438 37.8186 41.1301 37.1134 39.3882Z" fill="url(#paint13_linear_498_839)"/>
<defs>
<filter id="filter0_n_498_839" x="2.33545" y="4.5" width="55.5791" height="31.4352" filterUnits="userSpaceOnUse" color-interpolation-filters="sRGB">
<feFlood flood-opacity="0" result="BackgroundImageFix"/>
<feBlend mode="normal" in="SourceGraphic" in2="BackgroundImageFix" result="shape"/>
<feTurbulence type="fractalNoise" baseFrequency="2 2" stitchTiles="stitch" numOctaves="3" result="noise" seed="7883" />
<feComponentTransfer in="noise" result="coloredNoise1">
<feFuncR type="linear" slope="2" intercept="-0.5" />
<feFuncG type="linear" slope="2" intercept="-0.5" />
<feFuncB type="linear" slope="2" intercept="-0.5" />
<feFuncA type="discrete" tableValues="1 1 1 1 1 1 1 1 1 1 1 1 1 1 1 1 1 1 1 1 1 1 1 1 1 1 1 1 1 1 1 1 1 1 1 1 1 1 1 1 1 1 1 1 1 1 1 1 1 1 1 0 0 0 0 0 0 0 0 0 0 0 0 0 0 0 0 0 0 0 0 0 0 0 0 0 0 0 0 0 0 0 0 0 0 0 0 0 0 0 0 0 0 0 0 0 0 0 0 0 "/>
</feComponentTransfer>
<feComposite operator="in" in2="shape" in="coloredNoise1" result="noise1Clipped" />
<feComponentTransfer in="noise1Clipped" result="color1">
<feFuncA type="table" tableValues="0 0.13" />
</feComponentTransfer>
<feMerge result="effect1_noise_498_839">
<feMergeNode in="shape" />
<feMergeNode in="color1" />
</feMerge>
</filter>
<linearGradient id="paint0_linear_498_839" x1="30.7443" y1="4.5" x2="30.7443" y2="35.2663" gradientUnits="userSpaceOnUse">
<stop stop-color="white"/>
<stop offset="1" stop-color="#C1D6E5"/>
</linearGradient>
<linearGradient id="paint1_linear_498_839" x1="30.7461" y1="4.5" x2="33.0591" y2="35.7625" gradientUnits="userSpaceOnUse">
<stop offset="0.547017" stop-color="white" stop-opacity="0"/>
<stop offset="1" stop-color="#C1D6E5"/>
</linearGradient>
<linearGradient id="paint2_linear_498_839" x1="13.0353" y1="39.1451" x2="11.125" y2="46.2744" gradientUnits="userSpaceOnUse">
<stop stop-color="white"/>
<stop offset="1" stop-color="#C1D6E5"/>
</linearGradient>
<linearGradient id="paint3_linear_498_839" x1="47.5358" y1="39.1451" x2="45.6255" y2="46.2744" gradientUnits="userSpaceOnUse">
<stop stop-color="white"/>
<stop offset="1" stop-color="#C1D6E5"/>
</linearGradient>
<linearGradient id="paint4_linear_498_839" x1="49.3087" y1="49.1681" x2="47.3984" y2="56.2974" gradientUnits="userSpaceOnUse">
<stop stop-color="white"/>
<stop offset="1" stop-color="#C1D6E5"/>
</linearGradient>
<linearGradient id="paint5_linear_498_839" x1="40.3083" y1="43.1681" x2="38.398" y2="50.2974" gradientUnits="userSpaceOnUse">
<stop stop-color="white"/>
<stop offset="1" stop-color="#C1D6E5"/>
</linearGradient>
<linearGradient id="paint6_linear_498_839" x1="32.8087" y1="47.6681" x2="30.8984" y2="54.7974" gradientUnits="userSpaceOnUse">
<stop stop-color="white"/>
<stop offset="1" stop-color="#C1D6E5"/>
</linearGradient>
<linearGradient id="paint7_linear_498_839" x1="14.8087" y1="47.6681" x2="12.8984" y2="54.7974" gradientUnits="userSpaceOnUse">
<stop stop-color="white"/>
<stop offset="1" stop-color="#C1D6E5"/>
</linearGradient>
<linearGradient id="paint8_linear_498_839" x1="23.3083" y1="43.1681" x2="21.398" y2="50.2974" gradientUnits="userSpaceOnUse">
<stop stop-color="white"/>
<stop offset="1" stop-color="#C1D6E5"/>
</linearGradient>
<linearGradient id="paint9_linear_498_839" x1="30.5358" y1="39.1451" x2="28.6255" y2="46.2744" gradientUnits="userSpaceOnUse">
<stop stop-color="white"/>
<stop offset="1" stop-color="#C1D6E5"/>
</linearGradient>
<linearGradient id="paint10_linear_498_839" x1="41.6458" y1="52.8969" x2="40.4997" y2="57.1745" gradientUnits="userSpaceOnUse">
<stop stop-color="white"/>
<stop offset="1" stop-color="#C1D6E5"/>
</linearGradient>
<linearGradient id="paint11_linear_498_839" x1="22.1458" y1="52.8969" x2="20.9997" y2="57.1745" gradientUnits="userSpaceOnUse">
<stop stop-color="white"/>
<stop offset="1" stop-color="#C1D6E5"/>
</linearGradient>
<linearGradient id="paint12_linear_498_839" x1="19.1458" y1="39.3969" x2="17.9997" y2="43.6745" gradientUnits="userSpaceOnUse">
<stop stop-color="white"/>
<stop offset="1" stop-color="#C1D6E5"/>
</linearGradient>
<linearGradient id="paint13_linear_498_839" x1="37.1458" y1="39.3969" x2="35.9997" y2="43.6745" gradientUnits="userSpaceOnUse">
<stop stop-color="white"/>
<stop offset="1" stop-color="#C1D6E5"/>
</linearGradient>
</defs>
</svg>
