<svg width="60" height="60" viewBox="0 0 60 60" fill="none" xmlns="http://www.w3.org/2000/svg">
<g clip-path="url(#clip0_498_845)">
<g filter="url(#filter0_ddn_498_845)">
<g clip-path="url(#paint0_diamond_498_845_clip_path)" data-figma-skip-parse="true"><g transform="matrix(0 0.0250947 -0.0249294 0 30.57 28.5947)"><rect x="0" y="0" width="1112" height="1125.98" fill="url(#paint0_diamond_498_845)" opacity="1" shape-rendering="crispEdges"/><rect x="0" y="0" width="1112" height="1125.98" transform="scale(1 -1)" fill="url(#paint0_diamond_498_845)" opacity="1" shape-rendering="crispEdges"/><rect x="0" y="0" width="1112" height="1125.98" transform="scale(-1 1)" fill="url(#paint0_diamond_498_845)" opacity="1" shape-rendering="crispEdges"/><rect x="0" y="0" width="1112" height="1125.98" transform="scale(-1)" fill="url(#paint0_diamond_498_845)" opacity="1" shape-rendering="crispEdges"/></g></g><path d="M29.9927 3.5C30.4069 3.5 30.7427 3.83579 30.7427 4.25V12.1895L34.7124 8.21973C35.0053 7.92689 35.4801 7.92685 35.7729 8.21973C36.0658 8.51261 36.0658 8.98739 35.7729 9.28027L30.7427 14.3105V27.1851L39.9639 17.9639C40.2567 17.6713 40.7316 17.6713 41.0244 17.9639C41.3172 18.2567 41.317 18.7315 41.0244 19.0244L31.8062 28.2427H46.9395L51.9624 23.2197C52.2553 22.9268 52.7301 22.9269 53.0229 23.2197C53.3158 23.5126 53.3158 23.9874 53.0229 24.2803L49.0605 28.2427H54.75C55.1642 28.2427 55.5 28.5785 55.5 28.9927C55.4999 29.4068 55.1642 29.7427 54.75 29.7427H49.0459L53.0229 33.7197C53.3158 34.0126 53.3158 34.4874 53.0229 34.7803C52.7301 35.0731 52.2553 35.0731 51.9624 34.7803L46.9248 29.7427H31.8135L41.0347 38.9639C41.3275 39.2567 41.3273 39.7315 41.0347 40.0244C40.7418 40.3173 40.267 40.3173 39.9741 40.0244L30.7427 30.793V44.4395L35.7729 49.4697C36.0658 49.7626 36.0656 50.2374 35.7729 50.5303C35.4801 50.8232 35.0053 50.8232 34.7124 50.5303L30.7427 46.5606V53.75C30.7427 54.1642 30.4069 54.5 29.9927 54.5C29.5785 54.5 29.2427 54.1642 29.2427 53.75V46.5606L25.2729 50.5303C24.9801 50.8232 24.5053 50.8232 24.2124 50.5303C23.9196 50.2374 23.9196 49.7626 24.2124 49.4697L29.2427 44.4395V30.8062L20.0244 40.0244C19.7315 40.3173 19.2568 40.3173 18.9639 40.0244C18.6712 39.7315 18.6711 39.2567 18.9639 38.9639L28.1851 29.7427H16.8105L11.7729 34.7803C11.4801 35.0731 11.0053 35.0731 10.7124 34.7803C10.4195 34.4874 10.4195 34.0126 10.7124 33.7197L14.6895 29.7427H5.25C4.83585 29.7427 4.5001 29.4068 4.5 28.9927C4.5 28.5785 4.83579 28.2427 5.25 28.2427H14.6748L10.7124 24.2803C10.4195 23.9874 10.4195 23.5126 10.7124 23.2197C11.0053 22.9269 11.4801 22.9268 11.7729 23.2197L16.7959 28.2427H28.1909L18.9741 19.0259C18.6812 18.733 18.6812 18.2568 18.9741 17.9639C19.2669 17.6714 19.7418 17.6715 20.0347 17.9639L29.2427 27.1719V14.3105L24.2124 9.28027C23.9195 8.98739 23.9195 8.51262 24.2124 8.21973C24.5053 7.92689 24.9801 7.92685 25.2729 8.21973L29.2427 12.1895V4.25C29.2427 3.83579 29.5785 3.5 29.9927 3.5Z" data-figma-gradient-fill="{&#34;type&#34;:&#34;GRADIENT_DIAMOND&#34;,&#34;stops&#34;:[{&#34;color&#34;:{&#34;r&#34;:0.10218223929405212,&#34;g&#34;:0.62590914964675903,&#34;b&#34;:1.0,&#34;a&#34;:1.0},&#34;position&#34;:0.0},{&#34;color&#34;:{&#34;r&#34;:0.80551379919052124,&#34;g&#34;:0.89035767316818237,&#34;b&#34;:1.0,&#34;a&#34;:1.0},&#34;position&#34;:0.51442307233810425},{&#34;color&#34;:{&#34;r&#34;:1.0,&#34;g&#34;:1.0,&#34;b&#34;:1.0,&#34;a&#34;:1.0},&#34;position&#34;:1.0}],&#34;stopsVar&#34;:[{&#34;color&#34;:{&#34;r&#34;:0.10218223929405212,&#34;g&#34;:0.62590914964675903,&#34;b&#34;:1.0,&#34;a&#34;:1.0},&#34;position&#34;:0.0},{&#34;color&#34;:{&#34;r&#34;:0.80551379919052124,&#34;g&#34;:0.89035767316818237,&#34;b&#34;:1.0,&#34;a&#34;:1.0},&#34;position&#34;:0.51442307233810425},{&#34;color&#34;:{&#34;r&#34;:1.0,&#34;g&#34;:1.0,&#34;b&#34;:1.0,&#34;a&#34;:1.0},&#34;position&#34;:1.0}],&#34;transform&#34;:{&#34;m00&#34;:3.0529741925575940e-15,&#34;m01&#34;:-49.858852386474609,&#34;m02&#34;:55.499404907226562,&#34;m10&#34;:50.189422607421875,&#34;m11&#34;:3.0732159506563668e-15,&#34;m12&#34;:3.50},&#34;opacity&#34;:1.0,&#34;blendMode&#34;:&#34;NORMAL&#34;,&#34;visible&#34;:true}"/>
</g>
</g>
<defs>
<filter id="filter0_ddn_498_845" x="-0.5" y="-1.5" width="61" height="61" filterUnits="userSpaceOnUse" color-interpolation-filters="sRGB">
<feFlood flood-opacity="0" result="BackgroundImageFix"/>
<feColorMatrix in="SourceAlpha" type="matrix" values="0 0 0 0 0 0 0 0 0 0 0 0 0 0 0 0 0 0 127 0" result="hardAlpha"/>
<feOffset/>
<feGaussianBlur stdDeviation="2"/>
<feComposite in2="hardAlpha" operator="out"/>
<feColorMatrix type="matrix" values="0 0 0 0 1 0 0 0 0 1 0 0 0 0 1 0 0 0 0.25 0"/>
<feBlend mode="normal" in2="BackgroundImageFix" result="effect1_dropShadow_498_845"/>
<feColorMatrix in="SourceAlpha" type="matrix" values="0 0 0 0 0 0 0 0 0 0 0 0 0 0 0 0 0 0 127 0" result="hardAlpha"/>
<feOffset/>
<feGaussianBlur stdDeviation="2.5"/>
<feComposite in2="hardAlpha" operator="out"/>
<feColorMatrix type="matrix" values="0 0 0 0 1 0 0 0 0 1 0 0 0 0 1 0 0 0 0.25 0"/>
<feBlend mode="normal" in2="effect1_dropShadow_498_845" result="effect2_dropShadow_498_845"/>
<feBlend mode="normal" in="SourceGraphic" in2="BackgroundImageFix" result="shape"/>
<feTurbulence type="fractalNoise" baseFrequency="2 2" stitchTiles="stitch" numOctaves="3" result="noise" seed="4225" />
<feComponentTransfer in="noise" result="coloredNoise1">
<feFuncR type="linear" slope="2" intercept="-0.5" />
<feFuncG type="linear" slope="2" intercept="-0.5" />
<feFuncB type="linear" slope="2" intercept="-0.5" />
<feFuncA type="discrete" tableValues="1 1 1 1 1 1 1 1 1 1 1 1 1 1 1 1 1 1 1 1 1 1 1 1 1 1 1 1 1 1 1 1 1 1 1 1 1 1 1 1 1 1 1 1 1 1 1 1 1 1 1 0 0 0 0 0 0 0 0 0 0 0 0 0 0 0 0 0 0 0 0 0 0 0 0 0 0 0 0 0 0 0 0 0 0 0 0 0 0 0 0 0 0 0 0 0 0 0 0 0 "/>
</feComponentTransfer>
<feComposite operator="in" in2="shape" in="coloredNoise1" result="noise1Clipped" />
<feComponentTransfer in="noise1Clipped" result="color1">
<feFuncA type="table" tableValues="0 0.15" />
</feComponentTransfer>
<feMerge result="effect3_noise_498_845">
<feMergeNode in="shape" />
<feMergeNode in="color1" />
</feMerge>
<feBlend mode="normal" in="effect3_noise_498_845" in2="effect2_dropShadow_498_845" result="effect3_noise_498_845"/>
</filter>
<clipPath id="paint0_diamond_498_845_clip_path"><path d="M29.9927 3.5C30.4069 3.5 30.7427 3.83579 30.7427 4.25V12.1895L34.7124 8.21973C35.0053 7.92689 35.4801 7.92685 35.7729 8.21973C36.0658 8.51261 36.0658 8.98739 35.7729 9.28027L30.7427 14.3105V27.1851L39.9639 17.9639C40.2567 17.6713 40.7316 17.6713 41.0244 17.9639C41.3172 18.2567 41.317 18.7315 41.0244 19.0244L31.8062 28.2427H46.9395L51.9624 23.2197C52.2553 22.9268 52.7301 22.9269 53.0229 23.2197C53.3158 23.5126 53.3158 23.9874 53.0229 24.2803L49.0605 28.2427H54.75C55.1642 28.2427 55.5 28.5785 55.5 28.9927C55.4999 29.4068 55.1642 29.7427 54.75 29.7427H49.0459L53.0229 33.7197C53.3158 34.0126 53.3158 34.4874 53.0229 34.7803C52.7301 35.0731 52.2553 35.0731 51.9624 34.7803L46.9248 29.7427H31.8135L41.0347 38.9639C41.3275 39.2567 41.3273 39.7315 41.0347 40.0244C40.7418 40.3173 40.267 40.3173 39.9741 40.0244L30.7427 30.793V44.4395L35.7729 49.4697C36.0658 49.7626 36.0656 50.2374 35.7729 50.5303C35.4801 50.8232 35.0053 50.8232 34.7124 50.5303L30.7427 46.5606V53.75C30.7427 54.1642 30.4069 54.5 29.9927 54.5C29.5785 54.5 29.2427 54.1642 29.2427 53.75V46.5606L25.2729 50.5303C24.9801 50.8232 24.5053 50.8232 24.2124 50.5303C23.9196 50.2374 23.9196 49.7626 24.2124 49.4697L29.2427 44.4395V30.8062L20.0244 40.0244C19.7315 40.3173 19.2568 40.3173 18.9639 40.0244C18.6712 39.7315 18.6711 39.2567 18.9639 38.9639L28.1851 29.7427H16.8105L11.7729 34.7803C11.4801 35.0731 11.0053 35.0731 10.7124 34.7803C10.4195 34.4874 10.4195 34.0126 10.7124 33.7197L14.6895 29.7427H5.25C4.83585 29.7427 4.5001 29.4068 4.5 28.9927C4.5 28.5785 4.83579 28.2427 5.25 28.2427H14.6748L10.7124 24.2803C10.4195 23.9874 10.4195 23.5126 10.7124 23.2197C11.0053 22.9269 11.4801 22.9268 11.7729 23.2197L16.7959 28.2427H28.1909L18.9741 19.0259C18.6812 18.733 18.6812 18.2568 18.9741 17.9639C19.2669 17.6714 19.7418 17.6715 20.0347 17.9639L29.2427 27.1719V14.3105L24.2124 9.28027C23.9195 8.98739 23.9195 8.51262 24.2124 8.21973C24.5053 7.92689 24.9801 7.92685 25.2729 8.21973L29.2427 12.1895V4.25C29.2427 3.83579 29.5785 3.5 29.9927 3.5Z"/></clipPath><linearGradient id="paint0_diamond_498_845" x1="0" y1="0" x2="500" y2="500" gradientUnits="userSpaceOnUse">
<stop stop-color="#1AA0FF"/>
<stop offset="0.514423" stop-color="#CDE3FF"/>
<stop offset="1" stop-color="white"/>
</linearGradient>
<clipPath id="clip0_498_845">
<rect width="60" height="60" fill="white"/>
</clipPath>
</defs>
</svg>
