<svg width="60" height="60" viewBox="0 0 60 60" fill="none" xmlns="http://www.w3.org/2000/svg">
<path d="M47.9553 35.2663C34.1942 35.2663 15.5573 36.3843 9.66282 35.2663C3.76831 34.1483 1.0866 27.4058 3.05866 22.4496C4.69713 18.3318 10.105 15.6322 14.4494 16.7183C14.4494 8.34179 23.4239 7.74347 27.0141 10.7351C32.3987 -0.633008 47.9553 5.35019 47.9553 14.325C60.5198 14.325 61.7164 35.2663 47.9553 35.2663Z" fill="url(#paint0_linear_498_836)"/>
<g filter="url(#filter0_n_498_836)">
<path d="M48.008 35.7632C34.2062 35.7632 15.5142 36.3843 9.60222 35.2663C3.69028 34.1483 1.00064 27.4058 2.97853 22.4496C4.62185 18.3318 10.0458 15.6322 14.4029 16.7183C14.4029 8.34179 23.404 7.74347 27.0048 10.7351C32.4054 -0.633008 48.008 5.35019 48.008 14.325C60.6096 14.325 61.8098 35.7632 48.008 35.7632Z" fill="url(#paint1_linear_498_836)"/>
</g>
<g filter="url(#filter1_ddn_498_836)">
<g clip-path="url(#paint2_diamond_498_836_clip_path)" data-figma-skip-parse="true"><g transform="matrix(0 0.0036904 -0.00366609 0 11.3338 41.4404)"><rect x="0" y="0" width="1574.25" height="1591.29" fill="url(#paint2_diamond_498_836)" opacity="1" shape-rendering="crispEdges"/><rect x="0" y="0" width="1574.25" height="1591.29" transform="scale(1 -1)" fill="url(#paint2_diamond_498_836)" opacity="1" shape-rendering="crispEdges"/><rect x="0" y="0" width="1574.25" height="1591.29" transform="scale(-1 1)" fill="url(#paint2_diamond_498_836)" opacity="1" shape-rendering="crispEdges"/><rect x="0" y="0" width="1574.25" height="1591.29" transform="scale(-1)" fill="url(#paint2_diamond_498_836)" opacity="1" shape-rendering="crispEdges"/></g></g><path d="M11.2489 37.75C11.3098 37.75 11.3592 37.7994 11.3592 37.8603V39.0279L11.943 38.4441C11.9861 38.401 12.0559 38.401 12.099 38.4441C12.142 38.4871 12.142 38.557 12.099 38.6L11.3592 39.3398V41.2331L12.7153 39.877C12.7583 39.834 12.8282 39.834 12.8712 39.877C12.9143 39.9201 12.9143 39.9899 12.8712 40.033L11.5156 41.3886H13.7411L14.4798 40.65C14.5228 40.6069 14.5927 40.6069 14.6357 40.65C14.6788 40.693 14.6788 40.7629 14.6357 40.8059L14.053 41.3886H14.8897C14.9506 41.3886 15 41.438 15 41.4989C15 41.5598 14.9506 41.6092 14.8897 41.6092H14.0509L14.6357 42.1941C14.6788 42.2372 14.6788 42.307 14.6357 42.35C14.5927 42.3931 14.5228 42.3931 14.4798 42.35L13.7389 41.6092H11.5167L12.8727 42.9653C12.9158 43.0083 12.9158 43.0782 12.8727 43.1212C12.8297 43.1643 12.7599 43.1643 12.7168 43.1212L11.3592 41.7637V43.7705L12.099 44.5103C12.142 44.5533 12.142 44.6231 12.099 44.6662C12.0559 44.7093 11.9861 44.7093 11.943 44.6662L11.3592 44.0824V45.1397C11.3592 45.2006 11.3098 45.25 11.2489 45.25C11.188 45.25 11.1386 45.2006 11.1386 45.1397V44.0824L10.5548 44.6662C10.5118 44.7093 10.442 44.7093 10.3989 44.6662C10.3558 44.6231 10.3558 44.5533 10.3989 44.5103L11.1386 43.7705V41.7656L9.783 43.1212C9.73993 43.1643 9.67011 43.1643 9.62704 43.1212C9.58401 43.0782 9.58398 43.0083 9.62704 42.9653L10.9831 41.6092H9.31037L8.56955 42.35C8.52648 42.3931 8.45666 42.3931 8.41359 42.35C8.37052 42.307 8.37052 42.2372 8.41359 42.1941L8.99845 41.6092H7.61029C7.54939 41.6092 7.50001 41.5598 7.5 41.4989C7.5 41.438 7.54938 41.3886 7.61029 41.3886H8.99629L8.41359 40.8059C8.37052 40.7629 8.37052 40.693 8.41359 40.65C8.45666 40.6069 8.52648 40.6069 8.56955 40.65L9.30822 41.3886H10.984L9.62855 40.0332C9.58547 39.9901 9.58547 39.9201 9.62855 39.877C9.6716 39.834 9.74145 39.834 9.78451 39.877L11.1386 41.2312V39.3398L10.3989 38.6C10.3558 38.557 10.3558 38.4872 10.3989 38.4441C10.442 38.401 10.5118 38.401 10.5548 38.4441L11.1386 39.0279V37.8603C11.1386 37.7994 11.188 37.75 11.2489 37.75Z" data-figma-gradient-fill="{&#34;type&#34;:&#34;GRADIENT_DIAMOND&#34;,&#34;stops&#34;:[{&#34;color&#34;:{&#34;r&#34;:0.10218223929405212,&#34;g&#34;:0.62590914964675903,&#34;b&#34;:1.0,&#34;a&#34;:1.0},&#34;position&#34;:0.0},{&#34;color&#34;:{&#34;r&#34;:0.80551379919052124,&#34;g&#34;:0.89035767316818237,&#34;b&#34;:1.0,&#34;a&#34;:1.0},&#34;position&#34;:0.51442307233810425},{&#34;color&#34;:{&#34;r&#34;:1.0,&#34;g&#34;:1.0,&#34;b&#34;:1.0,&#34;a&#34;:1.0},&#34;position&#34;:1.0}],&#34;stopsVar&#34;:[{&#34;color&#34;:{&#34;r&#34;:0.10218223929405212,&#34;g&#34;:0.62590914964675903,&#34;b&#34;:1.0,&#34;a&#34;:1.0},&#34;position&#34;:0.0},{&#34;color&#34;:{&#34;r&#34;:0.80551379919052124,&#34;g&#34;:0.89035767316818237,&#34;b&#34;:1.0,&#34;a&#34;:1.0},&#34;position&#34;:0.51442307233810425},{&#34;color&#34;:{&#34;r&#34;:1.0,&#34;g&#34;:1.0,&#34;b&#34;:1.0,&#34;a&#34;:1.0},&#34;position&#34;:1.0}],&#34;transform&#34;:{&#34;m00&#34;:4.4896679613726730e-16,&#34;m01&#34;:-7.3321838378906250,&#34;m02&#34;:14.999912261962891,&#34;m10&#34;:7.3807969093322754,&#34;m11&#34;:4.5194353461171493e-16,&#34;m12&#34;:37.750},&#34;opacity&#34;:1.0,&#34;blendMode&#34;:&#34;NORMAL&#34;,&#34;visible&#34;:true}"/>
</g>
<g filter="url(#filter2_ddn_498_836)">
<g clip-path="url(#paint3_diamond_498_836_clip_path)" data-figma-skip-parse="true"><g transform="matrix(0 0.0036904 -0.00366609 0 36.8338 41.4404)"><rect x="0" y="0" width="1574.25" height="1591.29" fill="url(#paint3_diamond_498_836)" opacity="1" shape-rendering="crispEdges"/><rect x="0" y="0" width="1574.25" height="1591.29" transform="scale(1 -1)" fill="url(#paint3_diamond_498_836)" opacity="1" shape-rendering="crispEdges"/><rect x="0" y="0" width="1574.25" height="1591.29" transform="scale(-1 1)" fill="url(#paint3_diamond_498_836)" opacity="1" shape-rendering="crispEdges"/><rect x="0" y="0" width="1574.25" height="1591.29" transform="scale(-1)" fill="url(#paint3_diamond_498_836)" opacity="1" shape-rendering="crispEdges"/></g></g><path d="M36.7489 37.75C36.8098 37.75 36.8592 37.7994 36.8592 37.8603V39.0279L37.443 38.4441C37.4861 38.401 37.5559 38.401 37.599 38.4441C37.642 38.4871 37.642 38.557 37.599 38.6L36.8592 39.3398V41.2331L38.2153 39.877C38.2583 39.834 38.3282 39.834 38.3712 39.877C38.4143 39.9201 38.4143 39.9899 38.3712 40.033L37.0156 41.3886H39.2411L39.9798 40.65C40.0228 40.6069 40.0927 40.6069 40.1357 40.65C40.1788 40.693 40.1788 40.7629 40.1357 40.8059L39.553 41.3886H40.3897C40.4506 41.3886 40.5 41.438 40.5 41.4989C40.5 41.5598 40.4506 41.6092 40.3897 41.6092H39.5509L40.1357 42.1941C40.1788 42.2372 40.1788 42.307 40.1357 42.35C40.0927 42.3931 40.0228 42.3931 39.9798 42.35L39.2389 41.6092H37.0167L38.3727 42.9653C38.4158 43.0083 38.4158 43.0782 38.3727 43.1212C38.3297 43.1643 38.2599 43.1643 38.2168 43.1212L36.8592 41.7637V43.7705L37.599 44.5103C37.642 44.5533 37.642 44.6231 37.599 44.6662C37.5559 44.7093 37.4861 44.7093 37.443 44.6662L36.8592 44.0824V45.1397C36.8592 45.2006 36.8098 45.25 36.7489 45.25C36.688 45.25 36.6386 45.2006 36.6386 45.1397V44.0824L36.0548 44.6662C36.0118 44.7093 35.942 44.7093 35.8989 44.6662C35.8558 44.6231 35.8558 44.5533 35.8989 44.5103L36.6386 43.7705V41.7656L35.283 43.1212C35.2399 43.1643 35.1701 43.1643 35.127 43.1212C35.084 43.0782 35.084 43.0083 35.127 42.9653L36.4831 41.6092H34.8104L34.0696 42.35C34.0265 42.3931 33.9567 42.3931 33.9136 42.35C33.8705 42.307 33.8705 42.2372 33.9136 42.1941L34.4984 41.6092H33.1103C33.0494 41.6092 33 41.5598 33 41.4989C33 41.438 33.0494 41.3886 33.1103 41.3886H34.4963L33.9136 40.8059C33.8705 40.7629 33.8705 40.693 33.9136 40.65C33.9567 40.6069 34.0265 40.6069 34.0696 40.65L34.8082 41.3886H36.484L35.1285 40.0332C35.0855 39.9901 35.0855 39.9201 35.1285 39.877C35.1716 39.834 35.2414 39.834 35.2845 39.877L36.6386 41.2312V39.3398L35.8989 38.6C35.8558 38.557 35.8558 38.4872 35.8989 38.4441C35.942 38.401 36.0118 38.401 36.0548 38.4441L36.6386 39.0279V37.8603C36.6386 37.7994 36.688 37.75 36.7489 37.75Z" data-figma-gradient-fill="{&#34;type&#34;:&#34;GRADIENT_DIAMOND&#34;,&#34;stops&#34;:[{&#34;color&#34;:{&#34;r&#34;:0.10218223929405212,&#34;g&#34;:0.62590914964675903,&#34;b&#34;:1.0,&#34;a&#34;:1.0},&#34;position&#34;:0.0},{&#34;color&#34;:{&#34;r&#34;:0.80551379919052124,&#34;g&#34;:0.89035767316818237,&#34;b&#34;:1.0,&#34;a&#34;:1.0},&#34;position&#34;:0.51442307233810425},{&#34;color&#34;:{&#34;r&#34;:1.0,&#34;g&#34;:1.0,&#34;b&#34;:1.0,&#34;a&#34;:1.0},&#34;position&#34;:1.0}],&#34;stopsVar&#34;:[{&#34;color&#34;:{&#34;r&#34;:0.10218223929405212,&#34;g&#34;:0.62590914964675903,&#34;b&#34;:1.0,&#34;a&#34;:1.0},&#34;position&#34;:0.0},{&#34;color&#34;:{&#34;r&#34;:0.80551379919052124,&#34;g&#34;:0.89035767316818237,&#34;b&#34;:1.0,&#34;a&#34;:1.0},&#34;position&#34;:0.51442307233810425},{&#34;color&#34;:{&#34;r&#34;:1.0,&#34;g&#34;:1.0,&#34;b&#34;:1.0,&#34;a&#34;:1.0},&#34;position&#34;:1.0}],&#34;transform&#34;:{&#34;m00&#34;:4.4896679613726730e-16,&#34;m01&#34;:-7.3321838378906250,&#34;m02&#34;:40.499912261962891,&#34;m10&#34;:7.3807969093322754,&#34;m11&#34;:4.5194353461171493e-16,&#34;m12&#34;:37.750},&#34;opacity&#34;:1.0,&#34;blendMode&#34;:&#34;NORMAL&#34;,&#34;visible&#34;:true}"/>
</g>
<g filter="url(#filter3_ddn_498_836)">
<g clip-path="url(#paint4_diamond_498_836_clip_path)" data-figma-skip-parse="true"><g transform="matrix(0 0.0036904 -0.00366609 0 18.8338 47.4404)"><rect x="0" y="0" width="1574.25" height="1591.29" fill="url(#paint4_diamond_498_836)" opacity="1" shape-rendering="crispEdges"/><rect x="0" y="0" width="1574.25" height="1591.29" transform="scale(1 -1)" fill="url(#paint4_diamond_498_836)" opacity="1" shape-rendering="crispEdges"/><rect x="0" y="0" width="1574.25" height="1591.29" transform="scale(-1 1)" fill="url(#paint4_diamond_498_836)" opacity="1" shape-rendering="crispEdges"/><rect x="0" y="0" width="1574.25" height="1591.29" transform="scale(-1)" fill="url(#paint4_diamond_498_836)" opacity="1" shape-rendering="crispEdges"/></g></g><path d="M18.7489 43.75C18.8098 43.75 18.8592 43.7994 18.8592 43.8603V45.0279L19.443 44.4441C19.4861 44.401 19.5559 44.401 19.599 44.4441C19.642 44.4871 19.642 44.557 19.599 44.6L18.8592 45.3398V47.2331L20.2153 45.877C20.2583 45.834 20.3282 45.834 20.3712 45.877C20.4143 45.9201 20.4143 45.9899 20.3712 46.033L19.0156 47.3886H21.2411L21.9798 46.65C22.0228 46.6069 22.0927 46.6069 22.1357 46.65C22.1788 46.693 22.1788 46.7629 22.1357 46.8059L21.553 47.3886H22.3897C22.4506 47.3886 22.5 47.438 22.5 47.4989C22.5 47.5598 22.4506 47.6092 22.3897 47.6092H21.5509L22.1357 48.1941C22.1788 48.2372 22.1788 48.307 22.1357 48.35C22.0927 48.3931 22.0228 48.3931 21.9798 48.35L21.2389 47.6092H19.0167L20.3727 48.9653C20.4158 49.0083 20.4158 49.0782 20.3727 49.1212C20.3297 49.1643 20.2599 49.1643 20.2168 49.1212L18.8592 47.7637V49.7705L19.599 50.5103C19.642 50.5533 19.642 50.6231 19.599 50.6662C19.5559 50.7093 19.4861 50.7093 19.443 50.6662L18.8592 50.0824V51.1397C18.8592 51.2006 18.8098 51.25 18.7489 51.25C18.688 51.25 18.6386 51.2006 18.6386 51.1397V50.0824L18.0548 50.6662C18.0118 50.7093 17.942 50.7093 17.8989 50.6662C17.8558 50.6231 17.8558 50.5533 17.8989 50.5103L18.6386 49.7705V47.7656L17.283 49.1212C17.2399 49.1643 17.1701 49.1643 17.127 49.1212C17.084 49.0782 17.084 49.0083 17.127 48.9653L18.4831 47.6092H16.8104L16.0696 48.35C16.0265 48.3931 15.9567 48.3931 15.9136 48.35C15.8705 48.307 15.8705 48.2372 15.9136 48.1941L16.4984 47.6092H15.1103C15.0494 47.6092 15 47.5598 15 47.4989C15 47.438 15.0494 47.3886 15.1103 47.3886H16.4963L15.9136 46.8059C15.8705 46.7629 15.8705 46.693 15.9136 46.65C15.9567 46.6069 16.0265 46.6069 16.0696 46.65L16.8082 47.3886H18.484L17.1285 46.0332C17.0855 45.9901 17.0855 45.9201 17.1285 45.877C17.1716 45.834 17.2414 45.834 17.2845 45.877L18.6386 47.2312V45.3398L17.8989 44.6C17.8558 44.557 17.8558 44.4872 17.8989 44.4441C17.942 44.401 18.0118 44.401 18.0548 44.4441L18.6386 45.0279V43.8603C18.6386 43.7994 18.688 43.75 18.7489 43.75Z" data-figma-gradient-fill="{&#34;type&#34;:&#34;GRADIENT_DIAMOND&#34;,&#34;stops&#34;:[{&#34;color&#34;:{&#34;r&#34;:0.10218223929405212,&#34;g&#34;:0.62590914964675903,&#34;b&#34;:1.0,&#34;a&#34;:1.0},&#34;position&#34;:0.0},{&#34;color&#34;:{&#34;r&#34;:0.80551379919052124,&#34;g&#34;:0.89035767316818237,&#34;b&#34;:1.0,&#34;a&#34;:1.0},&#34;position&#34;:0.51442307233810425},{&#34;color&#34;:{&#34;r&#34;:1.0,&#34;g&#34;:1.0,&#34;b&#34;:1.0,&#34;a&#34;:1.0},&#34;position&#34;:1.0}],&#34;stopsVar&#34;:[{&#34;color&#34;:{&#34;r&#34;:0.10218223929405212,&#34;g&#34;:0.62590914964675903,&#34;b&#34;:1.0,&#34;a&#34;:1.0},&#34;position&#34;:0.0},{&#34;color&#34;:{&#34;r&#34;:0.80551379919052124,&#34;g&#34;:0.89035767316818237,&#34;b&#34;:1.0,&#34;a&#34;:1.0},&#34;position&#34;:0.51442307233810425},{&#34;color&#34;:{&#34;r&#34;:1.0,&#34;g&#34;:1.0,&#34;b&#34;:1.0,&#34;a&#34;:1.0},&#34;position&#34;:1.0}],&#34;transform&#34;:{&#34;m00&#34;:4.4896679613726730e-16,&#34;m01&#34;:-7.3321838378906250,&#34;m02&#34;:22.499912261962891,&#34;m10&#34;:7.3807969093322754,&#34;m11&#34;:4.5194353461171493e-16,&#34;m12&#34;:43.750},&#34;opacity&#34;:1.0,&#34;blendMode&#34;:&#34;NORMAL&#34;,&#34;visible&#34;:true}"/>
</g>
<g filter="url(#filter4_ddn_498_836)">
<g clip-path="url(#paint5_diamond_498_836_clip_path)" data-figma-skip-parse="true"><g transform="matrix(0 0.0036904 -0.00366609 0 41.3338 47.4404)"><rect x="0" y="0" width="1574.25" height="1591.29" fill="url(#paint5_diamond_498_836)" opacity="1" shape-rendering="crispEdges"/><rect x="0" y="0" width="1574.25" height="1591.29" transform="scale(1 -1)" fill="url(#paint5_diamond_498_836)" opacity="1" shape-rendering="crispEdges"/><rect x="0" y="0" width="1574.25" height="1591.29" transform="scale(-1 1)" fill="url(#paint5_diamond_498_836)" opacity="1" shape-rendering="crispEdges"/><rect x="0" y="0" width="1574.25" height="1591.29" transform="scale(-1)" fill="url(#paint5_diamond_498_836)" opacity="1" shape-rendering="crispEdges"/></g></g><path d="M41.2489 43.75C41.3098 43.75 41.3592 43.7994 41.3592 43.8603V45.0279L41.943 44.4441C41.9861 44.401 42.0559 44.401 42.099 44.4441C42.142 44.4871 42.142 44.557 42.099 44.6L41.3592 45.3398V47.2331L42.7153 45.877C42.7583 45.834 42.8282 45.834 42.8712 45.877C42.9143 45.9201 42.9143 45.9899 42.8712 46.033L41.5156 47.3886H43.7411L44.4798 46.65C44.5228 46.6069 44.5927 46.6069 44.6357 46.65C44.6788 46.693 44.6788 46.7629 44.6357 46.8059L44.053 47.3886H44.8897C44.9506 47.3886 45 47.438 45 47.4989C45 47.5598 44.9506 47.6092 44.8897 47.6092H44.0509L44.6357 48.1941C44.6788 48.2372 44.6788 48.307 44.6357 48.35C44.5927 48.3931 44.5228 48.3931 44.4798 48.35L43.7389 47.6092H41.5167L42.8727 48.9653C42.9158 49.0083 42.9158 49.0782 42.8727 49.1212C42.8297 49.1643 42.7599 49.1643 42.7168 49.1212L41.3592 47.7637V49.7705L42.099 50.5103C42.142 50.5533 42.142 50.6231 42.099 50.6662C42.0559 50.7093 41.9861 50.7093 41.943 50.6662L41.3592 50.0824V51.1397C41.3592 51.2006 41.3098 51.25 41.2489 51.25C41.188 51.25 41.1386 51.2006 41.1386 51.1397V50.0824L40.5548 50.6662C40.5118 50.7093 40.442 50.7093 40.3989 50.6662C40.3558 50.6231 40.3558 50.5533 40.3989 50.5103L41.1386 49.7705V47.7656L39.783 49.1212C39.7399 49.1643 39.6701 49.1643 39.627 49.1212C39.584 49.0782 39.584 49.0083 39.627 48.9653L40.9831 47.6092H39.3104L38.5696 48.35C38.5265 48.3931 38.4567 48.3931 38.4136 48.35C38.3705 48.307 38.3705 48.2372 38.4136 48.1941L38.9984 47.6092H37.6103C37.5494 47.6092 37.5 47.5598 37.5 47.4989C37.5 47.438 37.5494 47.3886 37.6103 47.3886H38.9963L38.4136 46.8059C38.3705 46.7629 38.3705 46.693 38.4136 46.65C38.4567 46.6069 38.5265 46.6069 38.5696 46.65L39.3082 47.3886H40.984L39.6285 46.0332C39.5855 45.9901 39.5855 45.9201 39.6285 45.877C39.6716 45.834 39.7414 45.834 39.7845 45.877L41.1386 47.2312V45.3398L40.3989 44.6C40.3558 44.557 40.3558 44.4872 40.3989 44.4441C40.442 44.401 40.5118 44.401 40.5548 44.4441L41.1386 45.0279V43.8603C41.1386 43.7994 41.188 43.75 41.2489 43.75Z" data-figma-gradient-fill="{&#34;type&#34;:&#34;GRADIENT_DIAMOND&#34;,&#34;stops&#34;:[{&#34;color&#34;:{&#34;r&#34;:0.10218223929405212,&#34;g&#34;:0.62590914964675903,&#34;b&#34;:1.0,&#34;a&#34;:1.0},&#34;position&#34;:0.0},{&#34;color&#34;:{&#34;r&#34;:0.80551379919052124,&#34;g&#34;:0.89035767316818237,&#34;b&#34;:1.0,&#34;a&#34;:1.0},&#34;position&#34;:0.51442307233810425},{&#34;color&#34;:{&#34;r&#34;:1.0,&#34;g&#34;:1.0,&#34;b&#34;:1.0,&#34;a&#34;:1.0},&#34;position&#34;:1.0}],&#34;stopsVar&#34;:[{&#34;color&#34;:{&#34;r&#34;:0.10218223929405212,&#34;g&#34;:0.62590914964675903,&#34;b&#34;:1.0,&#34;a&#34;:1.0},&#34;position&#34;:0.0},{&#34;color&#34;:{&#34;r&#34;:0.80551379919052124,&#34;g&#34;:0.89035767316818237,&#34;b&#34;:1.0,&#34;a&#34;:1.0},&#34;position&#34;:0.51442307233810425},{&#34;color&#34;:{&#34;r&#34;:1.0,&#34;g&#34;:1.0,&#34;b&#34;:1.0,&#34;a&#34;:1.0},&#34;position&#34;:1.0}],&#34;transform&#34;:{&#34;m00&#34;:4.4896679613726730e-16,&#34;m01&#34;:-7.3321838378906250,&#34;m02&#34;:44.999912261962891,&#34;m10&#34;:7.3807969093322754,&#34;m11&#34;:4.5194353461171493e-16,&#34;m12&#34;:43.750},&#34;opacity&#34;:1.0,&#34;blendMode&#34;:&#34;NORMAL&#34;,&#34;visible&#34;:true}"/>
</g>
<g filter="url(#filter5_ddn_498_836)">
<g clip-path="url(#paint6_diamond_498_836_clip_path)" data-figma-skip-parse="true"><g transform="matrix(0 0.0036904 -0.00366609 0 27.8338 43.4404)"><rect x="0" y="0" width="1574.25" height="1591.29" fill="url(#paint6_diamond_498_836)" opacity="1" shape-rendering="crispEdges"/><rect x="0" y="0" width="1574.25" height="1591.29" transform="scale(1 -1)" fill="url(#paint6_diamond_498_836)" opacity="1" shape-rendering="crispEdges"/><rect x="0" y="0" width="1574.25" height="1591.29" transform="scale(-1 1)" fill="url(#paint6_diamond_498_836)" opacity="1" shape-rendering="crispEdges"/><rect x="0" y="0" width="1574.25" height="1591.29" transform="scale(-1)" fill="url(#paint6_diamond_498_836)" opacity="1" shape-rendering="crispEdges"/></g></g><path d="M27.7489 39.75C27.8098 39.75 27.8592 39.7994 27.8592 39.8603V41.0279L28.443 40.4441C28.4861 40.401 28.5559 40.401 28.599 40.4441C28.642 40.4871 28.642 40.557 28.599 40.6L27.8592 41.3398V43.2331L29.2153 41.877C29.2583 41.834 29.3282 41.834 29.3712 41.877C29.4143 41.9201 29.4143 41.9899 29.3712 42.033L28.0156 43.3886H30.2411L30.9798 42.65C31.0228 42.6069 31.0927 42.6069 31.1357 42.65C31.1788 42.693 31.1788 42.7629 31.1357 42.8059L30.553 43.3886H31.3897C31.4506 43.3886 31.5 43.438 31.5 43.4989C31.5 43.5598 31.4506 43.6092 31.3897 43.6092H30.5509L31.1357 44.1941C31.1788 44.2372 31.1788 44.307 31.1357 44.35C31.0927 44.3931 31.0228 44.3931 30.9798 44.35L30.2389 43.6092H28.0167L29.3727 44.9653C29.4158 45.0083 29.4158 45.0782 29.3727 45.1212C29.3297 45.1643 29.2599 45.1643 29.2168 45.1212L27.8592 43.7637V45.7705L28.599 46.5103C28.642 46.5533 28.642 46.6231 28.599 46.6662C28.5559 46.7093 28.4861 46.7093 28.443 46.6662L27.8592 46.0824V47.1397C27.8592 47.2006 27.8098 47.25 27.7489 47.25C27.688 47.25 27.6386 47.2006 27.6386 47.1397V46.0824L27.0548 46.6662C27.0118 46.7093 26.942 46.7093 26.8989 46.6662C26.8558 46.6231 26.8558 46.5533 26.8989 46.5103L27.6386 45.7705V43.7656L26.283 45.1212C26.2399 45.1643 26.1701 45.1643 26.127 45.1212C26.084 45.0782 26.084 45.0083 26.127 44.9653L27.4831 43.6092H25.8104L25.0696 44.35C25.0265 44.3931 24.9567 44.3931 24.9136 44.35C24.8705 44.307 24.8705 44.2372 24.9136 44.1941L25.4984 43.6092H24.1103C24.0494 43.6092 24 43.5598 24 43.4989C24 43.438 24.0494 43.3886 24.1103 43.3886H25.4963L24.9136 42.8059C24.8705 42.7629 24.8705 42.693 24.9136 42.65C24.9567 42.6069 25.0265 42.6069 25.0696 42.65L25.8082 43.3886H27.484L26.1285 42.0332C26.0855 41.9901 26.0855 41.9201 26.1285 41.877C26.1716 41.834 26.2414 41.834 26.2845 41.877L27.6386 43.2312V41.3398L26.8989 40.6C26.8558 40.557 26.8558 40.4872 26.8989 40.4441C26.942 40.401 27.0118 40.401 27.0548 40.4441L27.6386 41.0279V39.8603C27.6386 39.7994 27.688 39.75 27.7489 39.75Z" data-figma-gradient-fill="{&#34;type&#34;:&#34;GRADIENT_DIAMOND&#34;,&#34;stops&#34;:[{&#34;color&#34;:{&#34;r&#34;:0.10218223929405212,&#34;g&#34;:0.62590914964675903,&#34;b&#34;:1.0,&#34;a&#34;:1.0},&#34;position&#34;:0.0},{&#34;color&#34;:{&#34;r&#34;:0.80551379919052124,&#34;g&#34;:0.89035767316818237,&#34;b&#34;:1.0,&#34;a&#34;:1.0},&#34;position&#34;:0.51442307233810425},{&#34;color&#34;:{&#34;r&#34;:1.0,&#34;g&#34;:1.0,&#34;b&#34;:1.0,&#34;a&#34;:1.0},&#34;position&#34;:1.0}],&#34;stopsVar&#34;:[{&#34;color&#34;:{&#34;r&#34;:0.10218223929405212,&#34;g&#34;:0.62590914964675903,&#34;b&#34;:1.0,&#34;a&#34;:1.0},&#34;position&#34;:0.0},{&#34;color&#34;:{&#34;r&#34;:0.80551379919052124,&#34;g&#34;:0.89035767316818237,&#34;b&#34;:1.0,&#34;a&#34;:1.0},&#34;position&#34;:0.51442307233810425},{&#34;color&#34;:{&#34;r&#34;:1.0,&#34;g&#34;:1.0,&#34;b&#34;:1.0,&#34;a&#34;:1.0},&#34;position&#34;:1.0}],&#34;transform&#34;:{&#34;m00&#34;:4.4896679613726730e-16,&#34;m01&#34;:-7.3321838378906250,&#34;m02&#34;:31.499912261962891,&#34;m10&#34;:7.3807969093322754,&#34;m11&#34;:4.5194353461171493e-16,&#34;m12&#34;:39.750},&#34;opacity&#34;:1.0,&#34;blendMode&#34;:&#34;NORMAL&#34;,&#34;visible&#34;:true}"/>
</g>
<g filter="url(#filter6_ddn_498_836)">
<g clip-path="url(#paint7_diamond_498_836_clip_path)" data-figma-skip-parse="true"><g transform="matrix(0 0.0036904 -0.00366609 0 48.8338 43.4404)"><rect x="0" y="0" width="1574.25" height="1591.29" fill="url(#paint7_diamond_498_836)" opacity="1" shape-rendering="crispEdges"/><rect x="0" y="0" width="1574.25" height="1591.29" transform="scale(1 -1)" fill="url(#paint7_diamond_498_836)" opacity="1" shape-rendering="crispEdges"/><rect x="0" y="0" width="1574.25" height="1591.29" transform="scale(-1 1)" fill="url(#paint7_diamond_498_836)" opacity="1" shape-rendering="crispEdges"/><rect x="0" y="0" width="1574.25" height="1591.29" transform="scale(-1)" fill="url(#paint7_diamond_498_836)" opacity="1" shape-rendering="crispEdges"/></g></g><path d="M48.7489 39.75C48.8098 39.75 48.8592 39.7994 48.8592 39.8603V41.0279L49.443 40.4441C49.4861 40.401 49.5559 40.401 49.599 40.4441C49.642 40.4871 49.642 40.557 49.599 40.6L48.8592 41.3398V43.2331L50.2153 41.877C50.2583 41.834 50.3282 41.834 50.3712 41.877C50.4143 41.9201 50.4143 41.9899 50.3712 42.033L49.0156 43.3886H51.2411L51.9798 42.65C52.0228 42.6069 52.0927 42.6069 52.1357 42.65C52.1788 42.693 52.1788 42.7629 52.1357 42.8059L51.553 43.3886H52.3897C52.4506 43.3886 52.5 43.438 52.5 43.4989C52.5 43.5598 52.4506 43.6092 52.3897 43.6092H51.5509L52.1357 44.1941C52.1788 44.2372 52.1788 44.307 52.1357 44.35C52.0927 44.3931 52.0228 44.3931 51.9798 44.35L51.2389 43.6092H49.0167L50.3727 44.9653C50.4158 45.0083 50.4158 45.0782 50.3727 45.1212C50.3297 45.1643 50.2599 45.1643 50.2168 45.1212L48.8592 43.7637V45.7705L49.599 46.5103C49.642 46.5533 49.642 46.6231 49.599 46.6662C49.5559 46.7093 49.4861 46.7093 49.443 46.6662L48.8592 46.0824V47.1397C48.8592 47.2006 48.8098 47.25 48.7489 47.25C48.688 47.25 48.6386 47.2006 48.6386 47.1397V46.0824L48.0548 46.6662C48.0118 46.7093 47.942 46.7093 47.8989 46.6662C47.8558 46.6231 47.8558 46.5533 47.8989 46.5103L48.6386 45.7705V43.7656L47.283 45.1212C47.2399 45.1643 47.1701 45.1643 47.127 45.1212C47.084 45.0782 47.084 45.0083 47.127 44.9653L48.4831 43.6092H46.8104L46.0696 44.35C46.0265 44.3931 45.9567 44.3931 45.9136 44.35C45.8705 44.307 45.8705 44.2372 45.9136 44.1941L46.4984 43.6092H45.1103C45.0494 43.6092 45 43.5598 45 43.4989C45 43.438 45.0494 43.3886 45.1103 43.3886H46.4963L45.9136 42.8059C45.8705 42.7629 45.8705 42.693 45.9136 42.65C45.9567 42.6069 46.0265 42.6069 46.0696 42.65L46.8082 43.3886H48.484L47.1285 42.0332C47.0855 41.9901 47.0855 41.9201 47.1285 41.877C47.1716 41.834 47.2414 41.834 47.2845 41.877L48.6386 43.2312V41.3398L47.8989 40.6C47.8558 40.557 47.8558 40.4872 47.8989 40.4441C47.942 40.401 48.0118 40.401 48.0548 40.4441L48.6386 41.0279V39.8603C48.6386 39.7994 48.688 39.75 48.7489 39.75Z" data-figma-gradient-fill="{&#34;type&#34;:&#34;GRADIENT_DIAMOND&#34;,&#34;stops&#34;:[{&#34;color&#34;:{&#34;r&#34;:0.10218223929405212,&#34;g&#34;:0.62590914964675903,&#34;b&#34;:1.0,&#34;a&#34;:1.0},&#34;position&#34;:0.0},{&#34;color&#34;:{&#34;r&#34;:0.80551379919052124,&#34;g&#34;:0.89035767316818237,&#34;b&#34;:1.0,&#34;a&#34;:1.0},&#34;position&#34;:0.51442307233810425},{&#34;color&#34;:{&#34;r&#34;:1.0,&#34;g&#34;:1.0,&#34;b&#34;:1.0,&#34;a&#34;:1.0},&#34;position&#34;:1.0}],&#34;stopsVar&#34;:[{&#34;color&#34;:{&#34;r&#34;:0.10218223929405212,&#34;g&#34;:0.62590914964675903,&#34;b&#34;:1.0,&#34;a&#34;:1.0},&#34;position&#34;:0.0},{&#34;color&#34;:{&#34;r&#34;:0.80551379919052124,&#34;g&#34;:0.89035767316818237,&#34;b&#34;:1.0,&#34;a&#34;:1.0},&#34;position&#34;:0.51442307233810425},{&#34;color&#34;:{&#34;r&#34;:1.0,&#34;g&#34;:1.0,&#34;b&#34;:1.0,&#34;a&#34;:1.0},&#34;position&#34;:1.0}],&#34;transform&#34;:{&#34;m00&#34;:4.4896679613726730e-16,&#34;m01&#34;:-7.3321838378906250,&#34;m02&#34;:52.499912261962891,&#34;m10&#34;:7.3807969093322754,&#34;m11&#34;:4.5194353461171493e-16,&#34;m12&#34;:39.750},&#34;opacity&#34;:1.0,&#34;blendMode&#34;:&#34;NORMAL&#34;,&#34;visible&#34;:true}"/>
</g>
<defs>
<filter id="filter0_n_498_836" x="2.33545" y="4.5" width="55.5791" height="31.4352" filterUnits="userSpaceOnUse" color-interpolation-filters="sRGB">
<feFlood flood-opacity="0" result="BackgroundImageFix"/>
<feBlend mode="normal" in="SourceGraphic" in2="BackgroundImageFix" result="shape"/>
<feTurbulence type="fractalNoise" baseFrequency="2 2" stitchTiles="stitch" numOctaves="3" result="noise" seed="7883" />
<feComponentTransfer in="noise" result="coloredNoise1">
<feFuncR type="linear" slope="2" intercept="-0.5" />
<feFuncG type="linear" slope="2" intercept="-0.5" />
<feFuncB type="linear" slope="2" intercept="-0.5" />
<feFuncA type="discrete" tableValues="1 1 1 1 1 1 1 1 1 1 1 1 1 1 1 1 1 1 1 1 1 1 1 1 1 1 1 1 1 1 1 1 1 1 1 1 1 1 1 1 1 1 1 1 1 1 1 1 1 1 1 0 0 0 0 0 0 0 0 0 0 0 0 0 0 0 0 0 0 0 0 0 0 0 0 0 0 0 0 0 0 0 0 0 0 0 0 0 0 0 0 0 0 0 0 0 0 0 0 0 "/>
</feComponentTransfer>
<feComposite operator="in" in2="shape" in="coloredNoise1" result="noise1Clipped" />
<feComponentTransfer in="noise1Clipped" result="color1">
<feFuncA type="table" tableValues="0 0.13" />
</feComponentTransfer>
<feMerge result="effect1_noise_498_836">
<feMergeNode in="shape" />
<feMergeNode in="color1" />
</feMerge>
</filter>
<filter id="filter1_ddn_498_836" x="2.5" y="32.75" width="17.5" height="17.5" filterUnits="userSpaceOnUse" color-interpolation-filters="sRGB">
<feFlood flood-opacity="0" result="BackgroundImageFix"/>
<feColorMatrix in="SourceAlpha" type="matrix" values="0 0 0 0 0 0 0 0 0 0 0 0 0 0 0 0 0 0 127 0" result="hardAlpha"/>
<feOffset/>
<feGaussianBlur stdDeviation="2"/>
<feComposite in2="hardAlpha" operator="out"/>
<feColorMatrix type="matrix" values="0 0 0 0 1 0 0 0 0 1 0 0 0 0 1 0 0 0 0.25 0"/>
<feBlend mode="normal" in2="BackgroundImageFix" result="effect1_dropShadow_498_836"/>
<feColorMatrix in="SourceAlpha" type="matrix" values="0 0 0 0 0 0 0 0 0 0 0 0 0 0 0 0 0 0 127 0" result="hardAlpha"/>
<feOffset/>
<feGaussianBlur stdDeviation="2.5"/>
<feComposite in2="hardAlpha" operator="out"/>
<feColorMatrix type="matrix" values="0 0 0 0 1 0 0 0 0 1 0 0 0 0 1 0 0 0 0.25 0"/>
<feBlend mode="normal" in2="effect1_dropShadow_498_836" result="effect2_dropShadow_498_836"/>
<feBlend mode="normal" in="SourceGraphic" in2="BackgroundImageFix" result="shape"/>
<feTurbulence type="fractalNoise" baseFrequency="2 2" stitchTiles="stitch" numOctaves="3" result="noise" seed="4225" />
<feComponentTransfer in="noise" result="coloredNoise1">
<feFuncR type="linear" slope="2" intercept="-0.5" />
<feFuncG type="linear" slope="2" intercept="-0.5" />
<feFuncB type="linear" slope="2" intercept="-0.5" />
<feFuncA type="discrete" tableValues="1 1 1 1 1 1 1 1 1 1 1 1 1 1 1 1 1 1 1 1 1 1 1 1 1 1 1 1 1 1 1 1 1 1 1 1 1 1 1 1 1 1 1 1 1 1 1 1 1 1 1 0 0 0 0 0 0 0 0 0 0 0 0 0 0 0 0 0 0 0 0 0 0 0 0 0 0 0 0 0 0 0 0 0 0 0 0 0 0 0 0 0 0 0 0 0 0 0 0 0 "/>
</feComponentTransfer>
<feComposite operator="in" in2="shape" in="coloredNoise1" result="noise1Clipped" />
<feComponentTransfer in="noise1Clipped" result="color1">
<feFuncA type="table" tableValues="0 0.15" />
</feComponentTransfer>
<feMerge result="effect3_noise_498_836">
<feMergeNode in="shape" />
<feMergeNode in="color1" />
</feMerge>
<feBlend mode="normal" in="effect3_noise_498_836" in2="effect2_dropShadow_498_836" result="effect3_noise_498_836"/>
</filter>
<clipPath id="paint2_diamond_498_836_clip_path"><path d="M11.2489 37.75C11.3098 37.75 11.3592 37.7994 11.3592 37.8603V39.0279L11.943 38.4441C11.9861 38.401 12.0559 38.401 12.099 38.4441C12.142 38.4871 12.142 38.557 12.099 38.6L11.3592 39.3398V41.2331L12.7153 39.877C12.7583 39.834 12.8282 39.834 12.8712 39.877C12.9143 39.9201 12.9143 39.9899 12.8712 40.033L11.5156 41.3886H13.7411L14.4798 40.65C14.5228 40.6069 14.5927 40.6069 14.6357 40.65C14.6788 40.693 14.6788 40.7629 14.6357 40.8059L14.053 41.3886H14.8897C14.9506 41.3886 15 41.438 15 41.4989C15 41.5598 14.9506 41.6092 14.8897 41.6092H14.0509L14.6357 42.1941C14.6788 42.2372 14.6788 42.307 14.6357 42.35C14.5927 42.3931 14.5228 42.3931 14.4798 42.35L13.7389 41.6092H11.5167L12.8727 42.9653C12.9158 43.0083 12.9158 43.0782 12.8727 43.1212C12.8297 43.1643 12.7599 43.1643 12.7168 43.1212L11.3592 41.7637V43.7705L12.099 44.5103C12.142 44.5533 12.142 44.6231 12.099 44.6662C12.0559 44.7093 11.9861 44.7093 11.943 44.6662L11.3592 44.0824V45.1397C11.3592 45.2006 11.3098 45.25 11.2489 45.25C11.188 45.25 11.1386 45.2006 11.1386 45.1397V44.0824L10.5548 44.6662C10.5118 44.7093 10.442 44.7093 10.3989 44.6662C10.3558 44.6231 10.3558 44.5533 10.3989 44.5103L11.1386 43.7705V41.7656L9.783 43.1212C9.73993 43.1643 9.67011 43.1643 9.62704 43.1212C9.58401 43.0782 9.58398 43.0083 9.62704 42.9653L10.9831 41.6092H9.31037L8.56955 42.35C8.52648 42.3931 8.45666 42.3931 8.41359 42.35C8.37052 42.307 8.37052 42.2372 8.41359 42.1941L8.99845 41.6092H7.61029C7.54939 41.6092 7.50001 41.5598 7.5 41.4989C7.5 41.438 7.54938 41.3886 7.61029 41.3886H8.99629L8.41359 40.8059C8.37052 40.7629 8.37052 40.693 8.41359 40.65C8.45666 40.6069 8.52648 40.6069 8.56955 40.65L9.30822 41.3886H10.984L9.62855 40.0332C9.58547 39.9901 9.58547 39.9201 9.62855 39.877C9.6716 39.834 9.74145 39.834 9.78451 39.877L11.1386 41.2312V39.3398L10.3989 38.6C10.3558 38.557 10.3558 38.4872 10.3989 38.4441C10.442 38.401 10.5118 38.401 10.5548 38.4441L11.1386 39.0279V37.8603C11.1386 37.7994 11.188 37.75 11.2489 37.75Z"/></clipPath><filter id="filter2_ddn_498_836" x="28" y="32.75" width="17.5" height="17.5" filterUnits="userSpaceOnUse" color-interpolation-filters="sRGB">
<feFlood flood-opacity="0" result="BackgroundImageFix"/>
<feColorMatrix in="SourceAlpha" type="matrix" values="0 0 0 0 0 0 0 0 0 0 0 0 0 0 0 0 0 0 127 0" result="hardAlpha"/>
<feOffset/>
<feGaussianBlur stdDeviation="2"/>
<feComposite in2="hardAlpha" operator="out"/>
<feColorMatrix type="matrix" values="0 0 0 0 1 0 0 0 0 1 0 0 0 0 1 0 0 0 0.25 0"/>
<feBlend mode="normal" in2="BackgroundImageFix" result="effect1_dropShadow_498_836"/>
<feColorMatrix in="SourceAlpha" type="matrix" values="0 0 0 0 0 0 0 0 0 0 0 0 0 0 0 0 0 0 127 0" result="hardAlpha"/>
<feOffset/>
<feGaussianBlur stdDeviation="2.5"/>
<feComposite in2="hardAlpha" operator="out"/>
<feColorMatrix type="matrix" values="0 0 0 0 1 0 0 0 0 1 0 0 0 0 1 0 0 0 0.25 0"/>
<feBlend mode="normal" in2="effect1_dropShadow_498_836" result="effect2_dropShadow_498_836"/>
<feBlend mode="normal" in="SourceGraphic" in2="BackgroundImageFix" result="shape"/>
<feTurbulence type="fractalNoise" baseFrequency="2 2" stitchTiles="stitch" numOctaves="3" result="noise" seed="4225" />
<feComponentTransfer in="noise" result="coloredNoise1">
<feFuncR type="linear" slope="2" intercept="-0.5" />
<feFuncG type="linear" slope="2" intercept="-0.5" />
<feFuncB type="linear" slope="2" intercept="-0.5" />
<feFuncA type="discrete" tableValues="1 1 1 1 1 1 1 1 1 1 1 1 1 1 1 1 1 1 1 1 1 1 1 1 1 1 1 1 1 1 1 1 1 1 1 1 1 1 1 1 1 1 1 1 1 1 1 1 1 1 1 0 0 0 0 0 0 0 0 0 0 0 0 0 0 0 0 0 0 0 0 0 0 0 0 0 0 0 0 0 0 0 0 0 0 0 0 0 0 0 0 0 0 0 0 0 0 0 0 0 "/>
</feComponentTransfer>
<feComposite operator="in" in2="shape" in="coloredNoise1" result="noise1Clipped" />
<feComponentTransfer in="noise1Clipped" result="color1">
<feFuncA type="table" tableValues="0 0.15" />
</feComponentTransfer>
<feMerge result="effect3_noise_498_836">
<feMergeNode in="shape" />
<feMergeNode in="color1" />
</feMerge>
<feBlend mode="normal" in="effect3_noise_498_836" in2="effect2_dropShadow_498_836" result="effect3_noise_498_836"/>
</filter>
<clipPath id="paint3_diamond_498_836_clip_path"><path d="M36.7489 37.75C36.8098 37.75 36.8592 37.7994 36.8592 37.8603V39.0279L37.443 38.4441C37.4861 38.401 37.5559 38.401 37.599 38.4441C37.642 38.4871 37.642 38.557 37.599 38.6L36.8592 39.3398V41.2331L38.2153 39.877C38.2583 39.834 38.3282 39.834 38.3712 39.877C38.4143 39.9201 38.4143 39.9899 38.3712 40.033L37.0156 41.3886H39.2411L39.9798 40.65C40.0228 40.6069 40.0927 40.6069 40.1357 40.65C40.1788 40.693 40.1788 40.7629 40.1357 40.8059L39.553 41.3886H40.3897C40.4506 41.3886 40.5 41.438 40.5 41.4989C40.5 41.5598 40.4506 41.6092 40.3897 41.6092H39.5509L40.1357 42.1941C40.1788 42.2372 40.1788 42.307 40.1357 42.35C40.0927 42.3931 40.0228 42.3931 39.9798 42.35L39.2389 41.6092H37.0167L38.3727 42.9653C38.4158 43.0083 38.4158 43.0782 38.3727 43.1212C38.3297 43.1643 38.2599 43.1643 38.2168 43.1212L36.8592 41.7637V43.7705L37.599 44.5103C37.642 44.5533 37.642 44.6231 37.599 44.6662C37.5559 44.7093 37.4861 44.7093 37.443 44.6662L36.8592 44.0824V45.1397C36.8592 45.2006 36.8098 45.25 36.7489 45.25C36.688 45.25 36.6386 45.2006 36.6386 45.1397V44.0824L36.0548 44.6662C36.0118 44.7093 35.942 44.7093 35.8989 44.6662C35.8558 44.6231 35.8558 44.5533 35.8989 44.5103L36.6386 43.7705V41.7656L35.283 43.1212C35.2399 43.1643 35.1701 43.1643 35.127 43.1212C35.084 43.0782 35.084 43.0083 35.127 42.9653L36.4831 41.6092H34.8104L34.0696 42.35C34.0265 42.3931 33.9567 42.3931 33.9136 42.35C33.8705 42.307 33.8705 42.2372 33.9136 42.1941L34.4984 41.6092H33.1103C33.0494 41.6092 33 41.5598 33 41.4989C33 41.438 33.0494 41.3886 33.1103 41.3886H34.4963L33.9136 40.8059C33.8705 40.7629 33.8705 40.693 33.9136 40.65C33.9567 40.6069 34.0265 40.6069 34.0696 40.65L34.8082 41.3886H36.484L35.1285 40.0332C35.0855 39.9901 35.0855 39.9201 35.1285 39.877C35.1716 39.834 35.2414 39.834 35.2845 39.877L36.6386 41.2312V39.3398L35.8989 38.6C35.8558 38.557 35.8558 38.4872 35.8989 38.4441C35.942 38.401 36.0118 38.401 36.0548 38.4441L36.6386 39.0279V37.8603C36.6386 37.7994 36.688 37.75 36.7489 37.75Z"/></clipPath><filter id="filter3_ddn_498_836" x="10" y="38.75" width="17.5" height="17.5" filterUnits="userSpaceOnUse" color-interpolation-filters="sRGB">
<feFlood flood-opacity="0" result="BackgroundImageFix"/>
<feColorMatrix in="SourceAlpha" type="matrix" values="0 0 0 0 0 0 0 0 0 0 0 0 0 0 0 0 0 0 127 0" result="hardAlpha"/>
<feOffset/>
<feGaussianBlur stdDeviation="2"/>
<feComposite in2="hardAlpha" operator="out"/>
<feColorMatrix type="matrix" values="0 0 0 0 1 0 0 0 0 1 0 0 0 0 1 0 0 0 0.25 0"/>
<feBlend mode="normal" in2="BackgroundImageFix" result="effect1_dropShadow_498_836"/>
<feColorMatrix in="SourceAlpha" type="matrix" values="0 0 0 0 0 0 0 0 0 0 0 0 0 0 0 0 0 0 127 0" result="hardAlpha"/>
<feOffset/>
<feGaussianBlur stdDeviation="2.5"/>
<feComposite in2="hardAlpha" operator="out"/>
<feColorMatrix type="matrix" values="0 0 0 0 1 0 0 0 0 1 0 0 0 0 1 0 0 0 0.25 0"/>
<feBlend mode="normal" in2="effect1_dropShadow_498_836" result="effect2_dropShadow_498_836"/>
<feBlend mode="normal" in="SourceGraphic" in2="BackgroundImageFix" result="shape"/>
<feTurbulence type="fractalNoise" baseFrequency="2 2" stitchTiles="stitch" numOctaves="3" result="noise" seed="4225" />
<feComponentTransfer in="noise" result="coloredNoise1">
<feFuncR type="linear" slope="2" intercept="-0.5" />
<feFuncG type="linear" slope="2" intercept="-0.5" />
<feFuncB type="linear" slope="2" intercept="-0.5" />
<feFuncA type="discrete" tableValues="1 1 1 1 1 1 1 1 1 1 1 1 1 1 1 1 1 1 1 1 1 1 1 1 1 1 1 1 1 1 1 1 1 1 1 1 1 1 1 1 1 1 1 1 1 1 1 1 1 1 1 0 0 0 0 0 0 0 0 0 0 0 0 0 0 0 0 0 0 0 0 0 0 0 0 0 0 0 0 0 0 0 0 0 0 0 0 0 0 0 0 0 0 0 0 0 0 0 0 0 "/>
</feComponentTransfer>
<feComposite operator="in" in2="shape" in="coloredNoise1" result="noise1Clipped" />
<feComponentTransfer in="noise1Clipped" result="color1">
<feFuncA type="table" tableValues="0 0.15" />
</feComponentTransfer>
<feMerge result="effect3_noise_498_836">
<feMergeNode in="shape" />
<feMergeNode in="color1" />
</feMerge>
<feBlend mode="normal" in="effect3_noise_498_836" in2="effect2_dropShadow_498_836" result="effect3_noise_498_836"/>
</filter>
<clipPath id="paint4_diamond_498_836_clip_path"><path d="M18.7489 43.75C18.8098 43.75 18.8592 43.7994 18.8592 43.8603V45.0279L19.443 44.4441C19.4861 44.401 19.5559 44.401 19.599 44.4441C19.642 44.4871 19.642 44.557 19.599 44.6L18.8592 45.3398V47.2331L20.2153 45.877C20.2583 45.834 20.3282 45.834 20.3712 45.877C20.4143 45.9201 20.4143 45.9899 20.3712 46.033L19.0156 47.3886H21.2411L21.9798 46.65C22.0228 46.6069 22.0927 46.6069 22.1357 46.65C22.1788 46.693 22.1788 46.7629 22.1357 46.8059L21.553 47.3886H22.3897C22.4506 47.3886 22.5 47.438 22.5 47.4989C22.5 47.5598 22.4506 47.6092 22.3897 47.6092H21.5509L22.1357 48.1941C22.1788 48.2372 22.1788 48.307 22.1357 48.35C22.0927 48.3931 22.0228 48.3931 21.9798 48.35L21.2389 47.6092H19.0167L20.3727 48.9653C20.4158 49.0083 20.4158 49.0782 20.3727 49.1212C20.3297 49.1643 20.2599 49.1643 20.2168 49.1212L18.8592 47.7637V49.7705L19.599 50.5103C19.642 50.5533 19.642 50.6231 19.599 50.6662C19.5559 50.7093 19.4861 50.7093 19.443 50.6662L18.8592 50.0824V51.1397C18.8592 51.2006 18.8098 51.25 18.7489 51.25C18.688 51.25 18.6386 51.2006 18.6386 51.1397V50.0824L18.0548 50.6662C18.0118 50.7093 17.942 50.7093 17.8989 50.6662C17.8558 50.6231 17.8558 50.5533 17.8989 50.5103L18.6386 49.7705V47.7656L17.283 49.1212C17.2399 49.1643 17.1701 49.1643 17.127 49.1212C17.084 49.0782 17.084 49.0083 17.127 48.9653L18.4831 47.6092H16.8104L16.0696 48.35C16.0265 48.3931 15.9567 48.3931 15.9136 48.35C15.8705 48.307 15.8705 48.2372 15.9136 48.1941L16.4984 47.6092H15.1103C15.0494 47.6092 15 47.5598 15 47.4989C15 47.438 15.0494 47.3886 15.1103 47.3886H16.4963L15.9136 46.8059C15.8705 46.7629 15.8705 46.693 15.9136 46.65C15.9567 46.6069 16.0265 46.6069 16.0696 46.65L16.8082 47.3886H18.484L17.1285 46.0332C17.0855 45.9901 17.0855 45.9201 17.1285 45.877C17.1716 45.834 17.2414 45.834 17.2845 45.877L18.6386 47.2312V45.3398L17.8989 44.6C17.8558 44.557 17.8558 44.4872 17.8989 44.4441C17.942 44.401 18.0118 44.401 18.0548 44.4441L18.6386 45.0279V43.8603C18.6386 43.7994 18.688 43.75 18.7489 43.75Z"/></clipPath><filter id="filter4_ddn_498_836" x="32.5" y="38.75" width="17.5" height="17.5" filterUnits="userSpaceOnUse" color-interpolation-filters="sRGB">
<feFlood flood-opacity="0" result="BackgroundImageFix"/>
<feColorMatrix in="SourceAlpha" type="matrix" values="0 0 0 0 0 0 0 0 0 0 0 0 0 0 0 0 0 0 127 0" result="hardAlpha"/>
<feOffset/>
<feGaussianBlur stdDeviation="2"/>
<feComposite in2="hardAlpha" operator="out"/>
<feColorMatrix type="matrix" values="0 0 0 0 1 0 0 0 0 1 0 0 0 0 1 0 0 0 0.25 0"/>
<feBlend mode="normal" in2="BackgroundImageFix" result="effect1_dropShadow_498_836"/>
<feColorMatrix in="SourceAlpha" type="matrix" values="0 0 0 0 0 0 0 0 0 0 0 0 0 0 0 0 0 0 127 0" result="hardAlpha"/>
<feOffset/>
<feGaussianBlur stdDeviation="2.5"/>
<feComposite in2="hardAlpha" operator="out"/>
<feColorMatrix type="matrix" values="0 0 0 0 1 0 0 0 0 1 0 0 0 0 1 0 0 0 0.25 0"/>
<feBlend mode="normal" in2="effect1_dropShadow_498_836" result="effect2_dropShadow_498_836"/>
<feBlend mode="normal" in="SourceGraphic" in2="BackgroundImageFix" result="shape"/>
<feTurbulence type="fractalNoise" baseFrequency="2 2" stitchTiles="stitch" numOctaves="3" result="noise" seed="4225" />
<feComponentTransfer in="noise" result="coloredNoise1">
<feFuncR type="linear" slope="2" intercept="-0.5" />
<feFuncG type="linear" slope="2" intercept="-0.5" />
<feFuncB type="linear" slope="2" intercept="-0.5" />
<feFuncA type="discrete" tableValues="1 1 1 1 1 1 1 1 1 1 1 1 1 1 1 1 1 1 1 1 1 1 1 1 1 1 1 1 1 1 1 1 1 1 1 1 1 1 1 1 1 1 1 1 1 1 1 1 1 1 1 0 0 0 0 0 0 0 0 0 0 0 0 0 0 0 0 0 0 0 0 0 0 0 0 0 0 0 0 0 0 0 0 0 0 0 0 0 0 0 0 0 0 0 0 0 0 0 0 0 "/>
</feComponentTransfer>
<feComposite operator="in" in2="shape" in="coloredNoise1" result="noise1Clipped" />
<feComponentTransfer in="noise1Clipped" result="color1">
<feFuncA type="table" tableValues="0 0.15" />
</feComponentTransfer>
<feMerge result="effect3_noise_498_836">
<feMergeNode in="shape" />
<feMergeNode in="color1" />
</feMerge>
<feBlend mode="normal" in="effect3_noise_498_836" in2="effect2_dropShadow_498_836" result="effect3_noise_498_836"/>
</filter>
<clipPath id="paint5_diamond_498_836_clip_path"><path d="M41.2489 43.75C41.3098 43.75 41.3592 43.7994 41.3592 43.8603V45.0279L41.943 44.4441C41.9861 44.401 42.0559 44.401 42.099 44.4441C42.142 44.4871 42.142 44.557 42.099 44.6L41.3592 45.3398V47.2331L42.7153 45.877C42.7583 45.834 42.8282 45.834 42.8712 45.877C42.9143 45.9201 42.9143 45.9899 42.8712 46.033L41.5156 47.3886H43.7411L44.4798 46.65C44.5228 46.6069 44.5927 46.6069 44.6357 46.65C44.6788 46.693 44.6788 46.7629 44.6357 46.8059L44.053 47.3886H44.8897C44.9506 47.3886 45 47.438 45 47.4989C45 47.5598 44.9506 47.6092 44.8897 47.6092H44.0509L44.6357 48.1941C44.6788 48.2372 44.6788 48.307 44.6357 48.35C44.5927 48.3931 44.5228 48.3931 44.4798 48.35L43.7389 47.6092H41.5167L42.8727 48.9653C42.9158 49.0083 42.9158 49.0782 42.8727 49.1212C42.8297 49.1643 42.7599 49.1643 42.7168 49.1212L41.3592 47.7637V49.7705L42.099 50.5103C42.142 50.5533 42.142 50.6231 42.099 50.6662C42.0559 50.7093 41.9861 50.7093 41.943 50.6662L41.3592 50.0824V51.1397C41.3592 51.2006 41.3098 51.25 41.2489 51.25C41.188 51.25 41.1386 51.2006 41.1386 51.1397V50.0824L40.5548 50.6662C40.5118 50.7093 40.442 50.7093 40.3989 50.6662C40.3558 50.6231 40.3558 50.5533 40.3989 50.5103L41.1386 49.7705V47.7656L39.783 49.1212C39.7399 49.1643 39.6701 49.1643 39.627 49.1212C39.584 49.0782 39.584 49.0083 39.627 48.9653L40.9831 47.6092H39.3104L38.5696 48.35C38.5265 48.3931 38.4567 48.3931 38.4136 48.35C38.3705 48.307 38.3705 48.2372 38.4136 48.1941L38.9984 47.6092H37.6103C37.5494 47.6092 37.5 47.5598 37.5 47.4989C37.5 47.438 37.5494 47.3886 37.6103 47.3886H38.9963L38.4136 46.8059C38.3705 46.7629 38.3705 46.693 38.4136 46.65C38.4567 46.6069 38.5265 46.6069 38.5696 46.65L39.3082 47.3886H40.984L39.6285 46.0332C39.5855 45.9901 39.5855 45.9201 39.6285 45.877C39.6716 45.834 39.7414 45.834 39.7845 45.877L41.1386 47.2312V45.3398L40.3989 44.6C40.3558 44.557 40.3558 44.4872 40.3989 44.4441C40.442 44.401 40.5118 44.401 40.5548 44.4441L41.1386 45.0279V43.8603C41.1386 43.7994 41.188 43.75 41.2489 43.75Z"/></clipPath><filter id="filter5_ddn_498_836" x="19" y="34.75" width="17.5" height="17.5" filterUnits="userSpaceOnUse" color-interpolation-filters="sRGB">
<feFlood flood-opacity="0" result="BackgroundImageFix"/>
<feColorMatrix in="SourceAlpha" type="matrix" values="0 0 0 0 0 0 0 0 0 0 0 0 0 0 0 0 0 0 127 0" result="hardAlpha"/>
<feOffset/>
<feGaussianBlur stdDeviation="2"/>
<feComposite in2="hardAlpha" operator="out"/>
<feColorMatrix type="matrix" values="0 0 0 0 1 0 0 0 0 1 0 0 0 0 1 0 0 0 0.25 0"/>
<feBlend mode="normal" in2="BackgroundImageFix" result="effect1_dropShadow_498_836"/>
<feColorMatrix in="SourceAlpha" type="matrix" values="0 0 0 0 0 0 0 0 0 0 0 0 0 0 0 0 0 0 127 0" result="hardAlpha"/>
<feOffset/>
<feGaussianBlur stdDeviation="2.5"/>
<feComposite in2="hardAlpha" operator="out"/>
<feColorMatrix type="matrix" values="0 0 0 0 1 0 0 0 0 1 0 0 0 0 1 0 0 0 0.25 0"/>
<feBlend mode="normal" in2="effect1_dropShadow_498_836" result="effect2_dropShadow_498_836"/>
<feBlend mode="normal" in="SourceGraphic" in2="BackgroundImageFix" result="shape"/>
<feTurbulence type="fractalNoise" baseFrequency="2 2" stitchTiles="stitch" numOctaves="3" result="noise" seed="4225" />
<feComponentTransfer in="noise" result="coloredNoise1">
<feFuncR type="linear" slope="2" intercept="-0.5" />
<feFuncG type="linear" slope="2" intercept="-0.5" />
<feFuncB type="linear" slope="2" intercept="-0.5" />
<feFuncA type="discrete" tableValues="1 1 1 1 1 1 1 1 1 1 1 1 1 1 1 1 1 1 1 1 1 1 1 1 1 1 1 1 1 1 1 1 1 1 1 1 1 1 1 1 1 1 1 1 1 1 1 1 1 1 1 0 0 0 0 0 0 0 0 0 0 0 0 0 0 0 0 0 0 0 0 0 0 0 0 0 0 0 0 0 0 0 0 0 0 0 0 0 0 0 0 0 0 0 0 0 0 0 0 0 "/>
</feComponentTransfer>
<feComposite operator="in" in2="shape" in="coloredNoise1" result="noise1Clipped" />
<feComponentTransfer in="noise1Clipped" result="color1">
<feFuncA type="table" tableValues="0 0.15" />
</feComponentTransfer>
<feMerge result="effect3_noise_498_836">
<feMergeNode in="shape" />
<feMergeNode in="color1" />
</feMerge>
<feBlend mode="normal" in="effect3_noise_498_836" in2="effect2_dropShadow_498_836" result="effect3_noise_498_836"/>
</filter>
<clipPath id="paint6_diamond_498_836_clip_path"><path d="M27.7489 39.75C27.8098 39.75 27.8592 39.7994 27.8592 39.8603V41.0279L28.443 40.4441C28.4861 40.401 28.5559 40.401 28.599 40.4441C28.642 40.4871 28.642 40.557 28.599 40.6L27.8592 41.3398V43.2331L29.2153 41.877C29.2583 41.834 29.3282 41.834 29.3712 41.877C29.4143 41.9201 29.4143 41.9899 29.3712 42.033L28.0156 43.3886H30.2411L30.9798 42.65C31.0228 42.6069 31.0927 42.6069 31.1357 42.65C31.1788 42.693 31.1788 42.7629 31.1357 42.8059L30.553 43.3886H31.3897C31.4506 43.3886 31.5 43.438 31.5 43.4989C31.5 43.5598 31.4506 43.6092 31.3897 43.6092H30.5509L31.1357 44.1941C31.1788 44.2372 31.1788 44.307 31.1357 44.35C31.0927 44.3931 31.0228 44.3931 30.9798 44.35L30.2389 43.6092H28.0167L29.3727 44.9653C29.4158 45.0083 29.4158 45.0782 29.3727 45.1212C29.3297 45.1643 29.2599 45.1643 29.2168 45.1212L27.8592 43.7637V45.7705L28.599 46.5103C28.642 46.5533 28.642 46.6231 28.599 46.6662C28.5559 46.7093 28.4861 46.7093 28.443 46.6662L27.8592 46.0824V47.1397C27.8592 47.2006 27.8098 47.25 27.7489 47.25C27.688 47.25 27.6386 47.2006 27.6386 47.1397V46.0824L27.0548 46.6662C27.0118 46.7093 26.942 46.7093 26.8989 46.6662C26.8558 46.6231 26.8558 46.5533 26.8989 46.5103L27.6386 45.7705V43.7656L26.283 45.1212C26.2399 45.1643 26.1701 45.1643 26.127 45.1212C26.084 45.0782 26.084 45.0083 26.127 44.9653L27.4831 43.6092H25.8104L25.0696 44.35C25.0265 44.3931 24.9567 44.3931 24.9136 44.35C24.8705 44.307 24.8705 44.2372 24.9136 44.1941L25.4984 43.6092H24.1103C24.0494 43.6092 24 43.5598 24 43.4989C24 43.438 24.0494 43.3886 24.1103 43.3886H25.4963L24.9136 42.8059C24.8705 42.7629 24.8705 42.693 24.9136 42.65C24.9567 42.6069 25.0265 42.6069 25.0696 42.65L25.8082 43.3886H27.484L26.1285 42.0332C26.0855 41.9901 26.0855 41.9201 26.1285 41.877C26.1716 41.834 26.2414 41.834 26.2845 41.877L27.6386 43.2312V41.3398L26.8989 40.6C26.8558 40.557 26.8558 40.4872 26.8989 40.4441C26.942 40.401 27.0118 40.401 27.0548 40.4441L27.6386 41.0279V39.8603C27.6386 39.7994 27.688 39.75 27.7489 39.75Z"/></clipPath><filter id="filter6_ddn_498_836" x="40" y="34.75" width="17.5" height="17.5" filterUnits="userSpaceOnUse" color-interpolation-filters="sRGB">
<feFlood flood-opacity="0" result="BackgroundImageFix"/>
<feColorMatrix in="SourceAlpha" type="matrix" values="0 0 0 0 0 0 0 0 0 0 0 0 0 0 0 0 0 0 127 0" result="hardAlpha"/>
<feOffset/>
<feGaussianBlur stdDeviation="2"/>
<feComposite in2="hardAlpha" operator="out"/>
<feColorMatrix type="matrix" values="0 0 0 0 1 0 0 0 0 1 0 0 0 0 1 0 0 0 0.25 0"/>
<feBlend mode="normal" in2="BackgroundImageFix" result="effect1_dropShadow_498_836"/>
<feColorMatrix in="SourceAlpha" type="matrix" values="0 0 0 0 0 0 0 0 0 0 0 0 0 0 0 0 0 0 127 0" result="hardAlpha"/>
<feOffset/>
<feGaussianBlur stdDeviation="2.5"/>
<feComposite in2="hardAlpha" operator="out"/>
<feColorMatrix type="matrix" values="0 0 0 0 1 0 0 0 0 1 0 0 0 0 1 0 0 0 0.25 0"/>
<feBlend mode="normal" in2="effect1_dropShadow_498_836" result="effect2_dropShadow_498_836"/>
<feBlend mode="normal" in="SourceGraphic" in2="BackgroundImageFix" result="shape"/>
<feTurbulence type="fractalNoise" baseFrequency="2 2" stitchTiles="stitch" numOctaves="3" result="noise" seed="4225" />
<feComponentTransfer in="noise" result="coloredNoise1">
<feFuncR type="linear" slope="2" intercept="-0.5" />
<feFuncG type="linear" slope="2" intercept="-0.5" />
<feFuncB type="linear" slope="2" intercept="-0.5" />
<feFuncA type="discrete" tableValues="1 1 1 1 1 1 1 1 1 1 1 1 1 1 1 1 1 1 1 1 1 1 1 1 1 1 1 1 1 1 1 1 1 1 1 1 1 1 1 1 1 1 1 1 1 1 1 1 1 1 1 0 0 0 0 0 0 0 0 0 0 0 0 0 0 0 0 0 0 0 0 0 0 0 0 0 0 0 0 0 0 0 0 0 0 0 0 0 0 0 0 0 0 0 0 0 0 0 0 0 "/>
</feComponentTransfer>
<feComposite operator="in" in2="shape" in="coloredNoise1" result="noise1Clipped" />
<feComponentTransfer in="noise1Clipped" result="color1">
<feFuncA type="table" tableValues="0 0.15" />
</feComponentTransfer>
<feMerge result="effect3_noise_498_836">
<feMergeNode in="shape" />
<feMergeNode in="color1" />
</feMerge>
<feBlend mode="normal" in="effect3_noise_498_836" in2="effect2_dropShadow_498_836" result="effect3_noise_498_836"/>
</filter>
<clipPath id="paint7_diamond_498_836_clip_path"><path d="M48.7489 39.75C48.8098 39.75 48.8592 39.7994 48.8592 39.8603V41.0279L49.443 40.4441C49.4861 40.401 49.5559 40.401 49.599 40.4441C49.642 40.4871 49.642 40.557 49.599 40.6L48.8592 41.3398V43.2331L50.2153 41.877C50.2583 41.834 50.3282 41.834 50.3712 41.877C50.4143 41.9201 50.4143 41.9899 50.3712 42.033L49.0156 43.3886H51.2411L51.9798 42.65C52.0228 42.6069 52.0927 42.6069 52.1357 42.65C52.1788 42.693 52.1788 42.7629 52.1357 42.8059L51.553 43.3886H52.3897C52.4506 43.3886 52.5 43.438 52.5 43.4989C52.5 43.5598 52.4506 43.6092 52.3897 43.6092H51.5509L52.1357 44.1941C52.1788 44.2372 52.1788 44.307 52.1357 44.35C52.0927 44.3931 52.0228 44.3931 51.9798 44.35L51.2389 43.6092H49.0167L50.3727 44.9653C50.4158 45.0083 50.4158 45.0782 50.3727 45.1212C50.3297 45.1643 50.2599 45.1643 50.2168 45.1212L48.8592 43.7637V45.7705L49.599 46.5103C49.642 46.5533 49.642 46.6231 49.599 46.6662C49.5559 46.7093 49.4861 46.7093 49.443 46.6662L48.8592 46.0824V47.1397C48.8592 47.2006 48.8098 47.25 48.7489 47.25C48.688 47.25 48.6386 47.2006 48.6386 47.1397V46.0824L48.0548 46.6662C48.0118 46.7093 47.942 46.7093 47.8989 46.6662C47.8558 46.6231 47.8558 46.5533 47.8989 46.5103L48.6386 45.7705V43.7656L47.283 45.1212C47.2399 45.1643 47.1701 45.1643 47.127 45.1212C47.084 45.0782 47.084 45.0083 47.127 44.9653L48.4831 43.6092H46.8104L46.0696 44.35C46.0265 44.3931 45.9567 44.3931 45.9136 44.35C45.8705 44.307 45.8705 44.2372 45.9136 44.1941L46.4984 43.6092H45.1103C45.0494 43.6092 45 43.5598 45 43.4989C45 43.438 45.0494 43.3886 45.1103 43.3886H46.4963L45.9136 42.8059C45.8705 42.7629 45.8705 42.693 45.9136 42.65C45.9567 42.6069 46.0265 42.6069 46.0696 42.65L46.8082 43.3886H48.484L47.1285 42.0332C47.0855 41.9901 47.0855 41.9201 47.1285 41.877C47.1716 41.834 47.2414 41.834 47.2845 41.877L48.6386 43.2312V41.3398L47.8989 40.6C47.8558 40.557 47.8558 40.4872 47.8989 40.4441C47.942 40.401 48.0118 40.401 48.0548 40.4441L48.6386 41.0279V39.8603C48.6386 39.7994 48.688 39.75 48.7489 39.75Z"/></clipPath><linearGradient id="paint0_linear_498_836" x1="30.7443" y1="4.5" x2="30.7443" y2="35.2663" gradientUnits="userSpaceOnUse">
<stop stop-color="white"/>
<stop offset="1" stop-color="#C1D6E5"/>
</linearGradient>
<linearGradient id="paint1_linear_498_836" x1="30.7461" y1="4.5" x2="33.0591" y2="35.7625" gradientUnits="userSpaceOnUse">
<stop offset="0.547017" stop-color="white" stop-opacity="0"/>
<stop offset="1" stop-color="#C1D6E5"/>
</linearGradient>
<linearGradient id="paint2_diamond_498_836" x1="0" y1="0" x2="500" y2="500" gradientUnits="userSpaceOnUse">
<stop stop-color="#1AA0FF"/>
<stop offset="0.514423" stop-color="#CDE3FF"/>
<stop offset="1" stop-color="white"/>
</linearGradient>
<linearGradient id="paint3_diamond_498_836" x1="0" y1="0" x2="500" y2="500" gradientUnits="userSpaceOnUse">
<stop stop-color="#1AA0FF"/>
<stop offset="0.514423" stop-color="#CDE3FF"/>
<stop offset="1" stop-color="white"/>
</linearGradient>
<linearGradient id="paint4_diamond_498_836" x1="0" y1="0" x2="500" y2="500" gradientUnits="userSpaceOnUse">
<stop stop-color="#1AA0FF"/>
<stop offset="0.514423" stop-color="#CDE3FF"/>
<stop offset="1" stop-color="white"/>
</linearGradient>
<linearGradient id="paint5_diamond_498_836" x1="0" y1="0" x2="500" y2="500" gradientUnits="userSpaceOnUse">
<stop stop-color="#1AA0FF"/>
<stop offset="0.514423" stop-color="#CDE3FF"/>
<stop offset="1" stop-color="white"/>
</linearGradient>
<linearGradient id="paint6_diamond_498_836" x1="0" y1="0" x2="500" y2="500" gradientUnits="userSpaceOnUse">
<stop stop-color="#1AA0FF"/>
<stop offset="0.514423" stop-color="#CDE3FF"/>
<stop offset="1" stop-color="white"/>
</linearGradient>
<linearGradient id="paint7_diamond_498_836" x1="0" y1="0" x2="500" y2="500" gradientUnits="userSpaceOnUse">
<stop stop-color="#1AA0FF"/>
<stop offset="0.514423" stop-color="#CDE3FF"/>
<stop offset="1" stop-color="white"/>
</linearGradient>
</defs>
</svg>
