<svg width="60" height="60" viewBox="0 0 60 60" fill="none" xmlns="http://www.w3.org/2000/svg">
<path d="M45.1726 39.3399C32.3051 39.3399 14.8784 40.3853 9.36666 39.3399C3.85491 38.2945 1.34734 31.9899 3.19134 27.3555C4.72342 23.505 9.78017 20.9808 13.8424 21.9964C13.8424 14.1638 22.2342 13.6043 25.5912 16.4017C30.6262 5.77175 45.1726 11.3664 45.1726 19.7585C56.9212 19.7585 58.0402 39.3399 45.1726 39.3399Z" fill="url(#paint0_linear_498_834)"/>
<g filter="url(#filter0_n_498_834)">
<path d="M45.2219 39.8045C32.3164 39.8045 14.8381 40.3853 9.31004 39.3399C3.78199 38.2945 1.267 31.9899 3.11646 27.3555C4.65307 23.505 9.72477 20.9808 13.799 21.9964C13.799 14.1638 22.2156 13.6043 25.5826 16.4017C30.6325 5.77175 45.2219 11.3664 45.2219 19.7585C57.0053 19.7585 58.1275 39.8045 45.2219 39.8045Z" fill="url(#paint1_linear_498_834)"/>
</g>
<path d="M30.8847 42.3933C39.4631 42.3933 51.0809 43.0902 54.7554 42.3933C58.4299 41.6963 60.1016 37.4933 58.8723 34.4037C57.8509 31.8367 54.4797 30.1539 51.7716 30.8309C51.7716 25.6092 46.1771 25.2362 43.939 27.1011C40.5824 20.0145 30.8847 23.7443 30.8847 29.339C23.0524 29.339 22.3064 42.3933 30.8847 42.3933Z" fill="url(#paint2_linear_498_834)"/>
<g filter="url(#filter1_n_498_834)">
<path d="M30.852 42.703C39.4558 42.703 51.1079 43.0902 54.7933 42.3933C58.4787 41.6963 60.1553 37.4933 58.9224 34.4037C57.898 31.8367 54.5168 30.1539 51.8006 30.8309C51.8006 25.6092 46.1896 25.2362 43.9449 27.1011C40.5783 20.0145 30.852 23.7443 30.852 29.339C22.9965 29.339 22.2483 42.703 30.852 42.703Z" fill="url(#paint3_linear_498_834)"/>
</g>
<g filter="url(#filter2_ddn_498_834)">
<path d="M9.17033 42.2791L18.5047 31.7263C18.9802 31.1888 19.839 31.69 19.6251 32.3803L17.2647 39.9993C17.1477 40.377 17.3742 40.7757 17.7538 40.8601L23.4798 42.1342C23.9988 42.2497 24.1786 42.9109 23.792 43.2824L12.8327 53.8125C12.3253 54.3001 11.5192 53.7576 11.7596 53.0902L14.3813 45.8101C14.5091 45.4552 14.3253 45.0625 13.9743 44.9405L9.44779 43.3677C8.99877 43.2117 8.85262 42.6383 9.17033 42.2791Z" fill="url(#paint4_radial_498_834)"/>
</g>
<defs>
<filter id="filter0_n_498_834" x="2.51514" y="10.5714" width="51.9697" height="29.394" filterUnits="userSpaceOnUse" color-interpolation-filters="sRGB">
<feFlood flood-opacity="0" result="BackgroundImageFix"/>
<feBlend mode="normal" in="SourceGraphic" in2="BackgroundImageFix" result="shape"/>
<feTurbulence type="fractalNoise" baseFrequency="2 2" stitchTiles="stitch" numOctaves="3" result="noise" seed="6437" />
<feComponentTransfer in="noise" result="coloredNoise1">
<feFuncR type="linear" slope="2" intercept="-0.5" />
<feFuncG type="linear" slope="2" intercept="-0.5" />
<feFuncB type="linear" slope="2" intercept="-0.5" />
<feFuncA type="discrete" tableValues="1 1 1 1 1 1 1 1 1 1 1 1 1 1 1 1 1 1 1 1 1 1 1 1 1 1 1 1 1 1 1 1 1 1 1 1 1 1 1 1 1 1 1 1 1 1 1 1 1 1 1 0 0 0 0 0 0 0 0 0 0 0 0 0 0 0 0 0 0 0 0 0 0 0 0 0 0 0 0 0 0 0 0 0 0 0 0 0 0 0 0 0 0 0 0 0 0 0 0 0 "/>
</feComponentTransfer>
<feComposite operator="in" in2="shape" in="coloredNoise1" result="noise1Clipped" />
<feComponentTransfer in="noise1Clipped" result="color1">
<feFuncA type="table" tableValues="0 0.15" />
</feComponentTransfer>
<feMerge result="effect1_noise_498_834">
<feMergeNode in="shape" />
<feMergeNode in="color1" />
</feMerge>
</filter>
<filter id="filter1_n_498_834" x="24.6768" y="23.2143" width="34.6465" height="19.5959" filterUnits="userSpaceOnUse" color-interpolation-filters="sRGB">
<feFlood flood-opacity="0" result="BackgroundImageFix"/>
<feBlend mode="normal" in="SourceGraphic" in2="BackgroundImageFix" result="shape"/>
<feTurbulence type="fractalNoise" baseFrequency="2 2" stitchTiles="stitch" numOctaves="3" result="noise" seed="6437" />
<feComponentTransfer in="noise" result="coloredNoise1">
<feFuncR type="linear" slope="2" intercept="-0.5" />
<feFuncG type="linear" slope="2" intercept="-0.5" />
<feFuncB type="linear" slope="2" intercept="-0.5" />
<feFuncA type="discrete" tableValues="1 1 1 1 1 1 1 1 1 1 1 1 1 1 1 1 1 1 1 1 1 1 1 1 1 1 1 1 1 1 1 1 1 1 1 1 1 1 1 1 1 1 1 1 1 1 1 1 1 1 1 0 0 0 0 0 0 0 0 0 0 0 0 0 0 0 0 0 0 0 0 0 0 0 0 0 0 0 0 0 0 0 0 0 0 0 0 0 0 0 0 0 0 0 0 0 0 0 0 0 "/>
</feComponentTransfer>
<feComposite operator="in" in2="shape" in="coloredNoise1" result="noise1Clipped" />
<feComponentTransfer in="noise1Clipped" result="color1">
<feFuncA type="table" tableValues="0 0.15" />
</feComponentTransfer>
<feMerge result="effect1_noise_498_834">
<feMergeNode in="shape" />
<feMergeNode in="color1" />
</feMerge>
</filter>
<filter id="filter2_ddn_498_834" x="5" y="27.5" width="23" height="30.5" filterUnits="userSpaceOnUse" color-interpolation-filters="sRGB">
<feFlood flood-opacity="0" result="BackgroundImageFix"/>
<feColorMatrix in="SourceAlpha" type="matrix" values="0 0 0 0 0 0 0 0 0 0 0 0 0 0 0 0 0 0 127 0" result="hardAlpha"/>
<feMorphology radius="1" operator="dilate" in="SourceAlpha" result="effect1_dropShadow_498_834"/>
<feOffset/>
<feGaussianBlur stdDeviation="1.5"/>
<feComposite in2="hardAlpha" operator="out"/>
<feColorMatrix type="matrix" values="0 0 0 0 1 0 0 0 0 0.478431 0 0 0 0 0.00392157 0 0 0 0.4 0"/>
<feBlend mode="normal" in2="BackgroundImageFix" result="effect1_dropShadow_498_834"/>
<feColorMatrix in="SourceAlpha" type="matrix" values="0 0 0 0 0 0 0 0 0 0 0 0 0 0 0 0 0 0 127 0" result="hardAlpha"/>
<feMorphology radius="1" operator="dilate" in="SourceAlpha" result="effect2_dropShadow_498_834"/>
<feOffset/>
<feGaussianBlur stdDeviation="0.5"/>
<feComposite in2="hardAlpha" operator="out"/>
<feColorMatrix type="matrix" values="0 0 0 0 1 0 0 0 0 1 0 0 0 0 1 0 0 0 0.1 0"/>
<feBlend mode="normal" in2="effect1_dropShadow_498_834" result="effect2_dropShadow_498_834"/>
<feBlend mode="normal" in="SourceGraphic" in2="BackgroundImageFix" result="shape"/>
<feTurbulence type="fractalNoise" baseFrequency="2 2" stitchTiles="stitch" numOctaves="3" result="noise" seed="5906" />
<feComponentTransfer in="noise" result="coloredNoise1">
<feFuncR type="linear" slope="2" intercept="-0.5" />
<feFuncG type="linear" slope="2" intercept="-0.5" />
<feFuncB type="linear" slope="2" intercept="-0.5" />
<feFuncA type="discrete" tableValues="1 1 1 1 1 1 1 1 1 1 1 1 1 1 1 1 1 1 1 1 1 1 1 1 1 1 1 1 1 1 1 1 1 1 1 1 1 1 1 1 1 1 1 1 1 1 1 1 1 1 1 0 0 0 0 0 0 0 0 0 0 0 0 0 0 0 0 0 0 0 0 0 0 0 0 0 0 0 0 0 0 0 0 0 0 0 0 0 0 0 0 0 0 0 0 0 0 0 0 0 "/>
</feComponentTransfer>
<feComposite operator="in" in2="shape" in="coloredNoise1" result="noise1Clipped" />
<feComponentTransfer in="noise1Clipped" result="color1">
<feFuncA type="table" tableValues="0 0.15" />
</feComponentTransfer>
<feMerge result="effect3_noise_498_834">
<feMergeNode in="shape" />
<feMergeNode in="color1" />
</feMerge>
<feBlend mode="normal" in="effect3_noise_498_834" in2="effect2_dropShadow_498_834" result="effect3_noise_498_834"/>
</filter>
<linearGradient id="paint0_linear_498_834" x1="29.0792" y1="10.5714" x2="29.0792" y2="39.3399" gradientUnits="userSpaceOnUse">
<stop stop-color="#D7D7D7"/>
<stop offset="1" stop-color="#677C8B"/>
</linearGradient>
<linearGradient id="paint1_linear_498_834" x1="29.9028" y1="10.5714" x2="29.2015" y2="40.026" gradientUnits="userSpaceOnUse">
<stop offset="0.482539" stop-color="#D7D7D7" stop-opacity="0"/>
<stop offset="1" stop-color="#677C8B"/>
</linearGradient>
<linearGradient id="paint2_linear_498_834" x1="41.6137" y1="23.2143" x2="41.6137" y2="42.3933" gradientUnits="userSpaceOnUse">
<stop stop-color="#D7D7D7"/>
<stop offset="1" stop-color="#677C8B"/>
</linearGradient>
<linearGradient id="paint3_linear_498_834" x1="41.0648" y1="23.2143" x2="41.5324" y2="42.8507" gradientUnits="userSpaceOnUse">
<stop offset="0.482539" stop-color="#D7D7D7" stop-opacity="0"/>
<stop offset="1" stop-color="#677C8B"/>
</linearGradient>
<radialGradient id="paint4_radial_498_834" cx="0" cy="0" r="1" gradientTransform="matrix(7.3502 6.75507 -4.39089 9.20699 12.2784 40.2079)" gradientUnits="userSpaceOnUse">
<stop stop-color="#FFB434"/>
<stop offset="1" stop-color="#FFA307"/>
</radialGradient>
</defs>
</svg>
