<svg width="60" height="60" viewBox="0 0 60 60" fill="none" xmlns="http://www.w3.org/2000/svg">
<path d="M46.6726 39.3399C33.8051 39.3399 16.3784 40.3853 10.8667 39.3399C5.35491 38.2945 2.84734 31.9899 4.69134 27.3555C6.22342 23.505 11.2802 20.9808 15.3424 21.9964C15.3424 14.1638 23.7342 13.6043 27.0912 16.4017C32.1262 5.77175 46.6726 11.3664 46.6726 19.7585C58.4212 19.7585 59.5402 39.3399 46.6726 39.3399Z" fill="url(#paint0_linear_498_833)"/>
<g filter="url(#filter0_n_498_833)">
<path d="M46.7219 39.8045C33.8164 39.8045 16.3381 40.3853 10.81 39.3399C5.28199 38.2945 2.767 31.9899 4.61646 27.3555C6.15307 23.505 11.2248 20.9808 15.299 21.9964C15.299 14.1638 23.7156 13.6043 27.0826 16.4017C32.1325 5.77175 46.7219 11.3664 46.7219 19.7585C58.5053 19.7585 59.6275 39.8045 46.7219 39.8045Z" fill="url(#paint1_linear_498_833)"/>
</g>
<g filter="url(#filter1_ddn_498_833)">
<path d="M9.17033 42.2791L18.5047 31.7263C18.9802 31.1888 19.839 31.69 19.6251 32.3803L17.2647 39.9993C17.1477 40.377 17.3742 40.7757 17.7538 40.8601L23.4798 42.1342C23.9988 42.2497 24.1786 42.9109 23.792 43.2824L12.8327 53.8125C12.3253 54.3001 11.5192 53.7576 11.7596 53.0902L14.3813 45.8101C14.5091 45.4552 14.3253 45.0625 13.9743 44.9405L9.44779 43.3677C8.99877 43.2117 8.85262 42.6383 9.17033 42.2791Z" fill="url(#paint2_radial_498_833)"/>
</g>
<path d="M40.1125 42.3882C38.6309 43.5442 36.3237 46.0318 38.9478 46.7349C41.5719 47.438 40.8176 44.1301 40.1125 42.3882Z" fill="url(#paint3_linear_498_833)"/>
<path d="M35.6125 49.8882C34.1309 51.0442 31.8237 53.5318 34.4478 54.2349C37.0719 54.938 36.3176 51.6301 35.6125 49.8882Z" fill="url(#paint4_linear_498_833)"/>
<path d="M43.1134 49.8882C41.6318 51.0442 39.3247 53.5318 41.9488 54.2349C44.5728 54.938 43.8186 51.6301 43.1134 49.8882Z" fill="url(#paint5_linear_498_833)"/>
<path d="M47.6134 43.8882C46.1318 45.0442 43.8247 47.5318 46.4488 48.2349C49.0728 48.938 48.3186 45.6301 47.6134 43.8882Z" fill="url(#paint6_linear_498_833)"/>
<path d="M32.6134 43.8882C31.1318 45.0442 28.8247 47.5318 31.4488 48.2349C34.0728 48.938 33.3186 45.6301 32.6134 43.8882Z" fill="url(#paint7_linear_498_833)"/>
<defs>
<filter id="filter0_n_498_833" x="4.01514" y="10.5714" width="51.9697" height="29.394" filterUnits="userSpaceOnUse" color-interpolation-filters="sRGB">
<feFlood flood-opacity="0" result="BackgroundImageFix"/>
<feBlend mode="normal" in="SourceGraphic" in2="BackgroundImageFix" result="shape"/>
<feTurbulence type="fractalNoise" baseFrequency="2 2" stitchTiles="stitch" numOctaves="3" result="noise" seed="6437" />
<feComponentTransfer in="noise" result="coloredNoise1">
<feFuncR type="linear" slope="2" intercept="-0.5" />
<feFuncG type="linear" slope="2" intercept="-0.5" />
<feFuncB type="linear" slope="2" intercept="-0.5" />
<feFuncA type="discrete" tableValues="1 1 1 1 1 1 1 1 1 1 1 1 1 1 1 1 1 1 1 1 1 1 1 1 1 1 1 1 1 1 1 1 1 1 1 1 1 1 1 1 1 1 1 1 1 1 1 1 1 1 1 0 0 0 0 0 0 0 0 0 0 0 0 0 0 0 0 0 0 0 0 0 0 0 0 0 0 0 0 0 0 0 0 0 0 0 0 0 0 0 0 0 0 0 0 0 0 0 0 0 "/>
</feComponentTransfer>
<feComposite operator="in" in2="shape" in="coloredNoise1" result="noise1Clipped" />
<feComponentTransfer in="noise1Clipped" result="color1">
<feFuncA type="table" tableValues="0 0.15" />
</feComponentTransfer>
<feMerge result="effect1_noise_498_833">
<feMergeNode in="shape" />
<feMergeNode in="color1" />
</feMerge>
</filter>
<filter id="filter1_ddn_498_833" x="5" y="27.5" width="23" height="30.5" filterUnits="userSpaceOnUse" color-interpolation-filters="sRGB">
<feFlood flood-opacity="0" result="BackgroundImageFix"/>
<feColorMatrix in="SourceAlpha" type="matrix" values="0 0 0 0 0 0 0 0 0 0 0 0 0 0 0 0 0 0 127 0" result="hardAlpha"/>
<feMorphology radius="1" operator="dilate" in="SourceAlpha" result="effect1_dropShadow_498_833"/>
<feOffset/>
<feGaussianBlur stdDeviation="1.5"/>
<feComposite in2="hardAlpha" operator="out"/>
<feColorMatrix type="matrix" values="0 0 0 0 1 0 0 0 0 0.478431 0 0 0 0 0.00392157 0 0 0 0.4 0"/>
<feBlend mode="normal" in2="BackgroundImageFix" result="effect1_dropShadow_498_833"/>
<feColorMatrix in="SourceAlpha" type="matrix" values="0 0 0 0 0 0 0 0 0 0 0 0 0 0 0 0 0 0 127 0" result="hardAlpha"/>
<feMorphology radius="1" operator="dilate" in="SourceAlpha" result="effect2_dropShadow_498_833"/>
<feOffset/>
<feGaussianBlur stdDeviation="1"/>
<feComposite in2="hardAlpha" operator="out"/>
<feColorMatrix type="matrix" values="0 0 0 0 1 0 0 0 0 1 0 0 0 0 1 0 0 0 0.2 0"/>
<feBlend mode="normal" in2="effect1_dropShadow_498_833" result="effect2_dropShadow_498_833"/>
<feBlend mode="normal" in="SourceGraphic" in2="BackgroundImageFix" result="shape"/>
<feTurbulence type="fractalNoise" baseFrequency="2 2" stitchTiles="stitch" numOctaves="3" result="noise" seed="5906" />
<feComponentTransfer in="noise" result="coloredNoise1">
<feFuncR type="linear" slope="2" intercept="-0.5" />
<feFuncG type="linear" slope="2" intercept="-0.5" />
<feFuncB type="linear" slope="2" intercept="-0.5" />
<feFuncA type="discrete" tableValues="1 1 1 1 1 1 1 1 1 1 1 1 1 1 1 1 1 1 1 1 1 1 1 1 1 1 1 1 1 1 1 1 1 1 1 1 1 1 1 1 1 1 1 1 1 1 1 1 1 1 1 0 0 0 0 0 0 0 0 0 0 0 0 0 0 0 0 0 0 0 0 0 0 0 0 0 0 0 0 0 0 0 0 0 0 0 0 0 0 0 0 0 0 0 0 0 0 0 0 0 "/>
</feComponentTransfer>
<feComposite operator="in" in2="shape" in="coloredNoise1" result="noise1Clipped" />
<feComponentTransfer in="noise1Clipped" result="color1">
<feFuncA type="table" tableValues="0 0.15" />
</feComponentTransfer>
<feMerge result="effect3_noise_498_833">
<feMergeNode in="shape" />
<feMergeNode in="color1" />
</feMerge>
<feBlend mode="normal" in="effect3_noise_498_833" in2="effect2_dropShadow_498_833" result="effect3_noise_498_833"/>
</filter>
<linearGradient id="paint0_linear_498_833" x1="30.5792" y1="10.5714" x2="30.5792" y2="39.3399" gradientUnits="userSpaceOnUse">
<stop stop-color="#D7D7D7"/>
<stop offset="1" stop-color="#677C8B"/>
</linearGradient>
<linearGradient id="paint1_linear_498_833" x1="31.4028" y1="10.5714" x2="30.7015" y2="40.026" gradientUnits="userSpaceOnUse">
<stop offset="0.482539" stop-color="#D7D7D7" stop-opacity="0"/>
<stop offset="1" stop-color="#677C8B"/>
</linearGradient>
<radialGradient id="paint2_radial_498_833" cx="0" cy="0" r="1" gradientTransform="matrix(7.3502 6.75507 -4.39089 9.20699 12.2784 40.2079)" gradientUnits="userSpaceOnUse">
<stop stop-color="#FFB434"/>
<stop offset="1" stop-color="#FFA307"/>
</radialGradient>
<linearGradient id="paint3_linear_498_833" x1="40.1448" y1="42.3969" x2="38.9987" y2="46.6745" gradientUnits="userSpaceOnUse">
<stop stop-color="white"/>
<stop offset="1" stop-color="#C1D6E5"/>
</linearGradient>
<linearGradient id="paint4_linear_498_833" x1="35.6448" y1="49.8969" x2="34.4987" y2="54.1745" gradientUnits="userSpaceOnUse">
<stop stop-color="white"/>
<stop offset="1" stop-color="#C1D6E5"/>
</linearGradient>
<linearGradient id="paint5_linear_498_833" x1="43.1458" y1="49.8969" x2="41.9997" y2="54.1745" gradientUnits="userSpaceOnUse">
<stop stop-color="white"/>
<stop offset="1" stop-color="#C1D6E5"/>
</linearGradient>
<linearGradient id="paint6_linear_498_833" x1="47.6458" y1="43.8969" x2="46.4997" y2="48.1745" gradientUnits="userSpaceOnUse">
<stop stop-color="white"/>
<stop offset="1" stop-color="#C1D6E5"/>
</linearGradient>
<linearGradient id="paint7_linear_498_833" x1="32.6458" y1="43.8969" x2="31.4997" y2="48.1745" gradientUnits="userSpaceOnUse">
<stop stop-color="white"/>
<stop offset="1" stop-color="#C1D6E5"/>
</linearGradient>
</defs>
</svg>
