<svg width="60" height="60" viewBox="0 0 60 60" fill="none" xmlns="http://www.w3.org/2000/svg">
<g filter="url(#filter0_ddn_520_571)">
<g clip-path="url(#paint0_diamond_520_571_clip_path)" data-figma-skip-parse="true"><g transform="matrix(0 0.0036904 -0.00366609 0 18.8338 41.4404)"><rect x="0" y="0" width="1574.25" height="1591.29" fill="url(#paint0_diamond_520_571)" opacity="1" shape-rendering="crispEdges"/><rect x="0" y="0" width="1574.25" height="1591.29" transform="scale(1 -1)" fill="url(#paint0_diamond_520_571)" opacity="1" shape-rendering="crispEdges"/><rect x="0" y="0" width="1574.25" height="1591.29" transform="scale(-1 1)" fill="url(#paint0_diamond_520_571)" opacity="1" shape-rendering="crispEdges"/><rect x="0" y="0" width="1574.25" height="1591.29" transform="scale(-1)" fill="url(#paint0_diamond_520_571)" opacity="1" shape-rendering="crispEdges"/></g></g><path d="M18.7489 37.75C18.8098 37.75 18.8592 37.7994 18.8592 37.8603V39.0279L19.443 38.4441C19.4861 38.401 19.5559 38.401 19.599 38.4441C19.642 38.4871 19.642 38.557 19.599 38.6L18.8592 39.3398V41.2331L20.2153 39.877C20.2583 39.834 20.3282 39.834 20.3712 39.877C20.4143 39.9201 20.4143 39.9899 20.3712 40.033L19.0156 41.3886H21.2411L21.9798 40.65C22.0228 40.6069 22.0927 40.6069 22.1357 40.65C22.1788 40.693 22.1788 40.7629 22.1357 40.8059L21.553 41.3886H22.3897C22.4506 41.3886 22.5 41.438 22.5 41.4989C22.5 41.5598 22.4506 41.6092 22.3897 41.6092H21.5509L22.1357 42.1941C22.1788 42.2372 22.1788 42.307 22.1357 42.35C22.0927 42.3931 22.0228 42.3931 21.9798 42.35L21.2389 41.6092H19.0167L20.3727 42.9653C20.4158 43.0083 20.4158 43.0782 20.3727 43.1212C20.3297 43.1643 20.2599 43.1643 20.2168 43.1212L18.8592 41.7637V43.7705L19.599 44.5103C19.642 44.5533 19.642 44.6231 19.599 44.6662C19.5559 44.7093 19.4861 44.7093 19.443 44.6662L18.8592 44.0824V45.1397C18.8592 45.2006 18.8098 45.25 18.7489 45.25C18.688 45.25 18.6386 45.2006 18.6386 45.1397V44.0824L18.0548 44.6662C18.0118 44.7093 17.942 44.7093 17.8989 44.6662C17.8558 44.6231 17.8558 44.5533 17.8989 44.5103L18.6386 43.7705V41.7656L17.283 43.1212C17.2399 43.1643 17.1701 43.1643 17.127 43.1212C17.084 43.0782 17.084 43.0083 17.127 42.9653L18.4831 41.6092H16.8104L16.0696 42.35C16.0265 42.3931 15.9567 42.3931 15.9136 42.35C15.8705 42.307 15.8705 42.2372 15.9136 42.1941L16.4984 41.6092H15.1103C15.0494 41.6092 15 41.5598 15 41.4989C15 41.438 15.0494 41.3886 15.1103 41.3886H16.4963L15.9136 40.8059C15.8705 40.7629 15.8705 40.693 15.9136 40.65C15.9567 40.6069 16.0265 40.6069 16.0696 40.65L16.8082 41.3886H18.484L17.1285 40.0332C17.0855 39.9901 17.0855 39.9201 17.1285 39.877C17.1716 39.834 17.2414 39.834 17.2845 39.877L18.6386 41.2312V39.3398L17.8989 38.6C17.8558 38.557 17.8558 38.4872 17.8989 38.4441C17.942 38.401 18.0118 38.401 18.0548 38.4441L18.6386 39.0279V37.8603C18.6386 37.7994 18.688 37.75 18.7489 37.75Z" data-figma-gradient-fill="{&#34;type&#34;:&#34;GRADIENT_DIAMOND&#34;,&#34;stops&#34;:[{&#34;color&#34;:{&#34;r&#34;:0.10218223929405212,&#34;g&#34;:0.62590914964675903,&#34;b&#34;:1.0,&#34;a&#34;:1.0},&#34;position&#34;:0.0},{&#34;color&#34;:{&#34;r&#34;:0.80551379919052124,&#34;g&#34;:0.89035767316818237,&#34;b&#34;:1.0,&#34;a&#34;:1.0},&#34;position&#34;:0.51442307233810425},{&#34;color&#34;:{&#34;r&#34;:1.0,&#34;g&#34;:1.0,&#34;b&#34;:1.0,&#34;a&#34;:1.0},&#34;position&#34;:1.0}],&#34;stopsVar&#34;:[{&#34;color&#34;:{&#34;r&#34;:0.10218223929405212,&#34;g&#34;:0.62590914964675903,&#34;b&#34;:1.0,&#34;a&#34;:1.0},&#34;position&#34;:0.0},{&#34;color&#34;:{&#34;r&#34;:0.80551379919052124,&#34;g&#34;:0.89035767316818237,&#34;b&#34;:1.0,&#34;a&#34;:1.0},&#34;position&#34;:0.51442307233810425},{&#34;color&#34;:{&#34;r&#34;:1.0,&#34;g&#34;:1.0,&#34;b&#34;:1.0,&#34;a&#34;:1.0},&#34;position&#34;:1.0}],&#34;transform&#34;:{&#34;m00&#34;:4.4896679613726730e-16,&#34;m01&#34;:-7.3321838378906250,&#34;m02&#34;:22.499912261962891,&#34;m10&#34;:7.3807969093322754,&#34;m11&#34;:4.5194353461171493e-16,&#34;m12&#34;:37.750},&#34;opacity&#34;:1.0,&#34;blendMode&#34;:&#34;NORMAL&#34;,&#34;visible&#34;:true}"/>
</g>
<g filter="url(#filter1_ddn_520_571)">
<g clip-path="url(#paint1_diamond_520_571_clip_path)" data-figma-skip-parse="true"><g transform="matrix(0 0.0036904 -0.00366609 0 34.3338 42.4404)"><rect x="0" y="0" width="1574.25" height="1591.29" fill="url(#paint1_diamond_520_571)" opacity="1" shape-rendering="crispEdges"/><rect x="0" y="0" width="1574.25" height="1591.29" transform="scale(1 -1)" fill="url(#paint1_diamond_520_571)" opacity="1" shape-rendering="crispEdges"/><rect x="0" y="0" width="1574.25" height="1591.29" transform="scale(-1 1)" fill="url(#paint1_diamond_520_571)" opacity="1" shape-rendering="crispEdges"/><rect x="0" y="0" width="1574.25" height="1591.29" transform="scale(-1)" fill="url(#paint1_diamond_520_571)" opacity="1" shape-rendering="crispEdges"/></g></g><path d="M34.2489 38.75C34.3098 38.75 34.3592 38.7994 34.3592 38.8603V40.0279L34.943 39.4441C34.9861 39.401 35.0559 39.401 35.099 39.4441C35.142 39.4871 35.142 39.557 35.099 39.6L34.3592 40.3398V42.2331L35.7153 40.877C35.7583 40.834 35.8282 40.834 35.8712 40.877C35.9143 40.9201 35.9143 40.9899 35.8712 41.033L34.5156 42.3886H36.7411L37.4798 41.65C37.5228 41.6069 37.5927 41.6069 37.6357 41.65C37.6788 41.693 37.6788 41.7629 37.6357 41.8059L37.053 42.3886H37.8897C37.9506 42.3886 38 42.438 38 42.4989C38 42.5598 37.9506 42.6092 37.8897 42.6092H37.0509L37.6357 43.1941C37.6788 43.2372 37.6788 43.307 37.6357 43.35C37.5927 43.3931 37.5228 43.3931 37.4798 43.35L36.7389 42.6092H34.5167L35.8727 43.9653C35.9158 44.0083 35.9158 44.0782 35.8727 44.1212C35.8297 44.1643 35.7599 44.1643 35.7168 44.1212L34.3592 42.7637V44.7705L35.099 45.5103C35.142 45.5533 35.142 45.6231 35.099 45.6662C35.0559 45.7093 34.9861 45.7093 34.943 45.6662L34.3592 45.0824V46.1397C34.3592 46.2006 34.3098 46.25 34.2489 46.25C34.188 46.25 34.1386 46.2006 34.1386 46.1397V45.0824L33.5548 45.6662C33.5118 45.7093 33.442 45.7093 33.3989 45.6662C33.3558 45.6231 33.3558 45.5533 33.3989 45.5103L34.1386 44.7705V42.7656L32.783 44.1212C32.7399 44.1643 32.6701 44.1643 32.627 44.1212C32.584 44.0782 32.584 44.0083 32.627 43.9653L33.9831 42.6092H32.3104L31.5696 43.35C31.5265 43.3931 31.4567 43.3931 31.4136 43.35C31.3705 43.307 31.3705 43.2372 31.4136 43.1941L31.9984 42.6092H30.6103C30.5494 42.6092 30.5 42.5598 30.5 42.4989C30.5 42.438 30.5494 42.3886 30.6103 42.3886H31.9963L31.4136 41.8059C31.3705 41.7629 31.3705 41.693 31.4136 41.65C31.4567 41.6069 31.5265 41.6069 31.5696 41.65L32.3082 42.3886H33.984L32.6285 41.0332C32.5855 40.9901 32.5855 40.9201 32.6285 40.877C32.6716 40.834 32.7414 40.834 32.7845 40.877L34.1386 42.2312V40.3398L33.3989 39.6C33.3558 39.557 33.3558 39.4872 33.3989 39.4441C33.442 39.401 33.5118 39.401 33.5548 39.4441L34.1386 40.0279V38.8603C34.1386 38.7994 34.188 38.75 34.2489 38.75Z" data-figma-gradient-fill="{&#34;type&#34;:&#34;GRADIENT_DIAMOND&#34;,&#34;stops&#34;:[{&#34;color&#34;:{&#34;r&#34;:0.10218223929405212,&#34;g&#34;:0.62590914964675903,&#34;b&#34;:1.0,&#34;a&#34;:1.0},&#34;position&#34;:0.0},{&#34;color&#34;:{&#34;r&#34;:0.80551379919052124,&#34;g&#34;:0.89035767316818237,&#34;b&#34;:1.0,&#34;a&#34;:1.0},&#34;position&#34;:0.51442307233810425},{&#34;color&#34;:{&#34;r&#34;:1.0,&#34;g&#34;:1.0,&#34;b&#34;:1.0,&#34;a&#34;:1.0},&#34;position&#34;:1.0}],&#34;stopsVar&#34;:[{&#34;color&#34;:{&#34;r&#34;:0.10218223929405212,&#34;g&#34;:0.62590914964675903,&#34;b&#34;:1.0,&#34;a&#34;:1.0},&#34;position&#34;:0.0},{&#34;color&#34;:{&#34;r&#34;:0.80551379919052124,&#34;g&#34;:0.89035767316818237,&#34;b&#34;:1.0,&#34;a&#34;:1.0},&#34;position&#34;:0.51442307233810425},{&#34;color&#34;:{&#34;r&#34;:1.0,&#34;g&#34;:1.0,&#34;b&#34;:1.0,&#34;a&#34;:1.0},&#34;position&#34;:1.0}],&#34;transform&#34;:{&#34;m00&#34;:4.4896679613726730e-16,&#34;m01&#34;:-7.3321838378906250,&#34;m02&#34;:37.999912261962891,&#34;m10&#34;:7.3807969093322754,&#34;m11&#34;:4.5194353461171493e-16,&#34;m12&#34;:38.750},&#34;opacity&#34;:1.0,&#34;blendMode&#34;:&#34;NORMAL&#34;,&#34;visible&#34;:true}"/>
</g>
<g filter="url(#filter2_ddn_520_571)">
<g clip-path="url(#paint2_diamond_520_571_clip_path)" data-figma-skip-parse="true"><g transform="matrix(0 0.0036904 -0.00366609 0 44.3338 46.4404)"><rect x="0" y="0" width="1574.25" height="1591.29" fill="url(#paint2_diamond_520_571)" opacity="1" shape-rendering="crispEdges"/><rect x="0" y="0" width="1574.25" height="1591.29" transform="scale(1 -1)" fill="url(#paint2_diamond_520_571)" opacity="1" shape-rendering="crispEdges"/><rect x="0" y="0" width="1574.25" height="1591.29" transform="scale(-1 1)" fill="url(#paint2_diamond_520_571)" opacity="1" shape-rendering="crispEdges"/><rect x="0" y="0" width="1574.25" height="1591.29" transform="scale(-1)" fill="url(#paint2_diamond_520_571)" opacity="1" shape-rendering="crispEdges"/></g></g><path d="M44.2489 42.75C44.3098 42.75 44.3592 42.7994 44.3592 42.8603V44.0279L44.943 43.4441C44.9861 43.401 45.0559 43.401 45.099 43.4441C45.142 43.4871 45.142 43.557 45.099 43.6L44.3592 44.3398V46.2331L45.7153 44.877C45.7583 44.834 45.8282 44.834 45.8712 44.877C45.9143 44.9201 45.9143 44.9899 45.8712 45.033L44.5156 46.3886H46.7411L47.4798 45.65C47.5228 45.6069 47.5927 45.6069 47.6357 45.65C47.6788 45.693 47.6788 45.7629 47.6357 45.8059L47.053 46.3886H47.8897C47.9506 46.3886 48 46.438 48 46.4989C48 46.5598 47.9506 46.6092 47.8897 46.6092H47.0509L47.6357 47.1941C47.6788 47.2372 47.6788 47.307 47.6357 47.35C47.5927 47.3931 47.5228 47.3931 47.4798 47.35L46.7389 46.6092H44.5167L45.8727 47.9653C45.9158 48.0083 45.9158 48.0782 45.8727 48.1212C45.8297 48.1643 45.7599 48.1643 45.7168 48.1212L44.3592 46.7637V48.7705L45.099 49.5103C45.142 49.5533 45.142 49.6231 45.099 49.6662C45.0559 49.7093 44.9861 49.7093 44.943 49.6662L44.3592 49.0824V50.1397C44.3592 50.2006 44.3098 50.25 44.2489 50.25C44.188 50.25 44.1386 50.2006 44.1386 50.1397V49.0824L43.5548 49.6662C43.5118 49.7093 43.442 49.7093 43.3989 49.6662C43.3558 49.6231 43.3558 49.5533 43.3989 49.5103L44.1386 48.7705V46.7656L42.783 48.1212C42.7399 48.1643 42.6701 48.1643 42.627 48.1212C42.584 48.0782 42.584 48.0083 42.627 47.9653L43.9831 46.6092H42.3104L41.5696 47.35C41.5265 47.3931 41.4567 47.3931 41.4136 47.35C41.3705 47.307 41.3705 47.2372 41.4136 47.1941L41.9984 46.6092H40.6103C40.5494 46.6092 40.5 46.5598 40.5 46.4989C40.5 46.438 40.5494 46.3886 40.6103 46.3886H41.9963L41.4136 45.8059C41.3705 45.7629 41.3705 45.693 41.4136 45.65C41.4567 45.6069 41.5265 45.6069 41.5696 45.65L42.3082 46.3886H43.984L42.6285 45.0332C42.5855 44.9901 42.5855 44.9201 42.6285 44.877C42.6716 44.834 42.7414 44.834 42.7845 44.877L44.1386 46.2312V44.3398L43.3989 43.6C43.3558 43.557 43.3558 43.4872 43.3989 43.4441C43.442 43.401 43.5118 43.401 43.5548 43.4441L44.1386 44.0279V42.8603C44.1386 42.7994 44.188 42.75 44.2489 42.75Z" data-figma-gradient-fill="{&#34;type&#34;:&#34;GRADIENT_DIAMOND&#34;,&#34;stops&#34;:[{&#34;color&#34;:{&#34;r&#34;:0.10218223929405212,&#34;g&#34;:0.62590914964675903,&#34;b&#34;:1.0,&#34;a&#34;:1.0},&#34;position&#34;:0.0},{&#34;color&#34;:{&#34;r&#34;:0.80551379919052124,&#34;g&#34;:0.89035767316818237,&#34;b&#34;:1.0,&#34;a&#34;:1.0},&#34;position&#34;:0.51442307233810425},{&#34;color&#34;:{&#34;r&#34;:1.0,&#34;g&#34;:1.0,&#34;b&#34;:1.0,&#34;a&#34;:1.0},&#34;position&#34;:1.0}],&#34;stopsVar&#34;:[{&#34;color&#34;:{&#34;r&#34;:0.10218223929405212,&#34;g&#34;:0.62590914964675903,&#34;b&#34;:1.0,&#34;a&#34;:1.0},&#34;position&#34;:0.0},{&#34;color&#34;:{&#34;r&#34;:0.80551379919052124,&#34;g&#34;:0.89035767316818237,&#34;b&#34;:1.0,&#34;a&#34;:1.0},&#34;position&#34;:0.51442307233810425},{&#34;color&#34;:{&#34;r&#34;:1.0,&#34;g&#34;:1.0,&#34;b&#34;:1.0,&#34;a&#34;:1.0},&#34;position&#34;:1.0}],&#34;transform&#34;:{&#34;m00&#34;:4.4896679613726730e-16,&#34;m01&#34;:-7.3321838378906250,&#34;m02&#34;:47.999912261962891,&#34;m10&#34;:7.3807969093322754,&#34;m11&#34;:4.5194353461171493e-16,&#34;m12&#34;:42.750},&#34;opacity&#34;:1.0,&#34;blendMode&#34;:&#34;NORMAL&#34;,&#34;visible&#34;:true}"/>
</g>
<path d="M19.1139 50.7882C17.6323 51.9441 15.3252 54.4318 17.9492 55.1349C20.5733 55.838 19.8191 52.5301 19.1139 50.7882Z" fill="url(#paint3_linear_520_571)"/>
<path d="M36.6139 50.7882C35.1323 51.9441 32.8252 54.4318 35.4492 55.1349C38.0733 55.838 37.3191 52.5301 36.6139 50.7882Z" fill="url(#paint4_linear_520_571)"/>
<path d="M11.6139 41.7882C10.1323 42.9441 7.82516 45.4318 10.4492 46.1349C13.0733 46.838 12.3191 43.5301 11.6139 41.7882Z" fill="url(#paint5_linear_520_571)"/>
<path d="M50.1139 38.7882C48.6323 39.9441 46.3252 42.4318 48.9492 43.1349C51.5733 43.838 50.8191 40.5301 50.1139 38.7882Z" fill="url(#paint6_linear_520_571)"/>
<path d="M28.1139 47.7882C26.6323 48.9441 24.3252 51.4318 26.9492 52.1349C29.5733 52.838 28.8191 49.5301 28.1139 47.7882Z" fill="url(#paint7_linear_520_571)"/>
<path d="M47.2902 33.834C33.9461 33.834 15.874 34.9181 10.1581 33.834C4.44222 32.7498 1.84178 26.2117 3.75408 21.4057C5.3429 17.4126 10.5869 14.7949 14.7996 15.8481C14.7996 7.72537 23.5022 7.14518 26.9836 10.0462C32.205 -0.977463 47.2902 4.82442 47.2902 13.5273C59.474 13.5273 60.6343 33.834 47.2902 33.834Z" fill="url(#paint8_linear_520_571)"/>
<g filter="url(#filter3_n_520_571)">
<path d="M47.3413 34.3158C33.9577 34.3158 15.8321 34.9181 10.0993 33.834C4.36651 32.7498 1.75837 26.2117 3.67632 21.4057C5.26985 17.4126 10.5294 14.7949 14.7545 15.8481C14.7545 7.72537 23.4829 7.14518 26.9746 10.0462C32.2115 -0.977462 47.3413 4.82443 47.3413 13.5273C59.561 13.5273 60.7248 34.3158 47.3413 34.3158Z" fill="url(#paint9_linear_520_571)"/>
</g>
<defs>
<filter id="filter0_ddn_520_571" x="10" y="32.75" width="17.5" height="17.5" filterUnits="userSpaceOnUse" color-interpolation-filters="sRGB">
<feFlood flood-opacity="0" result="BackgroundImageFix"/>
<feColorMatrix in="SourceAlpha" type="matrix" values="0 0 0 0 0 0 0 0 0 0 0 0 0 0 0 0 0 0 127 0" result="hardAlpha"/>
<feOffset/>
<feGaussianBlur stdDeviation="2"/>
<feComposite in2="hardAlpha" operator="out"/>
<feColorMatrix type="matrix" values="0 0 0 0 1 0 0 0 0 1 0 0 0 0 1 0 0 0 0.25 0"/>
<feBlend mode="normal" in2="BackgroundImageFix" result="effect1_dropShadow_520_571"/>
<feColorMatrix in="SourceAlpha" type="matrix" values="0 0 0 0 0 0 0 0 0 0 0 0 0 0 0 0 0 0 127 0" result="hardAlpha"/>
<feOffset/>
<feGaussianBlur stdDeviation="2.5"/>
<feComposite in2="hardAlpha" operator="out"/>
<feColorMatrix type="matrix" values="0 0 0 0 1 0 0 0 0 1 0 0 0 0 1 0 0 0 0.25 0"/>
<feBlend mode="normal" in2="effect1_dropShadow_520_571" result="effect2_dropShadow_520_571"/>
<feBlend mode="normal" in="SourceGraphic" in2="BackgroundImageFix" result="shape"/>
<feTurbulence type="fractalNoise" baseFrequency="2 2" stitchTiles="stitch" numOctaves="3" result="noise" seed="4225" />
<feComponentTransfer in="noise" result="coloredNoise1">
<feFuncR type="linear" slope="2" intercept="-0.5" />
<feFuncG type="linear" slope="2" intercept="-0.5" />
<feFuncB type="linear" slope="2" intercept="-0.5" />
<feFuncA type="discrete" tableValues="1 1 1 1 1 1 1 1 1 1 1 1 1 1 1 1 1 1 1 1 1 1 1 1 1 1 1 1 1 1 1 1 1 1 1 1 1 1 1 1 1 1 1 1 1 1 1 1 1 1 1 0 0 0 0 0 0 0 0 0 0 0 0 0 0 0 0 0 0 0 0 0 0 0 0 0 0 0 0 0 0 0 0 0 0 0 0 0 0 0 0 0 0 0 0 0 0 0 0 0 "/>
</feComponentTransfer>
<feComposite operator="in" in2="shape" in="coloredNoise1" result="noise1Clipped" />
<feComponentTransfer in="noise1Clipped" result="color1">
<feFuncA type="table" tableValues="0 0.15" />
</feComponentTransfer>
<feMerge result="effect3_noise_520_571">
<feMergeNode in="shape" />
<feMergeNode in="color1" />
</feMerge>
<feBlend mode="normal" in="effect3_noise_520_571" in2="effect2_dropShadow_520_571" result="effect3_noise_520_571"/>
</filter>
<clipPath id="paint0_diamond_520_571_clip_path"><path d="M18.7489 37.75C18.8098 37.75 18.8592 37.7994 18.8592 37.8603V39.0279L19.443 38.4441C19.4861 38.401 19.5559 38.401 19.599 38.4441C19.642 38.4871 19.642 38.557 19.599 38.6L18.8592 39.3398V41.2331L20.2153 39.877C20.2583 39.834 20.3282 39.834 20.3712 39.877C20.4143 39.9201 20.4143 39.9899 20.3712 40.033L19.0156 41.3886H21.2411L21.9798 40.65C22.0228 40.6069 22.0927 40.6069 22.1357 40.65C22.1788 40.693 22.1788 40.7629 22.1357 40.8059L21.553 41.3886H22.3897C22.4506 41.3886 22.5 41.438 22.5 41.4989C22.5 41.5598 22.4506 41.6092 22.3897 41.6092H21.5509L22.1357 42.1941C22.1788 42.2372 22.1788 42.307 22.1357 42.35C22.0927 42.3931 22.0228 42.3931 21.9798 42.35L21.2389 41.6092H19.0167L20.3727 42.9653C20.4158 43.0083 20.4158 43.0782 20.3727 43.1212C20.3297 43.1643 20.2599 43.1643 20.2168 43.1212L18.8592 41.7637V43.7705L19.599 44.5103C19.642 44.5533 19.642 44.6231 19.599 44.6662C19.5559 44.7093 19.4861 44.7093 19.443 44.6662L18.8592 44.0824V45.1397C18.8592 45.2006 18.8098 45.25 18.7489 45.25C18.688 45.25 18.6386 45.2006 18.6386 45.1397V44.0824L18.0548 44.6662C18.0118 44.7093 17.942 44.7093 17.8989 44.6662C17.8558 44.6231 17.8558 44.5533 17.8989 44.5103L18.6386 43.7705V41.7656L17.283 43.1212C17.2399 43.1643 17.1701 43.1643 17.127 43.1212C17.084 43.0782 17.084 43.0083 17.127 42.9653L18.4831 41.6092H16.8104L16.0696 42.35C16.0265 42.3931 15.9567 42.3931 15.9136 42.35C15.8705 42.307 15.8705 42.2372 15.9136 42.1941L16.4984 41.6092H15.1103C15.0494 41.6092 15 41.5598 15 41.4989C15 41.438 15.0494 41.3886 15.1103 41.3886H16.4963L15.9136 40.8059C15.8705 40.7629 15.8705 40.693 15.9136 40.65C15.9567 40.6069 16.0265 40.6069 16.0696 40.65L16.8082 41.3886H18.484L17.1285 40.0332C17.0855 39.9901 17.0855 39.9201 17.1285 39.877C17.1716 39.834 17.2414 39.834 17.2845 39.877L18.6386 41.2312V39.3398L17.8989 38.6C17.8558 38.557 17.8558 38.4872 17.8989 38.4441C17.942 38.401 18.0118 38.401 18.0548 38.4441L18.6386 39.0279V37.8603C18.6386 37.7994 18.688 37.75 18.7489 37.75Z"/></clipPath><filter id="filter1_ddn_520_571" x="25.5" y="33.75" width="17.5" height="17.5" filterUnits="userSpaceOnUse" color-interpolation-filters="sRGB">
<feFlood flood-opacity="0" result="BackgroundImageFix"/>
<feColorMatrix in="SourceAlpha" type="matrix" values="0 0 0 0 0 0 0 0 0 0 0 0 0 0 0 0 0 0 127 0" result="hardAlpha"/>
<feOffset/>
<feGaussianBlur stdDeviation="2"/>
<feComposite in2="hardAlpha" operator="out"/>
<feColorMatrix type="matrix" values="0 0 0 0 1 0 0 0 0 1 0 0 0 0 1 0 0 0 0.25 0"/>
<feBlend mode="normal" in2="BackgroundImageFix" result="effect1_dropShadow_520_571"/>
<feColorMatrix in="SourceAlpha" type="matrix" values="0 0 0 0 0 0 0 0 0 0 0 0 0 0 0 0 0 0 127 0" result="hardAlpha"/>
<feOffset/>
<feGaussianBlur stdDeviation="2.5"/>
<feComposite in2="hardAlpha" operator="out"/>
<feColorMatrix type="matrix" values="0 0 0 0 1 0 0 0 0 1 0 0 0 0 1 0 0 0 0.25 0"/>
<feBlend mode="normal" in2="effect1_dropShadow_520_571" result="effect2_dropShadow_520_571"/>
<feBlend mode="normal" in="SourceGraphic" in2="BackgroundImageFix" result="shape"/>
<feTurbulence type="fractalNoise" baseFrequency="2 2" stitchTiles="stitch" numOctaves="3" result="noise" seed="4225" />
<feComponentTransfer in="noise" result="coloredNoise1">
<feFuncR type="linear" slope="2" intercept="-0.5" />
<feFuncG type="linear" slope="2" intercept="-0.5" />
<feFuncB type="linear" slope="2" intercept="-0.5" />
<feFuncA type="discrete" tableValues="1 1 1 1 1 1 1 1 1 1 1 1 1 1 1 1 1 1 1 1 1 1 1 1 1 1 1 1 1 1 1 1 1 1 1 1 1 1 1 1 1 1 1 1 1 1 1 1 1 1 1 0 0 0 0 0 0 0 0 0 0 0 0 0 0 0 0 0 0 0 0 0 0 0 0 0 0 0 0 0 0 0 0 0 0 0 0 0 0 0 0 0 0 0 0 0 0 0 0 0 "/>
</feComponentTransfer>
<feComposite operator="in" in2="shape" in="coloredNoise1" result="noise1Clipped" />
<feComponentTransfer in="noise1Clipped" result="color1">
<feFuncA type="table" tableValues="0 0.15" />
</feComponentTransfer>
<feMerge result="effect3_noise_520_571">
<feMergeNode in="shape" />
<feMergeNode in="color1" />
</feMerge>
<feBlend mode="normal" in="effect3_noise_520_571" in2="effect2_dropShadow_520_571" result="effect3_noise_520_571"/>
</filter>
<clipPath id="paint1_diamond_520_571_clip_path"><path d="M34.2489 38.75C34.3098 38.75 34.3592 38.7994 34.3592 38.8603V40.0279L34.943 39.4441C34.9861 39.401 35.0559 39.401 35.099 39.4441C35.142 39.4871 35.142 39.557 35.099 39.6L34.3592 40.3398V42.2331L35.7153 40.877C35.7583 40.834 35.8282 40.834 35.8712 40.877C35.9143 40.9201 35.9143 40.9899 35.8712 41.033L34.5156 42.3886H36.7411L37.4798 41.65C37.5228 41.6069 37.5927 41.6069 37.6357 41.65C37.6788 41.693 37.6788 41.7629 37.6357 41.8059L37.053 42.3886H37.8897C37.9506 42.3886 38 42.438 38 42.4989C38 42.5598 37.9506 42.6092 37.8897 42.6092H37.0509L37.6357 43.1941C37.6788 43.2372 37.6788 43.307 37.6357 43.35C37.5927 43.3931 37.5228 43.3931 37.4798 43.35L36.7389 42.6092H34.5167L35.8727 43.9653C35.9158 44.0083 35.9158 44.0782 35.8727 44.1212C35.8297 44.1643 35.7599 44.1643 35.7168 44.1212L34.3592 42.7637V44.7705L35.099 45.5103C35.142 45.5533 35.142 45.6231 35.099 45.6662C35.0559 45.7093 34.9861 45.7093 34.943 45.6662L34.3592 45.0824V46.1397C34.3592 46.2006 34.3098 46.25 34.2489 46.25C34.188 46.25 34.1386 46.2006 34.1386 46.1397V45.0824L33.5548 45.6662C33.5118 45.7093 33.442 45.7093 33.3989 45.6662C33.3558 45.6231 33.3558 45.5533 33.3989 45.5103L34.1386 44.7705V42.7656L32.783 44.1212C32.7399 44.1643 32.6701 44.1643 32.627 44.1212C32.584 44.0782 32.584 44.0083 32.627 43.9653L33.9831 42.6092H32.3104L31.5696 43.35C31.5265 43.3931 31.4567 43.3931 31.4136 43.35C31.3705 43.307 31.3705 43.2372 31.4136 43.1941L31.9984 42.6092H30.6103C30.5494 42.6092 30.5 42.5598 30.5 42.4989C30.5 42.438 30.5494 42.3886 30.6103 42.3886H31.9963L31.4136 41.8059C31.3705 41.7629 31.3705 41.693 31.4136 41.65C31.4567 41.6069 31.5265 41.6069 31.5696 41.65L32.3082 42.3886H33.984L32.6285 41.0332C32.5855 40.9901 32.5855 40.9201 32.6285 40.877C32.6716 40.834 32.7414 40.834 32.7845 40.877L34.1386 42.2312V40.3398L33.3989 39.6C33.3558 39.557 33.3558 39.4872 33.3989 39.4441C33.442 39.401 33.5118 39.401 33.5548 39.4441L34.1386 40.0279V38.8603C34.1386 38.7994 34.188 38.75 34.2489 38.75Z"/></clipPath><filter id="filter2_ddn_520_571" x="35.5" y="37.75" width="17.5" height="17.5" filterUnits="userSpaceOnUse" color-interpolation-filters="sRGB">
<feFlood flood-opacity="0" result="BackgroundImageFix"/>
<feColorMatrix in="SourceAlpha" type="matrix" values="0 0 0 0 0 0 0 0 0 0 0 0 0 0 0 0 0 0 127 0" result="hardAlpha"/>
<feOffset/>
<feGaussianBlur stdDeviation="2"/>
<feComposite in2="hardAlpha" operator="out"/>
<feColorMatrix type="matrix" values="0 0 0 0 1 0 0 0 0 1 0 0 0 0 1 0 0 0 0.25 0"/>
<feBlend mode="normal" in2="BackgroundImageFix" result="effect1_dropShadow_520_571"/>
<feColorMatrix in="SourceAlpha" type="matrix" values="0 0 0 0 0 0 0 0 0 0 0 0 0 0 0 0 0 0 127 0" result="hardAlpha"/>
<feOffset/>
<feGaussianBlur stdDeviation="2.5"/>
<feComposite in2="hardAlpha" operator="out"/>
<feColorMatrix type="matrix" values="0 0 0 0 1 0 0 0 0 1 0 0 0 0 1 0 0 0 0.25 0"/>
<feBlend mode="normal" in2="effect1_dropShadow_520_571" result="effect2_dropShadow_520_571"/>
<feBlend mode="normal" in="SourceGraphic" in2="BackgroundImageFix" result="shape"/>
<feTurbulence type="fractalNoise" baseFrequency="2 2" stitchTiles="stitch" numOctaves="3" result="noise" seed="4225" />
<feComponentTransfer in="noise" result="coloredNoise1">
<feFuncR type="linear" slope="2" intercept="-0.5" />
<feFuncG type="linear" slope="2" intercept="-0.5" />
<feFuncB type="linear" slope="2" intercept="-0.5" />
<feFuncA type="discrete" tableValues="1 1 1 1 1 1 1 1 1 1 1 1 1 1 1 1 1 1 1 1 1 1 1 1 1 1 1 1 1 1 1 1 1 1 1 1 1 1 1 1 1 1 1 1 1 1 1 1 1 1 1 0 0 0 0 0 0 0 0 0 0 0 0 0 0 0 0 0 0 0 0 0 0 0 0 0 0 0 0 0 0 0 0 0 0 0 0 0 0 0 0 0 0 0 0 0 0 0 0 0 "/>
</feComponentTransfer>
<feComposite operator="in" in2="shape" in="coloredNoise1" result="noise1Clipped" />
<feComponentTransfer in="noise1Clipped" result="color1">
<feFuncA type="table" tableValues="0 0.15" />
</feComponentTransfer>
<feMerge result="effect3_noise_520_571">
<feMergeNode in="shape" />
<feMergeNode in="color1" />
</feMerge>
<feBlend mode="normal" in="effect3_noise_520_571" in2="effect2_dropShadow_520_571" result="effect3_noise_520_571"/>
</filter>
<clipPath id="paint2_diamond_520_571_clip_path"><path d="M44.2489 42.75C44.3098 42.75 44.3592 42.7994 44.3592 42.8603V44.0279L44.943 43.4441C44.9861 43.401 45.0559 43.401 45.099 43.4441C45.142 43.4871 45.142 43.557 45.099 43.6L44.3592 44.3398V46.2331L45.7153 44.877C45.7583 44.834 45.8282 44.834 45.8712 44.877C45.9143 44.9201 45.9143 44.9899 45.8712 45.033L44.5156 46.3886H46.7411L47.4798 45.65C47.5228 45.6069 47.5927 45.6069 47.6357 45.65C47.6788 45.693 47.6788 45.7629 47.6357 45.8059L47.053 46.3886H47.8897C47.9506 46.3886 48 46.438 48 46.4989C48 46.5598 47.9506 46.6092 47.8897 46.6092H47.0509L47.6357 47.1941C47.6788 47.2372 47.6788 47.307 47.6357 47.35C47.5927 47.3931 47.5228 47.3931 47.4798 47.35L46.7389 46.6092H44.5167L45.8727 47.9653C45.9158 48.0083 45.9158 48.0782 45.8727 48.1212C45.8297 48.1643 45.7599 48.1643 45.7168 48.1212L44.3592 46.7637V48.7705L45.099 49.5103C45.142 49.5533 45.142 49.6231 45.099 49.6662C45.0559 49.7093 44.9861 49.7093 44.943 49.6662L44.3592 49.0824V50.1397C44.3592 50.2006 44.3098 50.25 44.2489 50.25C44.188 50.25 44.1386 50.2006 44.1386 50.1397V49.0824L43.5548 49.6662C43.5118 49.7093 43.442 49.7093 43.3989 49.6662C43.3558 49.6231 43.3558 49.5533 43.3989 49.5103L44.1386 48.7705V46.7656L42.783 48.1212C42.7399 48.1643 42.6701 48.1643 42.627 48.1212C42.584 48.0782 42.584 48.0083 42.627 47.9653L43.9831 46.6092H42.3104L41.5696 47.35C41.5265 47.3931 41.4567 47.3931 41.4136 47.35C41.3705 47.307 41.3705 47.2372 41.4136 47.1941L41.9984 46.6092H40.6103C40.5494 46.6092 40.5 46.5598 40.5 46.4989C40.5 46.438 40.5494 46.3886 40.6103 46.3886H41.9963L41.4136 45.8059C41.3705 45.7629 41.3705 45.693 41.4136 45.65C41.4567 45.6069 41.5265 45.6069 41.5696 45.65L42.3082 46.3886H43.984L42.6285 45.0332C42.5855 44.9901 42.5855 44.9201 42.6285 44.877C42.6716 44.834 42.7414 44.834 42.7845 44.877L44.1386 46.2312V44.3398L43.3989 43.6C43.3558 43.557 43.3558 43.4872 43.3989 43.4441C43.442 43.401 43.5118 43.401 43.5548 43.4441L44.1386 44.0279V42.8603C44.1386 42.7994 44.188 42.75 44.2489 42.75Z"/></clipPath><filter id="filter3_n_520_571" x="3.05273" y="4" width="53.8945" height="30.4826" filterUnits="userSpaceOnUse" color-interpolation-filters="sRGB">
<feFlood flood-opacity="0" result="BackgroundImageFix"/>
<feBlend mode="normal" in="SourceGraphic" in2="BackgroundImageFix" result="shape"/>
<feTurbulence type="fractalNoise" baseFrequency="2 2" stitchTiles="stitch" numOctaves="3" result="noise" seed="6437" />
<feComponentTransfer in="noise" result="coloredNoise1">
<feFuncR type="linear" slope="2" intercept="-0.5" />
<feFuncG type="linear" slope="2" intercept="-0.5" />
<feFuncB type="linear" slope="2" intercept="-0.5" />
<feFuncA type="discrete" tableValues="1 1 1 1 1 1 1 1 1 1 1 1 1 1 1 1 1 1 1 1 1 1 1 1 1 1 1 1 1 1 1 1 1 1 1 1 1 1 1 1 1 1 1 1 1 1 1 1 1 1 1 0 0 0 0 0 0 0 0 0 0 0 0 0 0 0 0 0 0 0 0 0 0 0 0 0 0 0 0 0 0 0 0 0 0 0 0 0 0 0 0 0 0 0 0 0 0 0 0 0 "/>
</feComponentTransfer>
<feComposite operator="in" in2="shape" in="coloredNoise1" result="noise1Clipped" />
<feComponentTransfer in="noise1Clipped" result="color1">
<feFuncA type="table" tableValues="0 0.15" />
</feComponentTransfer>
<feMerge result="effect1_noise_520_571">
<feMergeNode in="shape" />
<feMergeNode in="color1" />
</feMerge>
</filter>
<linearGradient id="paint0_diamond_520_571" x1="0" y1="0" x2="500" y2="500" gradientUnits="userSpaceOnUse">
<stop stop-color="#1AA0FF"/>
<stop offset="0.514423" stop-color="#CDE3FF"/>
<stop offset="1" stop-color="white"/>
</linearGradient>
<linearGradient id="paint1_diamond_520_571" x1="0" y1="0" x2="500" y2="500" gradientUnits="userSpaceOnUse">
<stop stop-color="#1AA0FF"/>
<stop offset="0.514423" stop-color="#CDE3FF"/>
<stop offset="1" stop-color="white"/>
</linearGradient>
<linearGradient id="paint2_diamond_520_571" x1="0" y1="0" x2="500" y2="500" gradientUnits="userSpaceOnUse">
<stop stop-color="#1AA0FF"/>
<stop offset="0.514423" stop-color="#CDE3FF"/>
<stop offset="1" stop-color="white"/>
</linearGradient>
<linearGradient id="paint3_linear_520_571" x1="19.1463" y1="50.7969" x2="18.0001" y2="55.0745" gradientUnits="userSpaceOnUse">
<stop stop-color="#7F88B4" stop-opacity="0.99"/>
<stop offset="1" stop-color="#6B74A0"/>
</linearGradient>
<linearGradient id="paint4_linear_520_571" x1="36.6463" y1="50.7969" x2="35.5001" y2="55.0745" gradientUnits="userSpaceOnUse">
<stop stop-color="#7F88B4" stop-opacity="0.99"/>
<stop offset="1" stop-color="#6B74A0"/>
</linearGradient>
<linearGradient id="paint5_linear_520_571" x1="11.6463" y1="41.7969" x2="10.5001" y2="46.0745" gradientUnits="userSpaceOnUse">
<stop stop-color="#7F88B4" stop-opacity="0.99"/>
<stop offset="1" stop-color="#6B74A0"/>
</linearGradient>
<linearGradient id="paint6_linear_520_571" x1="50.1463" y1="38.7969" x2="49.0001" y2="43.0745" gradientUnits="userSpaceOnUse">
<stop stop-color="#7F88B4" stop-opacity="0.99"/>
<stop offset="1" stop-color="#6B74A0"/>
</linearGradient>
<linearGradient id="paint7_linear_520_571" x1="28.1463" y1="47.7969" x2="27.0001" y2="52.0745" gradientUnits="userSpaceOnUse">
<stop stop-color="#7F88B4" stop-opacity="0.99"/>
<stop offset="1" stop-color="#6B74A0"/>
</linearGradient>
<linearGradient id="paint8_linear_520_571" x1="30.6008" y1="4" x2="30.6008" y2="33.834" gradientUnits="userSpaceOnUse">
<stop stop-color="#A7B0DC" stop-opacity="0.99"/>
<stop offset="1" stop-color="#A7B0DC"/>
</linearGradient>
<linearGradient id="paint9_linear_520_571" x1="31.4547" y1="4" x2="30.7274" y2="34.5455" gradientUnits="userSpaceOnUse">
<stop offset="0.296033" stop-color="#39426E" stop-opacity="0"/>
<stop offset="1" stop-color="#39426E"/>
</linearGradient>
</defs>
</svg>
